<svg width="204" height="204" viewBox="0 0 204 204" fill="none" xmlns="http://www.w3.org/2000/svg">
<rect width="204" height="204" rx="30" fill="black"/>
<path d="M84 155C93.936 155 102 146.936 102 137V119H84C74.064 119 66 127.064 66 137C66 146.936 74.064 155 84 155Z" fill="#0ACF83"/>
<path d="M66 102C66 92.064 74.064 84 84 84H102V120H84C74.064 120 66 111.936 66 102Z" fill="#A259FF"/>
<path d="M66 66C66 56.064 74.064 48 84 48H102V84H84C74.064 84 66 75.936 66 66Z" fill="#F24E1E"/>
<path d="M102 48H120C129.936 48 138 56.064 138 66C138 75.936 129.936 84 120 84H102V48Z" fill="#FF7262"/>
<path d="M138 102C138 111.936 129.936 120 120 120C110.064 120 102 111.936 102 102C102 92.064 110.064 84 120 84C129.936 84 138 92.064 138 102Z" fill="#1ABCFE"/>
</svg>
