<svg width="339" height="257" viewBox="0 0 339 257" fill="none" xmlns="http://www.w3.org/2000/svg">
<path d="M25.986 192.531C41.2759 227.177 67.7657 209.801 79.8921 184.929C96.0071 152.473 95.8104 121.327 85.9925 93.2828C110.204 80.6363 136.798 84.3772 161.777 103.773C162.594 104.262 163.41 104.751 163.982 105.648C148.915 127.096 138.502 151.886 133.063 175.778C127.543 200.729 128.169 251.524 163.246 255.915C196.203 260.142 213.59 196.866 215.767 173.791C218.347 145.416 203.313 121.451 183.147 103.276C189.337 94.7944 196.507 87.4538 204.248 81.0098C222.013 66.1642 245.167 56.2087 268.577 56.934C291.335 57.8227 310.026 70.1275 328.554 81.7801C336.063 86.8325 342.739 74.763 335.637 69.9551C315.313 56.6725 294.093 43.9609 268.97 43.3178C244.908 42.7557 221.182 51.8146 201.785 65.6824C190.945 73.5951 181.494 82.8933 172.778 93.7405C166.737 89.0137 160.86 84.9392 154.331 81.0279C130.253 66.6052 104.073 68.653 81.4112 80.5652C66.6962 49.5877 40.8109 22.4463 10.6095 1.58459C3.50816 -3.22332 -3.33101 8.1939 3.52605 13.4096C31.279 32.8045 56.4285 58.397 69.5915 87.3367C65.7609 90.0287 61.686 93.1285 58.0192 96.4727C34.9578 116.457 12.4952 162.287 25.986 192.531ZM174.839 114.368C187.004 125.534 197.784 138.086 201.472 154.147C206.146 176.893 196.793 201.764 186.373 221.01C180.186 232.264 173.025 247.921 156.047 235.534C147.149 229.096 144.769 215.481 144.024 205.615C143.029 190.613 146.929 175.773 151.808 162.073C156.928 145.194 164.986 128.966 174.839 114.368ZM61.543 111.881C65.6984 107.722 69.8537 103.562 74.5809 100.299C82.5193 125.001 81.733 152.233 67.0002 180.531C62.0346 189.746 57.1555 203.445 43.3609 194.074C35.2796 188.125 35.9975 173.041 37.049 164.806C39.9651 146.052 48.1 125.992 61.543 111.881Z" fill="#F07C4A"/>
</svg>
