<svg width="515" height="28" viewBox="0 0 515 28" fill="none" xmlns="http://www.w3.org/2000/svg">
<path d="M3 10.0179C7.67069 10.0179 12.3123 9.36428 16.9434 8.94527C48.1008 6.12624 79.166 4.67878 110.508 4.01118C165.041 2.84959 219.352 1.76263 273.659 6.37096C302.331 8.80403 330.84 12.5584 359.665 13.6648C382.423 14.5384 405.268 13.4945 428.014 12.914C447.845 12.4078 467.602 11.9486 487.436 11.9486C494.973 11.9486 504.813 11.9897 512 10.0179" stroke="#C0B5F5" stroke-width="5" stroke-linecap="round"/>
<path d="M406 25.5C346 28 332.702 24.7994 322.389 23.2778C311.807 21.7166 311.5 21.5 282.5 18.5" stroke="#C0B5F5" stroke-width="3" stroke-linecap="round"/>
</svg>
