<svg width="54" height="13" viewBox="0 0 54 13" fill="none" xmlns="http://www.w3.org/2000/svg">
<path d="M5.90112 12.0007V11.6017H5.4071C5.07777 11.6017 4.79595 11.4845 4.56161 11.2502C4.32728 11.0159 4.21011 10.734 4.21011 10.4047V6.2247H9.73911C10.0558 6.23737 10.3725 6.16137 10.6891 5.9967C11.0058 5.83203 11.2844 5.60404 11.5251 5.3127C11.7658 5.02137 11.9526 4.66987 12.0856 4.2582C12.2186 3.84653 12.2661 3.40003 12.2281 2.9187C12.2028 2.52603 12.1109 2.1777 11.9526 1.8737C11.7943 1.5697 11.5916 1.31004 11.3446 1.0947C11.0976 0.87937 10.8221 0.702035 10.5181 0.562702C10.2141 0.423369 9.89745 0.328369 9.56812 0.277702C9.36545 0.239702 9.15643 0.220703 8.9411 0.220703H0.828125V0.619701H1.34113C1.67046 0.619701 1.95228 0.73687 2.18661 0.971203C2.42095 1.20554 2.53812 1.48737 2.53812 1.8167V10.4047C2.53812 10.734 2.42095 11.0159 2.18661 11.2502C1.95228 11.4845 1.67046 11.6017 1.34113 11.6017H0.828125V12.0007H5.90112ZM8.5611 5.8257H4.21011V0.619701C4.26078 0.632368 4.41277 0.635537 4.66611 0.629204C4.91944 0.62287 5.22027 0.619701 5.5686 0.619701H6.68961C7.08861 0.619701 7.45593 0.62287 7.7916 0.629204C8.12726 0.635537 8.41227 0.648202 8.64661 0.667202C8.88094 0.686202 9.01077 0.714701 9.0361 0.752701C9.32744 0.866701 9.58078 1.0377 9.79611 1.2657C10.0114 1.4937 10.1856 1.74387 10.3186 2.0162C10.4516 2.28853 10.5403 2.5767 10.5846 2.8807C10.629 3.1847 10.6258 3.47604 10.5751 3.7547C10.5371 3.9827 10.4738 4.2107 10.3851 4.4387C10.2964 4.6667 10.1856 4.87254 10.0526 5.0562C9.91961 5.23987 9.75812 5.3982 9.56812 5.5312C9.37812 5.6642 9.15644 5.7497 8.90311 5.7877C8.83977 5.80037 8.78278 5.80987 8.73212 5.8162C8.68145 5.82253 8.62443 5.81937 8.5611 5.8067V5.8257ZM22.8491 12.0197C22.8745 11.969 22.9536 11.8044 23.0866 11.5257C23.2196 11.247 23.3653 10.943 23.5236 10.6137C23.682 10.2844 23.8308 9.97403 23.9701 9.6827C24.1095 9.39137 24.1981 9.21404 24.2361 9.1507L22.0511 9.9867L21.2531 11.6207H16.5031V6.1677H18.5361L18.7092 6.1809C18.9907 6.21432 19.237 6.30492 19.4481 6.4527C19.7015 6.63003 19.9104 6.84853 20.0751 7.1082C20.2398 7.36787 20.3633 7.64654 20.4456 7.9442C20.528 8.24187 20.5691 8.51737 20.5691 8.7707H20.9681V3.2417H20.5691C20.5691 3.49504 20.528 3.77054 20.4456 4.0682C20.3633 4.36587 20.2398 4.64453 20.0751 4.9042C19.9104 5.16387 19.7015 5.38237 19.4481 5.5597C19.1948 5.73703 18.8908 5.83204 18.5361 5.8447H16.5031V0.638702H21.2531L22.0511 2.2917L24.2361 3.1277C24.1981 3.06437 24.1095 2.88704 23.9701 2.5957C23.8308 2.30437 23.682 1.99087 23.5236 1.6552C23.3653 1.31953 23.2196 1.01237 23.0866 0.733704C22.9536 0.455037 22.8745 0.290367 22.8491 0.2397H13.1211V0.638702H13.6341C13.9635 0.638702 14.2453 0.755867 14.4796 0.9902C14.7139 1.22453 14.8311 1.50637 14.8311 1.8357V10.4237C14.8311 10.753 14.7139 11.0349 14.4796 11.2692C14.2453 11.5035 13.9635 11.6207 13.6341 11.6207H13.1211V12.0197H22.8491ZM29.3851 12.0007V11.6017H28.7961C28.4668 11.6017 28.1881 11.4845 27.9601 11.2502C27.7321 11.0159 27.6181 10.734 27.6181 10.4047V1.8167L36.4911 12.0007L37.9921 11.2597L37.1561 10.2717V1.8167C37.1561 1.48737 37.2733 1.20554 37.5076 0.971203C37.7419 0.73687 38.0238 0.619701 38.3531 0.619701H38.9421V0.220703H34.7811V0.619701H35.5791C35.9084 0.619701 36.1871 0.73687 36.4151 0.971203C36.6431 1.20554 36.7571 1.48737 36.7571 1.8167V9.8157L28.8721 0.619701L28.5301 0.220703H25.2431V0.619701C25.4204 0.619701 25.5914 0.616536 25.7561 0.610203C25.9208 0.603869 26.0791 0.616534 26.2311 0.648201C26.3831 0.679868 26.5288 0.7337 26.6681 0.8097C26.8075 0.8857 26.9278 1.01237 27.0291 1.1897L27.0907 1.30598C27.1636 1.46406 27.2001 1.6343 27.2001 1.8167V10.4047C27.2001 10.734 27.0861 11.0159 26.8581 11.2502C26.6301 11.4845 26.3515 11.6017 26.0221 11.6017H25.2431V12.0007H29.3851ZM43.9201 12.0007V11.6017H43.3311C43.0018 11.6017 42.7231 11.4845 42.4951 11.2502C42.2671 11.0159 42.1531 10.734 42.1531 10.4047V1.8167L51.0261 12.0007L52.5271 11.2597L51.6911 10.2717V1.8167C51.6911 1.48737 51.8083 1.20554 52.0426 0.971203C52.2769 0.73687 52.5588 0.619701 52.8881 0.619701H53.4771V0.220703H49.3161V0.619701H50.1141C50.4434 0.619701 50.7221 0.73687 50.9501 0.971203C51.1781 1.20554 51.2921 1.48737 51.2921 1.8167V9.8157L43.4071 0.619701L43.0651 0.220703H39.7781V0.619701C39.9554 0.619701 40.1264 0.616536 40.2911 0.610203C40.4558 0.603869 40.6141 0.616534 40.7661 0.648201C40.9181 0.679868 41.0638 0.7337 41.2031 0.8097C41.3425 0.8857 41.4628 1.01237 41.5641 1.1897L41.6257 1.30598C41.6986 1.46406 41.7351 1.6343 41.7351 1.8167V10.4047C41.7351 10.734 41.6211 11.0159 41.3931 11.2502C41.1651 11.4845 40.8864 11.6017 40.5571 11.6017H39.7781V12.0007H43.9201Z" fill="black"/>
</svg>
