<svg width="52" height="20" viewBox="0 0 52 20" fill="none" xmlns="http://www.w3.org/2000/svg">
<path d="M4.26458 19.538C4.53058 19.538 4.69857 19.454 4.76857 19.286C4.81057 19.174 4.96458 18.677 5.23058 17.795C5.39858 17.179 5.66457 16.332 6.02857 15.254C6.21057 14.736 6.37158 14.26 6.51158 13.826C7.26758 11.46 8.05857 9.42305 8.88457 7.71505C8.95457 7.54705 8.99658 7.43505 9.01058 7.37905C9.01058 7.33705 9.02808 7.30905 9.06308 7.29505C9.09808 7.28105 9.22058 7.25305 9.43058 7.21105C11.4886 6.77705 12.8326 6.55305 13.4626 6.53905C13.7426 6.52505 13.9211 6.50755 13.9981 6.48655C14.0751 6.46555 14.1416 6.42005 14.1976 6.35005C14.2816 6.23805 14.3376 6.04205 14.3656 5.76205C14.4216 5.20205 14.3236 4.60705 14.0716 3.97705C13.8756 3.50105 13.6656 3.22105 13.4416 3.13705C13.3996 3.12305 13.2386 3.11955 12.9586 3.12655C12.6786 3.13355 12.4476 3.14405 12.2656 3.15805C11.8176 3.21405 10.9461 3.37155 9.65108 3.63055C8.35608 3.88955 7.20458 4.14505 6.19658 4.39705C3.85858 4.95705 2.26957 5.49605 1.42957 6.01405C1.23358 6.14005 1.10757 6.25555 1.05157 6.36055C0.995575 6.46555 0.974575 6.63705 0.988575 6.87505C1.01658 7.16905 1.10057 7.49805 1.24057 7.86205C1.35257 8.11405 1.47508 8.34505 1.60808 8.55505C1.74108 8.76505 1.88107 8.93305 2.02807 9.05905C2.17507 9.18505 2.31157 9.25505 2.43757 9.26905C2.52157 9.28305 2.68258 9.21305 2.92058 9.05905C3.27058 8.86305 3.64857 8.69505 4.05457 8.55505C4.92257 8.24705 5.37057 8.11405 5.39857 8.15605C5.39857 8.15605 5.33558 8.31705 5.20958 8.63905C4.71958 9.84305 4.13157 11.467 3.44557 13.511C3.08158 14.603 2.77357 15.562 2.52157 16.388C2.33957 17.032 2.22758 17.41 2.18558 17.522C2.12958 17.704 2.12257 17.865 2.16457 18.005C2.27657 18.313 2.50758 18.6105 2.85758 18.8975C3.20758 19.1845 3.57858 19.391 3.97058 19.517C4.02658 19.531 4.12458 19.538 4.26458 19.538ZM17.9356 19.727C18.2016 19.783 18.4116 19.79 18.5656 19.748C18.8036 19.678 18.9226 19.503 18.9226 19.223C18.9226 19.111 18.8946 19.006 18.8386 18.908L18.7546 18.761V17.837C18.7266 15.849 18.8526 13.791 19.1326 11.663C19.2586 10.613 19.4826 9.38105 19.8046 7.96705L19.8886 7.50505L19.8466 7.35805C19.7906 7.14805 19.6436 6.91705 19.4056 6.66505C18.9016 6.17505 18.3696 5.88805 17.8096 5.80405C17.6976 5.79005 17.6066 5.76205 17.5366 5.72005C17.3266 5.63605 17.1656 5.58705 17.0536 5.57305C16.9136 5.55905 16.8121 5.57305 16.7491 5.61505C16.6861 5.65705 16.5496 5.80405 16.3396 6.05605C15.6816 6.77005 15.0096 7.54005 14.3236 8.36605C13.6376 9.19205 13.0041 9.98655 12.4231 10.7495C11.8421 11.5125 11.3766 12.167 11.0266 12.713C10.7326 13.175 10.4316 13.651 10.1236 14.141C8.98958 16.017 8.31058 17.179 8.08658 17.627C8.00258 17.781 7.98858 17.942 8.04458 18.11C8.15658 18.474 8.45408 18.831 8.93708 19.181C9.42008 19.531 9.85057 19.706 10.2286 19.706C10.4946 19.706 10.6556 19.608 10.7116 19.412C10.7396 19.3 11.2996 18.327 12.3916 16.493L12.6226 16.115L12.8326 16.052C13.4346 15.87 14.0576 15.709 14.7016 15.569C15.3596 15.429 15.7516 15.359 15.8776 15.359C15.8916 15.359 15.8986 15.716 15.8986 16.43C15.8986 17.354 15.9266 17.942 15.9826 18.194C16.0386 18.446 16.1926 18.691 16.4446 18.929C16.8786 19.349 17.3756 19.615 17.9356 19.727ZM14.0716 13.868C14.0716 13.84 14.2466 13.595 14.5966 13.133C14.9466 12.671 15.2966 12.216 15.6466 11.768C15.9966 11.32 16.1786 11.096 16.1926 11.096C16.1926 11.11 16.1786 11.271 16.1506 11.579C16.1226 11.887 16.0876 12.272 16.0456 12.734C16.0176 13.196 15.9966 13.4305 15.9826 13.4375C15.9686 13.4445 15.8706 13.462 15.6886 13.49C15.5066 13.518 15.2266 13.574 14.8486 13.658C14.4706 13.77 14.2466 13.833 14.1766 13.847C14.1066 13.861 14.0716 13.868 14.0716 13.868ZM25.4536 19.538C25.7196 19.538 25.8876 19.454 25.9576 19.286C25.9996 19.174 26.1536 18.677 26.4196 17.795C26.5876 17.179 26.8536 16.332 27.2176 15.254C27.3996 14.736 27.5606 14.26 27.7006 13.826C28.4566 11.46 29.2476 9.42305 30.0736 7.71505C30.1436 7.54705 30.1856 7.43505 30.1996 7.37905C30.1996 7.33705 30.2171 7.30905 30.2521 7.29505C30.2871 7.28105 30.4096 7.25305 30.6196 7.21105C32.6776 6.77705 34.0216 6.55305 34.6516 6.53905C34.9316 6.52505 35.1101 6.50755 35.1871 6.48655C35.2641 6.46555 35.3306 6.42005 35.3866 6.35005C35.4706 6.23805 35.5266 6.04205 35.5546 5.76205C35.6106 5.20205 35.5126 4.60705 35.2606 3.97705C35.0646 3.50105 34.8546 3.22105 34.6306 3.13705C34.5886 3.12305 34.4276 3.11955 34.1476 3.12655C33.8676 3.13355 33.6366 3.14405 33.4546 3.15805C33.0066 3.21405 32.1351 3.37155 30.8401 3.63055C29.5451 3.88955 28.3936 4.14505 27.3856 4.39705C25.0476 4.95705 23.4586 5.49605 22.6186 6.01405C22.4226 6.14005 22.2966 6.25555 22.2406 6.36055C22.1846 6.46555 22.1636 6.63705 22.1776 6.87505C22.2056 7.16905 22.2896 7.49805 22.4296 7.86205C22.5416 8.11405 22.6641 8.34505 22.7971 8.55505C22.9301 8.76505 23.0701 8.93305 23.2171 9.05905C23.3641 9.18505 23.5006 9.25505 23.6266 9.26905C23.7106 9.28305 23.8716 9.21305 24.1096 9.05905C24.4596 8.86305 24.8376 8.69505 25.2436 8.55505C26.1116 8.24705 26.5596 8.11405 26.5876 8.15605C26.5876 8.15605 26.5246 8.31705 26.3986 8.63905C25.9086 9.84305 25.3206 11.467 24.6346 13.511C24.2706 14.603 23.9626 15.562 23.7106 16.388C23.5286 17.032 23.4166 17.41 23.3746 17.522C23.3186 17.704 23.3116 17.865 23.3536 18.005C23.4656 18.313 23.6966 18.6105 24.0466 18.8975C24.3966 19.1845 24.7676 19.391 25.1596 19.517C25.2156 19.531 25.3136 19.538 25.4536 19.538ZM32.4466 19.769C32.5586 19.825 32.7476 19.818 33.0136 19.748C34.0776 19.468 36.0516 19.244 38.9356 19.076C39.4676 19.034 39.8666 19.006 40.1326 18.992C40.3846 18.964 40.6226 18.943 40.8466 18.929C41.0706 18.915 41.2386 18.8905 41.3506 18.8555C41.4626 18.8205 41.5746 18.796 41.6866 18.782C41.9106 18.754 42.0576 18.691 42.1276 18.593C42.2676 18.411 42.3341 18.1415 42.3271 17.7845C42.3201 17.4275 42.2466 17.102 42.1066 16.808C41.9806 16.528 41.7776 16.36 41.4976 16.304C41.4136 16.276 41.2876 16.234 41.1196 16.178C40.9096 16.122 40.6506 16.08 40.3426 16.052C39.8946 16.024 39.3206 16.052 38.6206 16.136C37.4586 16.276 36.2546 16.479 35.0086 16.745C34.6726 16.815 34.5011 16.8465 34.4941 16.8395C34.4871 16.8325 34.6166 16.4825 34.8826 15.7895C35.1486 15.0965 35.3586 14.561 35.5126 14.183L35.7856 13.532L36.0796 13.49C36.4156 13.448 37.0806 13.371 38.0746 13.259C38.7746 13.189 39.2926 13.105 39.6286 13.007C39.7826 12.965 39.9541 12.9195 40.1431 12.8705C40.3321 12.8215 40.4476 12.783 40.4896 12.755C40.5876 12.671 40.6366 12.503 40.6366 12.251C40.6366 11.999 40.5841 11.7435 40.4791 11.4845C40.3741 11.2255 40.2446 11.012 40.0906 10.844C39.9786 10.732 39.8736 10.6655 39.7756 10.6445C39.6776 10.6235 39.4326 10.613 39.0406 10.613C38.4806 10.613 37.9206 10.683 37.3606 10.823C37.0806 10.893 36.9406 10.928 36.9406 10.928C36.8986 10.886 37.2206 10.193 37.9066 8.84905C38.1586 8.35905 38.3056 8.10705 38.3476 8.09305C38.4176 8.07905 38.8026 8.06855 39.5026 8.06155C39.6776 8.0598 39.8429 8.0587 39.9987 8.05827L40.4371 8.05892C40.7101 8.06067 40.9446 8.06505 41.1406 8.07205C41.6586 8.08605 42.0716 8.07905 42.3796 8.05105C42.9956 8.00905 43.3526 7.95305 43.4506 7.88305C43.6466 7.74305 43.7201 7.42455 43.6711 6.92755C43.6221 6.43055 43.4856 6.05605 43.2616 5.80405C43.1496 5.69205 43.0201 5.61855 42.8731 5.58355C42.7261 5.54855 42.4216 5.51005 41.9596 5.46805C41.6096 5.45405 41.2876 5.45405 40.9936 5.46805C39.9296 5.52405 38.9286 5.61505 37.9906 5.74105C37.7456 5.77605 37.5662 5.80148 37.4524 5.81734L37.3475 5.83177L37.3186 5.83555C37.2626 5.84255 37.1926 5.81805 37.1086 5.76205C36.8846 5.66405 36.6816 5.60805 36.4996 5.59405C36.2616 5.58005 36.1006 5.65005 36.0166 5.80405C35.9186 5.95805 35.8556 6.04905 35.8276 6.07705C35.7996 6.10505 35.7226 6.13305 35.5966 6.16105C35.4286 6.18905 35.1976 6.23805 34.9036 6.30805C33.9376 6.54605 33.3986 6.79105 33.2866 7.04305C33.2166 7.18305 33.2201 7.38605 33.2971 7.65205C33.3741 7.91805 33.4966 8.14205 33.6646 8.32405C33.8186 8.47805 33.9866 8.53405 34.1686 8.49205C34.4766 8.42205 34.6376 8.39405 34.6516 8.40805C34.6516 8.42205 34.6376 8.45705 34.6096 8.51305C34.3856 8.94705 33.9936 9.79405 33.4336 11.054C32.5796 13.014 31.8656 14.799 31.2916 16.409C31.0956 16.969 30.9136 17.452 30.7456 17.858C30.6196 18.138 30.5916 18.348 30.6616 18.488C30.7456 18.642 30.9066 18.8065 31.1446 18.9815C31.3826 19.1565 31.6346 19.293 31.9006 19.391C32.0126 19.433 32.1141 19.4995 32.2051 19.5905C32.2961 19.6815 32.3766 19.741 32.4466 19.769Z" fill="black"/>
<path d="M48 0C49.6569 0 51 1.34315 51 3C51 4.65685 49.6569 6 48 6C46.3431 6 45 4.65685 45 3C45 1.34315 46.3431 0 48 0ZM48 0.8C46.785 0.8 45.8 1.78497 45.8 3C45.8 4.21503 46.785 5.2 48 5.2C49.215 5.2 50.2 4.21503 50.2 3C50.2 1.78497 49.215 0.8 48 0.8Z" fill="black"/>
<path d="M48.0542 1.84961C47.7295 1.84961 47.4576 1.96039 47.2523 2.1803C47.0486 2.39863 46.9492 2.69747 46.9492 3.06676C46.9492 3.4192 47.0489 3.70836 47.2517 3.92358C47.4555 4.13988 47.7195 4.24961 48.0305 4.24961C48.2796 4.24961 48.4934 4.18566 48.6652 4.05523C48.8043 3.94973 48.9094 3.80256 48.9809 3.61805L49.087 3.29602L48.309 3.04934L48.2604 3.26075C48.2365 3.36476 48.2018 3.43182 48.162 3.46692C48.1242 3.50028 48.0821 3.51584 48.0265 3.51584C47.944 3.51584 47.8857 3.48936 47.8361 3.43086C47.7846 3.37011 47.7516 3.23934 47.7516 3.03774C47.7516 2.851 47.7842 2.72913 47.8366 2.6688C47.8873 2.61034 47.9482 2.58338 48.0344 2.58338C48.0941 2.58338 48.138 2.59785 48.174 2.62663C48.2009 2.64812 48.2204 2.67483 48.2342 2.7099L48.3058 2.9461L49.078 2.76162L49.021 2.56092C48.9678 2.3735 48.8843 2.22321 48.7677 2.11365C48.5817 1.93754 48.34 1.84961 48.0542 1.84961Z" fill="black"/>
</svg>
