<svg width="370" height="378" viewBox="0 0 370 378" fill="none" xmlns="http://www.w3.org/2000/svg">
<path d="M369.921 193.229C369.921 180.788 368.819 168.977 366.929 157.48H188.977V228.504H290.866C286.299 251.811 272.914 271.496 253.071 284.882V332.126H313.858C349.449 299.213 369.921 250.709 369.921 193.229V193.229Z" fill="#4285F4"/>
<path d="M188.976 377.952C239.999 377.952 282.677 360.945 313.858 332.126L253.07 284.882C236.062 296.22 214.488 303.149 188.976 303.149C139.685 303.149 97.9523 269.921 82.9916 225.039H20.3145V273.7C51.3381 335.433 115.118 377.952 188.976 377.952V377.952Z" fill="#34A853"/>
<path d="M82.9921 225.039C79.0551 213.701 77.0079 201.575 77.0079 188.976C77.0079 176.378 79.2126 164.252 82.9921 152.913V104.252H20.3149C7.40156 129.764 0 158.425 0 188.976C0 219.528 7.40156 248.189 20.3149 273.701L82.9921 225.039Z" fill="#FBBC05"/>
<path d="M188.976 74.8032C216.85 74.8032 241.732 84.4095 261.417 103.15L315.275 49.2914C282.677 18.7402 239.999 0 188.976 0C115.118 0 51.3381 42.5197 20.3145 104.252L82.9916 152.913C97.9523 108.032 139.685 74.8032 188.976 74.8032V74.8032Z" fill="#EA4335"/>
</svg>
