<svg width="59" height="32" viewBox="0 0 59 32" fill="none" xmlns="http://www.w3.org/2000/svg">
<path d="M39.7334 5.45559e-05C40.0259 0.00164116 40.3888 0.0978961 40.8278 0.322669C42.7698 2.25283 43.3151 4.40084 45.5253 6.28788C48.2437 10.059 50.4982 13.8943 53.3693 17.6453C55.6693 21.0695 57.9335 24.5341 58.8017 28.0895C59.4584 29.3316 56.9898 31.3088 53.8082 30.9838C50.6751 30.7551 49.2329 29.3433 47.6077 28.3201C43.8642 25.3058 40.1675 22.2726 36.6667 19.2007C36.9445 20.0519 37.1956 20.9053 37.3774 21.7618C37.3483 23.2048 37.8328 24.8224 36.0052 26.0984C34.0596 27.4057 29.8564 26.7 28.2884 25.5806C23.0888 23.0576 20.9697 19.7114 17.1412 16.8186C16.4749 16.2014 15.4521 15.5187 14.5232 14.9118C14.4983 15.4489 14.4174 16.0684 14.9069 16.3712C16 19.1241 17.832 21.8375 18.2703 24.6262C17.1351 25.9399 15.1525 25.2991 14.1686 24.696C13.1855 24.0954 12.707 23.707 12.4533 23.4084C9.89058 21.5456 7.44455 19.6303 4.35896 17.9194C5.50262 20.4641 6.22426 23.2441 5.18523 25.4385C5.39256 26.6816 -1.07904 27.5791 0.156976 26.0152C3.51075 25.4247 2.86076 23.3454 2.31661 22.0862C1.46236 20.5133 0.833091 18.9004 0.752185 17.2905C1.53347 15.7349 6.0631 15.9654 7.45974 17.1869C8.99374 18.087 10.4463 19.0126 11.8897 19.9405C10.8202 17.8845 9.59323 15.8248 9.75012 13.7127C9.85166 12.336 10.8001 11.4962 13.6152 12.0163L16.2071 12.4968C19.2945 14.2161 21.6305 16.31 23.8352 18.3198C26.4228 20.3999 28.0364 22.8583 32.1624 24.4817C32.7321 21.5083 30.6594 18.398 29.5195 15.8768C27.8042 12.5647 25.7006 9.29515 23.5312 6.03306C22.9305 5.33125 22.3407 4.627 21.7765 3.91808C22.7956 3.56506 23.668 3.20964 24.6056 3.10681C25.3437 2.98834 26.1998 3.02034 27.0929 3.27949C28.844 4.56708 29.3523 6.17114 30.4582 7.39679C30.609 7.61865 30.7403 7.84289 30.8874 8.06476C31.1288 8.35458 31.3611 8.64309 31.6025 8.93135C34.2108 11.8222 37.7117 14.5428 40.4155 17.4171C45.4486 21.4689 48.5925 25.6598 54.1863 28.8937C54.1145 26.4846 52.5411 24.1343 51.4515 21.7828C48.0582 15.1962 43.8199 8.70118 39.2556 2.25309C38.5479 1.71072 38.4786 -0.0136607 39.7335 8.16712e-05L39.7334 5.45559e-05Z" fill="#FF715B"/>
</svg>
