<svg width="733" height="189" viewBox="0 0 733 189" fill="none" xmlns="http://www.w3.org/2000/svg">
<path d="M729.257 148.214C709.096 134.026 694.908 116.11 686.695 92.9594C682.96 82.5063 674.002 94.4542 676.242 101.918C680.721 114.61 686.695 125.814 694.163 135.516C631.444 112.371 561.256 118.344 496.296 125.063C420.884 132.532 346.963 163.891 271.55 166.875C255.867 167.62 238.695 166.131 222.268 161.646C246.164 148.954 265.575 128.048 276.028 97.4329C305.148 16.0475 192.403 -33.9791 140.882 27.2449C111.018 62.3382 124.455 112.365 152.829 142.98C157.309 148.209 163.283 152.688 168.512 157.168C117.742 168.365 57.2575 154.928 12.4588 137.006C-3.22385 130.287 -3.96784 149.699 9.47442 154.928C61.7398 175.834 137.157 191.516 196.141 173.594C217.792 183.302 242.433 188.526 266.329 188.526C326.808 189.271 384.302 166.125 443.289 154.928C518.701 141.49 619.502 125.808 692.676 154.183C693.421 154.183 694.171 154.928 695.66 154.928C674.753 160.157 653.848 165.381 632.942 170.61C625.473 172.105 627.712 189.277 636.676 187.037C667.291 179.568 697.905 172.105 728.515 163.892C733.733 162.402 732.989 151.204 729.254 148.214L729.257 148.214ZM190.911 149.709C164.031 134.777 144.619 110.881 148.348 75.0422C151.332 47.4169 170.749 28.0008 197.629 22.7768C248.4 12.3238 269.312 57.1262 248.4 97.4435C234.968 122.829 214.807 140.001 190.911 149.709Z" fill="#FF715B"/>
</svg>
