<svg width="404" height="389" viewBox="0 0 404 389" fill="none" xmlns="http://www.w3.org/2000/svg">
<path fill-rule="evenodd" clip-rule="evenodd" d="M110.557 91.543C200.708 78.4024 260.851 106.543 267.397 109.532C288.528 122.012 303.903 138.502 316.288 159.814C319.371 167.548 322.449 175.283 325.533 183.011C326.595 189.688 327.653 196.36 328.715 203.038C328.97 209.335 329.231 215.626 329.486 221.923C328.647 226.933 327.814 231.944 326.976 236.944C325.043 241.871 323.116 246.793 321.184 251.72C317.225 257.991 313.267 264.257 309.314 270.527C304.153 275.86 298.996 281.199 293.835 286.538C287.262 290.517 280.684 294.491 274.117 298.47C267.283 301.84 260.445 305.199 253.611 308.564C249.174 310.043 244.742 311.522 240.304 313.006C234.606 314.897 228.908 316.782 223.211 318.668C216.857 319.064 210.508 319.46 204.153 319.855C196.648 318.704 189.153 317.548 181.648 316.397C175.309 314.861 168.971 313.329 162.621 311.788C158.986 310.293 155.351 308.803 151.715 307.308C145.085 304.465 138.46 301.626 131.83 298.782C127.028 295.522 122.22 292.262 117.418 289.001C113.574 285.006 109.72 281.012 105.876 277.017C104.501 274.501 103.126 271.975 101.762 269.459C98.7512 262.137 95.746 254.809 92.7356 247.486C91.5429 241.668 90.3398 235.851 89.1419 230.043C88.694 223.945 88.2461 217.851 87.793 211.751C88.0898 209.527 88.3971 207.304 88.694 205.074C90.2252 199.996 91.7566 194.918 93.2878 189.84C96.444 185.741 99.6055 181.642 102.762 177.548C109.027 171.246 155.986 151.6 161.798 149.433C167.563 148.282 173.319 147.126 179.084 145.975C185.418 146.162 191.746 146.35 198.079 146.537C204.589 147.584 211.095 148.621 217.606 149.668C222.892 151.631 228.184 153.605 233.47 155.569C238.293 158.251 243.116 160.928 247.939 163.61C251.746 167.163 255.564 170.72 259.371 174.267C261.225 176.694 263.08 179.121 264.939 181.548C266.47 186.782 268.007 192.017 269.538 197.241C269.423 197.189 269.319 197.142 269.21 197.101C269.673 201.34 270.142 205.585 270.616 209.825C269.621 214.199 268.621 218.569 267.632 222.944C265.569 228.798 263.512 234.658 261.45 240.512C259.158 244.054 256.856 247.585 254.564 251.122C250.574 255.346 246.58 259.575 242.595 263.793C239.559 265.21 236.522 266.622 233.486 268.043C228.548 269.392 223.616 270.747 218.674 272.096C214.054 272.247 209.439 272.392 204.814 272.538C199.923 272.002 195.038 271.465 190.147 270.924C185.741 269.492 181.345 268.064 176.939 266.632C175.168 266.033 173.397 265.439 171.632 264.846C158.137 257.715 151.158 251.31 148.938 235.679C145.621 206.08 162.834 187.324 190.11 187.742C194.365 188.278 198.621 188.825 202.876 189.361C205.647 190.137 208.407 190.914 211.178 191.7C215.944 194.523 220.714 197.335 225.475 200.158C227.908 203.195 230.345 206.231 232.778 209.268C233.225 212.486 233.673 215.705 234.126 218.924C233.699 220.554 233.283 222.179 232.856 223.815C230.803 225.669 187.809 185.773 170.241 227.643C170.257 245.669 187.924 243.471 199.668 244.351C222.173 240.424 246.126 232.398 251.157 206.367C249.574 192.56 244.745 190.299 234.35 179.601C209.913 173.122 197.288 165.241 174.662 172.648C171.506 173.867 161.766 178.346 158.61 179.565C144.641 188.211 127.23 188.45 116.881 201.294C112.089 213.55 101.397 264.664 145.021 278.373C148.344 279.462 181.824 304.274 218.172 297.384C297.588 277.045 292.937 216.826 296.625 201.488C297.474 182.285 293.302 167.165 277.734 151.794C245.062 125.362 228.229 120.95 194.937 125.586C174.458 128.029 152.51 131.326 135.464 141.565C130.761 143.633 126.99 146.68 122.292 148.758C113.057 139.216 114.146 132.779 113.406 119.774C114.318 117.43 109.667 93.883 110.557 91.5443V91.543Z" fill="#FF715B"/>
<path fill-rule="evenodd" clip-rule="evenodd" d="M2.10413 161.304C1.40101 163.58 0.697867 165.85 0 168.126C0.484373 169.783 0.968741 171.444 1.45839 173.1C2.59381 173.621 3.7292 174.147 4.85427 174.668C7.1772 175.137 9.50013 175.616 11.8127 176.085C23.2241 176.637 32.9793 179.689 43.8647 179.496C45.3751 178.262 46.8907 177.033 48.3959 175.798C49.6928 174.236 50.9844 172.668 52.2761 171.111C52.3907 169.168 52.4949 167.22 52.5991 165.278C51.3595 164.809 50.1198 164.33 48.875 163.861C38.6094 162.668 29.9377 160.965 19.2444 160.45C19.1923 160.403 19.1402 160.351 19.0777 160.309C14.2756 160.168 9.46838 160.028 4.66571 159.882C3.82716 160.356 2.96266 160.83 2.10319 161.304L2.10413 161.304Z" fill="#FF715B"/>
<path fill-rule="evenodd" clip-rule="evenodd" d="M15.2773 268.369C25.0585 257.672 34.6107 253.676 48.304 246.9C51.6478 246.192 54.9967 245.483 58.3404 244.765C61.5227 244.864 64.7101 244.952 67.8925 245.046C75.054 253.9 78.4289 253.468 67.5696 259.265C55.804 264.671 44.043 270.067 32.2723 275.473H20.616C19.3191 274.478 18.0275 273.478 16.7358 272.488C16.2514 271.113 15.7618 269.738 15.2774 268.368L15.2773 268.369Z" fill="#FF715B"/>
<path fill-rule="evenodd" clip-rule="evenodd" d="M84.8237 306.903C74.5112 316.049 64.209 325.195 53.897 334.341C53.996 338.882 52.9127 341.127 56.8085 344.153C58.1574 344.533 59.5064 344.914 60.8554 345.289C62.4752 345.335 64.095 345.388 65.7096 345.429C67.0585 345.33 68.4074 345.242 69.7565 345.148C70.8398 344.299 71.9128 343.44 72.9961 342.585C81.345 334.096 109.121 315.992 89.9961 307.32C88.2721 307.19 86.5482 307.049 84.8242 306.903L84.8237 306.903Z" fill="#FF715B"/>
<path fill-rule="evenodd" clip-rule="evenodd" d="M146.705 343.943C141.741 355.933 136.772 367.927 131.809 379.916C133.376 385.432 133.548 385.666 139.095 388.594C141.199 388.692 143.309 388.781 145.413 388.875C147.137 388.594 148.871 388.307 150.595 388.026C156.158 376.276 161.715 364.52 167.278 352.76C165.116 345.391 155.569 339.672 146.704 343.943L146.705 343.943Z" fill="#FF715B"/>
<path fill-rule="evenodd" clip-rule="evenodd" d="M238.264 358.544C242.144 366.643 246.035 374.752 249.92 382.856C251.811 383.522 253.696 384.184 255.587 384.85C261.144 384.449 266.102 382.996 268.54 378.449C268.003 375.746 267.467 373.043 266.92 370.35C265.134 365.231 263.357 360.116 261.576 354.99C259.269 352.912 257.93 350.688 255.623 348.605C252.863 346.12 250.92 345.001 248.904 344.579C246.316 344.042 243.613 344.667 238.904 345.027C237.873 349.766 237.884 353.74 238.264 358.543L238.264 358.544Z" fill="#FF715B"/>
<path fill-rule="evenodd" clip-rule="evenodd" d="M309.625 317.023C322.604 326.341 335.578 335.659 348.546 344.976C352.958 345.127 355.109 344.784 359.244 343.482C362.088 340.695 362.015 339.846 362.348 336.044C353.484 327.763 345.822 321.549 335.318 314.981C331.427 312.45 327.536 309.924 323.646 307.393C316.172 306.95 314.651 305.81 309.703 310.596C309.688 312.747 309.656 314.882 309.625 317.023V317.023Z" fill="#FF715B"/>
<path fill-rule="evenodd" clip-rule="evenodd" d="M345.892 224.983C345.548 234.801 345.355 234.113 352.85 239.177C359.829 239.947 366.511 241.041 373.413 242.453C383.105 243.296 392.267 245.255 400.934 239.906C401.689 238.567 402.444 237.239 403.205 235.906C402.773 234.083 402.34 232.27 401.908 230.447C397.538 222.265 395.309 223.577 386.845 222.265C382.043 221.718 377.236 221.176 372.433 220.629C361.824 220.614 355.365 219.765 345.892 224.984L345.892 224.983Z" fill="#FF715B"/>
<path fill-rule="evenodd" clip-rule="evenodd" d="M350.023 129.744C361.581 123.613 371.993 118.947 384.513 114.525C394.211 113.962 393.882 113.228 398.925 120.499C398.925 127.218 398.716 126.77 392.935 131.301C388.993 133.056 385.06 134.811 381.117 136.567C372.164 139.442 366.148 140.921 356.669 141.4C351.623 136.744 350.55 136.098 350.024 129.744L350.023 129.744Z" fill="#FF715B"/>
<path fill-rule="evenodd" clip-rule="evenodd" d="M305.678 44.1569C301.251 48.9903 296.829 53.8288 292.402 58.6569C288.715 63.5111 287.199 64.834 287.386 70.6048C289.006 71.8392 290.626 73.0684 292.241 74.3027C294.079 74.4433 295.912 74.5839 297.746 74.7298C299.741 74.3495 301.741 73.9693 303.735 73.5943C309.09 70.4069 312.256 66.6255 316.36 62.2246C319.001 59.1413 321.647 56.0631 324.298 52.9798C325.756 51.0371 327.209 49.0891 328.673 47.1465C330.808 40.2194 328.793 41.011 322.037 37.0527C312.845 37.2038 312.298 38.459 305.677 44.1569L305.678 44.1569Z" fill="#FF715B"/>
<path fill-rule="evenodd" clip-rule="evenodd" d="M223.33 4.82316C221.158 12.7502 219.872 19.5832 219.283 27.7138C221.294 35.8389 225.893 39.0108 236.283 35.8128C241.575 25.5836 243.82 15.7141 244.377 4.67676C237.429 -2.32844 231.669 -0.781649 223.33 4.82259L223.33 4.82316Z" fill="#FF715B"/>
<path fill-rule="evenodd" clip-rule="evenodd" d="M112.344 23.9036C118.661 32.0546 124.969 40.2102 131.286 48.3569C144.083 49.7476 151.453 48.3257 149.093 36.409C146.666 33.706 144.239 31.0028 141.807 28.3101C135.869 22.5757 129.937 16.8413 124 11.1074C113.104 11.498 113.021 14.2949 112.344 23.9044V23.9036Z" fill="#FF715B"/>
<path fill-rule="evenodd" clip-rule="evenodd" d="M15.7447 85.1035C30.8127 91.7545 45.8847 98.416 60.9527 105.067C70.6453 102.057 75.5513 98.9945 73.4943 88.5208C60.7912 83.3489 48.0983 78.1719 35.4009 72.9995C23.5936 71.9162 16.6463 70.5047 15.4062 84.1609C15.5208 84.4682 15.6354 84.7912 15.7448 85.1037L15.7447 85.1035Z" fill="#FF715B"/>
</svg>
