<svg width="540" height="184" viewBox="0 0 540 184" fill="none" xmlns="http://www.w3.org/2000/svg">
<path d="M169.613 73.3164V73.099C170.918 72.8815 172.005 72.2292 173.093 71.5768C174.18 71.1419 174.18 69.6197 175.485 68.9674C175.919 68.7499 176.354 68.315 176.572 68.0976C178.311 68.7499 179.399 67.0103 180.921 67.0103C182.008 66.1405 182.878 65.2707 183.965 64.4009C184.618 64.4009 185.487 64.4009 186.14 64.4009C186.575 63.3136 187.227 62.2263 188.532 61.574C189.184 61.574 189.836 61.574 190.489 61.574C191.576 60.7042 192.663 59.8344 193.533 58.9645C194.62 58.9645 195.708 58.9645 197.012 58.9645C197.665 58.3122 198.317 57.6598 198.752 57.0075C199.839 57.0075 200.492 57.0075 201.144 57.0075C201.579 56.79 202.014 56.3551 202.449 56.1377C202.666 56.79 202.884 57.2249 203.101 57.8773C203.319 57.8773 203.753 57.6598 203.753 57.6598C203.319 56.3551 204.406 55.4853 204.841 54.398C205.058 53.5282 205.711 53.7457 206.363 53.5282C206.798 53.5282 207.233 53.0933 207.668 52.6584C208.32 52.6584 208.972 52.6584 209.625 52.6584C210.277 51.7886 210.929 50.9188 211.364 50.2664C212.886 49.6141 213.974 50.049 215.061 49.8315C215.713 50.7013 215.931 52.006 217.236 52.6584C217.453 52.441 217.67 52.006 217.888 51.7886C217.67 51.3537 217.236 51.1362 216.801 50.4839C217.018 50.2664 217.453 49.8315 217.888 49.1792C217.67 48.7443 217.236 48.3093 216.801 47.657C217.236 46.5697 218.54 47.657 219.628 47.0046C220.932 45.0476 223.977 45.0476 225.934 43.5254C227.021 43.3079 228.326 43.7428 229.413 43.3079C229.195 42.873 228.978 42.4381 228.543 41.7858C229.848 41.7858 231.153 41.7858 232.022 41.5683C233.327 41.1334 234.197 40.6985 235.067 40.2636C235.067 40.0461 235.067 39.6112 235.067 39.3938C235.936 38.9589 236.806 38.524 238.111 38.0891C238.763 38.0891 240.068 38.0891 241.373 37.8716C241.59 37.4367 241.59 37.0018 241.59 36.5669C242.46 36.132 243.33 35.6971 244.635 35.2622C245.069 35.2622 246.157 35.2622 246.809 35.0447C247.027 35.6971 246.809 36.3494 247.896 35.6971C247.679 35.4796 247.244 35.2622 246.809 35.0447C246.809 33.9575 248.114 34.3924 248.766 33.9575C248.766 33.74 248.984 33.3051 248.984 32.6527C249.419 32.4353 250.071 32.2178 250.941 32.0004C250.723 31.5655 250.288 31.1306 250.071 30.6957C250.723 30.0433 251.811 30.4782 252.68 30.2608C253.115 30.0433 253.55 29.6084 253.768 29.3909C254.42 29.8258 255.072 30.4782 255.725 30.9131C256.594 30.6957 257.464 30.4782 258.334 30.0433C258.552 30.6957 258.552 31.1306 258.769 31.5655C257.464 32.0004 256.16 32.4353 255.507 33.74C255.725 34.1749 255.725 34.3924 255.942 35.0447C256.812 34.3924 257.464 33.74 258.334 33.0876C259.856 33.0876 261.161 33.0876 262.683 33.0876C263.336 32.4353 263.988 32.0004 264.64 31.5655C266.597 31.5655 268.12 30.6957 269.642 30.0433C269.642 30.0433 269.642 29.8258 269.642 29.6084C270.946 29.6084 272.251 29.6084 273.338 29.6084C273.773 29.1735 274.643 28.7386 274.643 27.8688C273.338 27.8688 272.251 27.8688 270.946 27.8688C270.511 28.5211 269.424 28.7386 269.424 29.6084C268.12 29.6084 267.032 29.6084 265.728 29.6084C265.293 29.8258 265.075 30.2608 264.64 30.4782C264.205 30.2608 263.988 29.8258 263.553 29.6084C262.248 30.2608 261.161 30.6957 260.074 31.1306C259.204 30.4782 259.856 29.6084 259.639 28.956C260.291 27.8688 261.596 28.7386 262.683 28.3037C262.901 27.8688 263.118 27.4339 263.336 26.5641C263.77 26.7815 263.988 26.999 264.64 27.4339C265.728 27.4339 266.815 27.4339 268.12 27.4339C268.337 26.999 268.337 26.7815 268.554 26.5641C269.207 26.3466 269.642 25.9117 270.294 25.6942C270.511 25.9117 270.729 26.1291 270.946 26.3466C271.164 26.3466 271.599 26.5641 271.816 26.5641C274.426 26.5641 277.253 26.5641 279.862 26.5641C280.297 26.1291 280.732 25.9117 281.167 25.4768C281.819 25.6942 282.254 25.9117 283.559 26.3466C285.081 26.3466 287.473 26.3466 289.647 26.3466C290.517 28.0862 292.909 26.7815 293.779 28.0862C295.301 28.0862 296.823 28.3037 298.563 28.3037C298.78 28.5211 298.998 28.7386 299.433 28.956C300.303 28.956 301.39 28.956 302.26 28.956C303.129 29.8258 305.086 29.6084 305.304 30.9131C304.434 30.9131 303.564 30.9131 302.695 30.9131C302.26 30.6957 302.042 30.2608 301.607 30.0433C300.52 30.2608 299.215 29.8258 297.911 30.4782C297.911 31.1306 297.911 31.7829 297.911 32.4353C298.998 33.3051 300.085 34.1749 300.955 35.0447V35.2622C300.955 36.132 301.172 36.7843 301.172 37.4367C301.825 37.4367 302.26 37.4367 302.912 37.6542C303.129 37.0018 303.347 36.5669 303.564 36.132C304.217 35.9145 304.869 35.6971 305.087 35.6971C305.739 34.6098 306.174 33.74 306.826 32.6527C306.391 32.2178 305.956 32.0004 305.521 31.7829C305.521 31.7829 305.521 31.5655 305.521 31.348C306.391 31.348 307.261 31.348 308.348 31.348C308.566 31.7829 308.783 32.2178 308.783 32.4353C308.783 33.0876 308.783 33.5225 309.436 34.1749C309.87 34.3924 309.87 34.8273 310.088 35.2622C309.653 35.6971 309.218 35.9145 309.001 36.3494C310.305 37.4367 310.305 39.3938 312.262 39.8287C312.262 40.2636 312.262 40.481 312.262 40.6985C311.61 41.7858 310.958 42.6556 310.305 43.7428C310.958 44.1777 311.175 45.0476 311.61 45.9174C312.48 45.9174 313.35 46.1348 314.002 46.1348C314.872 47.2221 314.002 48.3093 314.654 49.3966C314.654 49.3966 314.654 49.6141 314.872 49.6141C315.742 49.8315 316.612 49.8315 317.481 49.8315C317.699 50.2664 317.699 50.4839 317.699 50.7013C317.046 52.441 314.22 52.8759 314.22 55.0504C312.915 55.0504 311.61 55.2678 310.523 55.2678C309.653 56.3551 310.305 57.4424 310.088 58.5296C309.218 59.182 308.131 60.0518 307.044 60.9216C306.391 61.574 306.174 62.4438 305.956 63.0962C306.174 63.3136 306.391 63.5311 306.826 63.966C305.521 64.4009 304.434 64.8358 303.347 65.2707C302.26 65.7056 301.172 66.3579 301.39 67.6627C300.955 67.6627 300.52 67.8801 299.868 68.0976C299.215 69.6197 297.911 70.707 296.388 71.7943C295.519 72.0117 294.649 71.3594 293.779 72.2292C294.214 72.6641 294.431 72.8815 294.866 73.3164C293.996 73.7514 293.561 74.8386 292.257 74.6212C290.517 76.1433 288.778 77.6655 287.255 79.1877C286.603 79.1877 286.386 79.1877 285.951 79.4051C285.733 79.4051 285.733 79.6226 285.516 79.6226C285.298 80.0575 285.081 80.7098 284.863 81.1447C284.428 81.1447 283.994 81.1447 283.776 81.1447C279.427 84.8414 275.078 88.5381 270.946 92.2348C270.511 92.2348 270.077 92.2348 269.642 92.2348C269.207 92.8872 268.989 93.5396 268.554 93.9745C268.12 93.9745 267.685 93.9745 267.467 93.9745C265.728 95.4966 263.988 97.0188 262.031 98.541C260.074 100.063 258.334 101.585 256.16 102.89C253.985 103.977 252.463 105.934 250.723 107.457C251.158 107.674 251.593 107.674 252.245 107.891C253.333 106.587 255.072 106.152 256.377 105.282C257.682 104.195 259.204 103.76 260.726 103.325C262.031 102.89 262.466 101.15 264.205 101.368C266.597 99.4108 269.642 98.541 272.469 97.2363C275.078 96.149 277.687 95.0617 279.21 93.3221C281.602 92.4523 283.341 91.7999 285.081 90.9301C285.733 90.4952 286.386 89.8429 287.038 89.408C287.69 89.408 288.56 89.408 289.43 89.408C290.952 87.016 294.214 86.3636 296.823 84.8415C297.258 84.624 298.128 84.624 299.433 84.624C299.65 84.4065 300.303 83.9716 300.303 83.5367C300.303 81.7971 302.477 82.0146 303.564 81.1447C303.999 80.7098 305.304 81.3622 305.956 80.7098C306.609 80.2749 307.478 80.0575 308.131 79.6226C308.131 79.1877 308.131 78.9702 308.131 78.7528C309.87 77.6655 312.045 77.2306 313.785 75.9259C314.872 75.0561 316.612 74.4037 318.134 73.9688C319.438 73.5339 320.526 72.6641 321.613 71.7943C323.353 72.2292 324.44 70.9245 326.179 70.707C327.049 69.8372 327.919 68.9674 329.006 68.0976C330.963 68.315 332.268 67.4452 333.79 66.7928C335.312 66.1405 337.052 65.7056 337.922 64.1834C338.574 64.1834 339.009 64.1834 339.662 64.1834C340.749 63.7485 341.619 63.3136 342.706 62.8787C344.011 62.4438 345.098 61.7914 346.185 60.9216C347.055 60.2693 348.36 59.6169 349.229 59.6169C350.752 59.6169 351.404 58.7471 352.491 58.5296C353.579 58.3122 354.666 57.6598 355.753 57.2249C357.058 56.79 358.145 56.1377 359.232 55.7027C360.32 55.2678 361.407 54.6155 362.712 54.8329C363.799 53.0933 366.626 53.0933 367.713 51.3537C368.8 50.7013 369.888 51.3537 370.975 50.7013C372.279 49.6141 374.454 49.6141 375.759 48.3093C377.716 48.9617 378.803 47.2221 380.76 47.2221C382.5 47.2221 384.239 46.1348 385.762 45.265C387.066 44.3952 388.371 43.5254 390.546 42.6556C390.98 42.6556 392.068 42.6556 393.155 42.6556C393.59 42.4381 394.025 42.0032 394.242 41.7858C394.677 42.0032 395.112 42.4381 395.329 42.6556C395.764 42.6556 395.982 42.6556 396.417 42.6556C396.634 42.2207 396.852 41.5683 397.069 40.9159C397.504 41.1334 397.721 41.3509 398.374 41.7858C398.591 41.5683 399.026 41.3509 399.461 40.9159C400.766 40.9159 402.288 40.9159 403.593 40.9159C404.028 40.6985 404.463 40.2636 404.897 40.0461C405.55 40.0461 406.202 40.0461 407.072 40.0461C407.507 39.8287 407.942 39.3938 408.159 39.1763C408.594 39.3938 409.029 39.8287 409.246 40.0461C410.116 40.0461 410.769 40.0461 411.421 40.0461C411.856 39.8287 412.291 39.3938 412.726 39.1763C413.378 40.481 412.943 41.7858 413.161 42.873C412.073 43.5254 412.073 43.5254 412.508 44.6126C413.596 44.1777 412.943 43.5254 413.161 42.873C414.683 42.873 414.03 43.9603 414.465 44.6126C415.118 45.0476 415.988 44.6126 416.857 44.8301C417.292 44.3952 417.727 44.1777 418.162 43.9603C418.597 44.8301 419.032 45.4825 419.684 46.5697C419.684 46.7872 419.684 47.4395 419.684 48.0919C420.119 48.5268 420.771 48.9617 421.206 49.1792C421.859 48.3093 422.511 47.4395 423.381 46.5697C424.033 47.0046 424.033 47.0046 423.816 50.049C423.598 50.4839 423.163 50.7013 422.946 51.1362C423.598 51.3537 424.251 51.3537 424.686 51.3537C425.555 52.006 424.903 52.6584 425.121 53.5282C425.338 53.7457 425.773 54.1806 426.208 54.6155C426.208 55.4853 426.208 56.3551 426.208 57.4424C425.555 57.6598 424.903 58.0947 424.033 58.3122C424.468 58.7471 424.686 58.9645 425.121 59.3994C422.946 61.1391 420.771 63.0961 418.597 64.8358C418.597 65.4881 418.597 66.1405 418.597 66.5754C417.292 67.6627 415.77 68.9674 414.248 70.2721C414.248 70.707 414.248 71.3594 414.248 72.0117C413.378 72.4466 412.508 72.8815 411.856 73.3164C411.204 73.9688 410.116 74.4037 410.116 75.2735C409.464 75.491 408.594 75.2735 409.246 76.1433C409.464 75.9259 409.681 75.7084 410.116 75.2735C410.334 75.491 410.769 75.491 410.769 75.7084C410.986 76.3608 410.986 76.7957 410.986 77.2306C408.159 79.6226 405.55 81.7971 402.505 84.4065C401.636 84.624 400.548 85.0589 400.113 86.3636C399.679 87.6683 398.374 88.1032 397.069 88.5382C396.852 88.9731 396.852 89.408 396.634 89.8429C396.199 89.8429 395.764 90.0603 395.112 90.0603C394.242 91.365 392.938 93.3221 392.068 93.5396C389.893 93.9745 389.023 95.4966 387.501 96.5839C387.284 96.5839 386.849 96.5839 386.414 96.5839C385.544 97.4537 385.544 99.1933 383.587 99.4108C381.847 99.6283 381.847 101.15 381.195 102.02C380.76 102.02 380.543 102.02 380.108 102.02C377.933 103.325 376.629 105.499 374.019 106.152C374.019 106.369 374.019 106.804 374.019 107.022C372.932 107.891 372.062 108.761 370.975 109.631V109.849C372.279 110.936 372.714 109.414 373.584 109.196C374.454 108.979 375.324 109.414 375.976 108.761C376.629 108.109 377.933 108.326 378.586 107.457C379.021 107.022 380.108 106.804 381.412 106.369C381.847 106.369 382.935 106.369 383.587 106.369C385.327 105.717 386.631 104.63 387.936 104.63C389.458 104.63 390.328 103.542 391.85 103.542C392.72 102.02 395.112 103.325 395.982 101.803C396.417 102.02 396.634 102.238 397.069 102.673C397.721 102.02 398.591 101.585 399.244 100.933C399.896 100.933 400.331 100.933 400.983 100.933C402.288 100.281 403.593 99.6282 404.897 99.1933C405.767 99.1933 406.637 99.1933 407.507 99.1933C408.594 98.7584 409.681 98.3235 410.551 97.6712C411.421 97.0188 412.726 97.8886 413.596 97.0188C414.465 96.149 415.988 96.3665 416.64 95.4966C418.162 95.4966 419.467 95.4966 420.771 95.4966C421.206 95.0617 421.641 94.6268 422.076 94.6268C424.033 94.8443 425.338 93.757 426.86 93.1047C427.078 93.1047 427.513 92.6698 427.73 92.6698C429.47 93.3221 430.122 91.5825 431.644 91.7999C432.079 91.7999 432.296 91.7999 432.731 91.7999C433.166 91.5825 433.384 91.1476 433.819 90.9301C434.906 90.9301 435.993 90.9301 437.08 90.9301C437.515 90.7127 437.95 90.2778 438.168 90.0603C438.82 90.0603 439.69 90.0603 440.342 90.0603C440.56 89.8429 440.56 89.8429 440.777 89.6254C440.995 89.6254 440.995 89.408 441.212 89.408C442.517 88.9731 444.039 89.408 444.909 88.3207C446.213 88.3207 447.518 88.3207 448.605 88.3207C450.563 87.4509 452.52 86.5811 454.477 85.7113C454.694 86.1462 455.129 86.7985 455.564 87.6683C455.781 87.016 455.999 86.5811 456.216 86.1462C459.043 84.8414 462.305 83.5367 465.567 82.0146C467.089 82.0146 468.829 82.0146 470.786 82.0146C471.655 80.4924 473.395 80.2749 475.135 79.4051C475.787 79.4051 476.874 79.4051 477.962 79.4051C478.397 79.1877 478.831 78.7528 479.266 78.5353C480.136 78.5353 481.223 78.5353 482.528 78.5353C482.746 78.7528 483.18 78.9702 483.615 79.4051C484.268 78.9702 485.138 78.7528 486.225 78.1004C486.225 77.883 486.442 77.448 486.877 76.7957C487.747 76.7957 488.399 76.7957 489.269 76.5782C489.922 75.491 491.444 75.9259 492.531 75.7084C492.748 75.491 492.966 75.2735 493.401 75.0561C493.836 75.2735 494.488 75.491 495.14 75.9259C496.663 75.2735 498.185 74.6212 499.707 74.1863C500.142 73.9688 500.794 74.1863 501.881 74.1863C502.751 73.5339 503.839 72.4466 505.143 71.3594C506.665 71.1419 505.796 72.6641 506.665 73.099C507.753 72.4466 508.84 71.7943 508.622 70.4896C510.145 70.4896 511.232 70.4896 512.319 70.4896C512.754 70.707 513.189 71.1419 513.624 71.5768C514.059 71.3594 514.929 71.3594 514.929 71.1419C514.929 69.8372 516.016 69.4023 516.886 68.7499C518.625 68.5325 517.756 70.0546 518.625 70.4896C519.278 69.6197 520.147 68.7499 520.8 67.6627C521.452 67.8801 521.887 67.8801 522.539 68.0976C522.105 68.7499 521.67 69.4023 521.452 69.8372C522.322 71.1419 523.409 70.4896 524.714 70.4896C524.714 70.0546 524.931 69.6197 524.931 69.1848C525.366 68.7499 525.801 68.315 526.454 67.8801C527.541 67.8801 528.628 67.8801 529.498 67.8801C529.933 67.6627 530.368 67.2278 530.803 67.0103C531.455 67.0103 532.107 67.0103 532.977 67.0103C533.847 67.4452 533.412 68.315 533.63 69.4023C532.76 69.8372 531.89 70.2721 531.238 70.4896C532.325 72.2292 534.064 70.9245 534.717 72.0117C534.282 72.4466 534.064 72.6641 533.63 73.099C533.63 73.5339 533.63 73.7513 533.63 74.1863C534.064 74.4037 534.499 74.4037 535.152 74.6212C535.587 75.7084 536.456 76.7957 537.761 77.6655C536.891 79.4051 534.064 79.1877 533.195 80.9273C532.107 81.3622 531.02 80.7098 530.15 81.5797C530.368 81.7971 530.585 82.0146 530.585 82.0146C532.325 82.0146 534.282 82.0146 536.022 82.0146C536.456 82.4495 536.891 82.8844 537.544 83.3193C537.544 83.7542 537.544 84.4065 537.544 85.0589C537.109 85.4938 536.674 85.9287 536.022 86.3636C535.152 86.3636 534.499 86.3636 533.63 86.3636C533.412 86.1462 532.977 85.9287 532.76 85.7113C532.542 85.9287 532.107 85.9287 532.107 86.1462C532.325 87.2334 531.02 87.6683 530.368 88.3207C528.628 88.1032 528.193 89.6254 526.671 90.2778C526.019 90.0603 525.366 89.6254 524.714 89.408C524.062 90.0603 524.497 90.9301 524.279 91.5825C522.539 92.2348 521.017 93.1047 519.06 93.9745C518.625 93.5396 517.756 92.8872 517.103 92.2348L516.886 92.4523C516.886 93.9745 516.886 95.4966 516.886 97.0188C515.364 97.4537 514.059 98.7584 511.884 98.3235C511.232 98.9759 510.58 99.6282 510.145 100.281C509.057 100.281 508.405 100.281 507.753 100.281C507.318 100.063 506.883 99.6282 506.448 99.1933C506.013 99.1933 505.578 99.4108 504.926 99.6283C505.361 100.063 505.796 100.281 506.231 100.716C505.796 101.15 505.361 101.803 504.708 101.803C502.751 102.238 501.229 103.542 499.055 103.977C498.62 104.412 497.967 105.065 497.315 105.499C496.88 105.499 496.663 105.717 496.228 105.717C495.14 105.934 493.618 105.282 492.748 106.587C490.356 106.369 488.617 108.326 486.442 107.674C484.92 108.979 482.746 108.979 482.093 110.501C480.788 110.936 480.354 109.849 479.701 109.631C478.831 109.631 478.179 109.631 477.527 109.631C476.874 110.283 476.222 110.718 475.57 111.371C474.482 111.371 473.395 111.371 472.525 111.371C472.09 111.588 471.655 112.023 471.221 112.241C469.916 111.588 469.481 110.501 468.829 109.196C468.611 110.283 468.394 111.153 468.394 112.023C467.306 112.241 466.219 112.675 465.132 111.588C466.002 111.153 466.872 110.501 467.741 110.066C466.872 109.196 465.784 109.631 465.132 109.414C464.697 109.849 464.262 110.066 463.827 110.501C463.175 110.501 462.305 110.501 461.653 110.501C460.783 111.371 461 112.675 459.261 113.11C459.043 112.893 458.826 112.675 458.391 112.241C457.956 112.241 456.869 112.023 456.434 112.241C455.346 113.328 453.824 112.893 452.302 113.328C452.52 113.763 452.955 113.98 453.172 114.415C453.172 114.85 453.172 115.502 453.389 116.372C452.955 116.59 452.302 117.024 451.65 117.677C451.432 117.024 451.432 116.59 451.215 116.372C451.65 115.937 452.085 115.72 452.302 115.285C451.432 114.85 450.563 114.415 449.693 114.198C448.823 115.067 446.648 114.633 446.213 116.372C446.648 116.59 447.301 116.807 447.953 117.024C447.953 117.459 447.953 117.677 447.953 117.894C447.301 118.982 445.996 118.112 444.909 118.764C444.909 118.982 444.691 119.416 444.691 119.851C443.169 120.286 441.864 121.374 439.907 121.156C439.472 120.939 439.255 120.504 438.82 120.286C437.08 121.156 435.123 121.808 432.731 122.896C431.427 122.896 429.47 122.896 427.513 122.896C427.295 123.548 427.295 123.766 427.078 124.418C426.643 124.853 426.208 125.288 425.555 125.723C424.686 125.505 425.121 124.853 424.686 124.2C424.251 124.2 423.816 123.983 423.163 123.983C422.946 124.635 422.729 125.07 422.511 125.723C422.294 125.723 422.294 125.94 422.076 125.94C419.902 125.94 417.727 125.94 415.553 125.94C415.118 126.592 414.248 126.81 413.378 127.027C412.508 127.245 412.073 128.115 411.421 128.549C410.334 128.549 409.464 128.549 407.942 128.549C407.289 129.202 406.637 129.854 406.202 130.507C405.115 130.507 404.463 130.507 403.593 130.507C403.158 130.724 402.723 131.159 402.505 131.376C401.853 131.376 400.983 131.376 400.331 131.376C399.896 131.811 399.461 132.029 399.244 132.246C398.374 132.246 397.287 132.246 396.199 132.246C395.982 132.464 395.547 132.681 394.895 133.116C394.025 133.116 392.938 133.116 391.633 133.116C390.328 134.421 389.023 135.725 387.936 136.813C386.196 136.813 385.109 136.813 384.022 136.813C383.37 137.465 382.717 137.9 382.065 138.552C381.63 138.335 381.412 138.117 380.978 137.683C380.543 137.9 380.325 138.117 379.89 138.552C379.455 138.335 379.238 137.9 378.803 137.683C378.368 137.683 377.716 137.683 377.281 137.683C377.063 137.03 377.716 136.16 376.629 135.943C376.194 137.248 376.194 137.248 377.281 137.683C376.411 139.205 374.889 140.075 373.149 140.727C372.062 141.162 371.192 141.162 370.105 141.379C369.453 141.814 368.8 142.466 367.93 143.119C366.843 143.119 365.756 143.119 364.451 143.119C364.234 143.771 364.234 143.989 364.016 144.641C363.581 145.076 363.146 145.511 362.494 145.946C361.842 145.946 361.189 145.946 360.32 145.946C359.885 146.163 359.45 146.598 359.015 146.816C357.928 146.816 356.84 146.816 355.753 146.816C355.318 147.033 354.883 147.468 354.666 147.685C354.231 147.685 353.579 147.685 352.926 147.685C347.925 149.86 343.141 151.817 337.922 154.209C337.27 154.209 336.4 154.209 335.53 154.209C334.66 154.426 334.008 154.861 333.138 155.079C332.268 155.296 332.051 156.166 330.963 155.949C330.094 155.731 329.224 156.166 328.571 156.818C327.049 156.818 325.745 156.818 324.222 156.818C323.787 157.036 323.353 157.471 322.918 157.688C321.613 157.688 320.091 157.688 318.351 157.688C317.699 157.036 317.046 156.166 316.177 155.079C314.437 154.426 313.132 155.949 311.393 156.383C311.393 156.601 311.393 157.036 311.393 157.253C309.436 158.123 307.478 158.993 305.521 159.863C305.304 159.21 305.087 158.558 304.869 158.123C304.217 157.471 303.129 157.906 302.26 157.688C302.042 157.253 301.825 156.601 301.607 156.166C300.52 156.383 300.085 157.253 299.433 157.688C297.258 157.906 297.258 157.906 295.519 158.775C295.301 158.775 295.084 158.775 295.084 158.775C293.779 157.253 291.387 157.036 290.082 155.514C290.517 155.296 290.735 154.861 291.387 154.426C290.735 153.339 289.865 152.034 289.212 150.73C289.43 150.512 289.647 150.295 290.082 150.077C290.082 148.12 290.082 146.163 290.082 144.206C288.56 143.554 286.82 144.206 284.428 143.554C284.211 143.336 283.776 142.684 283.124 142.032C282.036 142.684 282.471 143.336 282.471 143.989C282.254 143.989 281.819 143.771 281.384 143.554C281.384 142.032 281.384 140.292 281.384 138.77C281.602 138.552 281.819 138.335 281.819 138.335C283.341 138.335 284.646 138.335 286.168 138.335C286.386 138.552 286.603 138.77 287.038 138.987C288.56 138.552 290.517 138.117 290.952 136.813C291.387 135.725 292.909 134.638 291.822 133.116C291.604 133.116 291.387 132.899 291.17 132.464C291.604 131.594 292.039 130.724 292.474 130.072C293.562 129.854 294.214 130.507 294.649 130.941C295.519 130.941 296.171 130.941 297.041 130.941C297.041 130.507 297.476 130.072 297.258 129.637C297.041 128.984 295.953 128.984 296.171 128.115C296.606 128.115 297.258 128.115 297.693 128.115C298.998 127.462 299.215 126.158 300.085 125.288C300.955 124.418 301.39 123.548 302.042 122.678C302.695 121.591 303.129 120.504 304.434 119.851C304.869 119.851 305.521 119.851 305.956 119.634C306.174 120.286 305.956 120.939 307.044 120.286C306.826 120.069 306.391 119.851 305.956 119.634C306.391 119.199 306.609 118.764 307.044 118.112C307.044 117.894 307.044 117.459 307.044 116.59C306.826 117.024 307.913 116.807 307.913 117.242C308.131 117.677 308.348 118.329 308.566 118.764C309.001 118.764 309.436 118.764 309.87 118.764C310.088 118.329 310.088 117.677 310.523 117.242C310.958 116.807 311.61 116.372 311.393 115.72C311.175 115.502 310.958 115.285 310.523 115.067C309.436 115.502 308.131 115.937 307.044 116.807C306.174 117.024 305.304 117.024 304.217 117.024C303.999 117.459 303.782 118.112 303.564 118.764C302.477 118.764 301.172 118.764 300.303 118.764C298.998 119.634 298.128 120.504 296.823 120.939C295.519 121.374 294.649 122.678 293.779 123.548C293.127 123.548 292.257 123.548 291.604 123.548C290.3 125.288 287.69 125.505 286.386 127.027C285.298 127.245 283.776 126.81 283.124 128.115C282.471 128.115 281.602 128.115 280.949 128.115C279.862 129.854 277.035 129.854 275.73 131.811C274.643 131.811 273.556 131.811 272.034 131.811C271.599 132.464 270.946 133.333 270.946 133.551C269.642 133.768 268.989 133.986 268.554 133.986C268.554 134.856 268.337 135.508 268.337 136.16C267.467 136.595 266.162 136.595 265.728 137.465C265.293 138.552 263.77 137.9 263.118 138.77C263.118 138.987 263.118 139.422 263.118 139.64C262.248 140.075 261.378 140.509 260.291 140.944C258.986 140.509 258.986 139.205 258.117 138.117C257.899 139.205 257.682 139.857 257.464 140.944C257.029 140.944 256.377 141.162 255.942 141.162C254.855 142.032 253.985 142.901 252.898 143.771C251.811 144.206 251.376 143.554 250.723 142.901C248.984 143.554 249.201 145.511 247.679 146.381C246.592 146.163 246.157 145.293 245.504 144.858C244.2 145.293 245.287 146.598 244.635 147.25C243.982 147.903 242.895 147.468 242.025 147.685C240.72 148.773 239.198 150.077 237.894 151.165C237.241 151.382 236.806 151.382 236.371 151.6C235.719 152.034 236.589 153.339 235.067 153.339C234.849 153.339 234.632 153.339 234.632 153.339C233.327 154.861 230.935 155.079 229.63 156.601C229.63 156.818 229.63 157.253 229.63 157.471C227.673 158.341 225.716 159.21 222.672 160.515C222.672 160.515 221.585 161.385 220.715 162.472C219.845 163.559 218.105 163.342 217.236 164.429C216.366 165.517 214.626 165.299 213.756 166.386C213.104 167.256 212.234 167.908 210.929 168.343C209.625 168.561 208.32 168.996 207.45 170.083C206.58 171.17 204.841 170.953 203.971 172.04C203.536 171.823 203.101 171.388 202.666 171.17C201.144 171.388 200.057 172.692 198.317 172.258C198.1 172.475 198.1 172.91 197.882 173.127C197.882 173.345 197.882 173.345 197.882 173.562C196.36 173.997 195.055 175.302 192.663 174.867C191.794 175.737 190.924 176.824 189.836 177.911C189.619 177.694 189.619 177.694 189.402 177.476C188.749 177.911 188.097 178.346 187.227 178.564C186.357 178.781 185.487 178.346 184.835 178.999C184.835 179.216 184.835 179.651 184.835 179.868C183.965 180.303 183.095 180.738 182.008 181.173C181.356 180.956 181.138 180.086 179.834 180.521C179.399 179.868 179.181 179.216 178.746 178.564C178.311 178.564 177.877 178.564 177.659 178.564C176.572 179.433 177.442 180.521 177.224 181.608C177.442 181.825 177.877 182.26 178.311 182.695C177.007 183.348 175.702 183.13 174.397 182.913C174.18 182.695 174.18 182.478 173.962 182.043C174.397 182.043 175.05 182.043 175.485 182.043C175.702 182.043 175.919 181.825 175.919 181.825C175.919 181.608 175.702 181.173 175.485 181.173C175.05 181.173 174.397 181.173 173.962 181.173C173.745 180.956 173.745 180.521 173.527 180.521C172.875 180.303 172.875 180.738 172.875 181.173C172.223 181.391 171.353 180.738 170.918 181.608C170.483 182.478 169.178 181.825 168.744 182.478C168.091 183.348 167.221 182.913 166.352 183.13C165.699 183.348 165.264 183.565 164.612 183.783C164.394 183.565 164.177 183.348 163.96 183.13C163.307 183.348 162.655 183.783 162.002 184C161.35 183.565 161.133 183.348 160.698 182.913C160.045 182.913 159.393 182.913 158.523 182.913C158.088 183.13 157.871 183.565 157.219 184C156.349 183.565 155.479 183.348 154.609 182.913C154.174 183.13 153.739 183.348 153.087 183.783C153.304 183.783 153.087 183.783 153.087 183.783C152.435 182.478 150.477 183.348 149.825 182.695C148.738 181.825 147.433 182.043 146.563 182.043C144.824 180.521 147.433 180.303 147.216 179.216C146.998 178.346 145.911 178.129 145.693 177.476C144.824 177.476 144.171 177.476 143.519 177.476C142.432 176.824 141.997 175.954 141.562 174.867C141.344 173.997 139.822 173.78 139.822 172.692C140.91 172.692 141.127 171.605 141.997 171.388C141.344 170.953 140.91 170.518 140.475 169.866C139.822 169.866 139.17 169.866 137.865 169.648C137.648 169.431 137.213 168.778 136.56 168.126C137.213 167.474 138.083 167.908 139.17 167.691C139.605 167.256 140.257 166.821 140.91 166.169C140.475 165.516 140.257 164.864 139.822 164.429C141.127 163.342 141.562 164.647 142.432 165.082C143.302 165.082 143.954 165.082 144.606 165.082C145.259 164.647 145.693 164.212 146.128 163.777C145.476 163.559 144.606 163.125 143.954 162.907C144.171 162.69 144.606 162.472 145.041 162.037C145.041 161.602 145.041 160.733 145.259 160.08C145.694 159.645 146.346 159.21 146.781 158.775C147.433 158.775 148.085 158.775 148.955 158.775C149.825 157.471 149.825 157.471 148.52 156.818C148.738 156.601 148.738 156.166 148.955 156.166C149.825 155.949 150.695 155.949 151.565 155.949C151.565 155.514 151.782 155.079 151.782 154.426C150.695 154.209 149.825 154.209 148.738 153.991C148.738 153.774 148.955 153.339 148.955 153.339C150.043 153.339 150.695 152.904 151.13 152.252C151.782 151.382 152.652 151.165 153.957 151.165C153.304 150.512 153.087 150.295 152.652 149.86C153.304 149.642 153.957 149.425 154.609 149.208C155.261 148.12 154.609 146.816 154.827 145.728C155.261 145.728 155.914 145.728 156.566 145.728C157.001 145.293 157.436 144.858 158.088 144.424C157.653 143.989 157.218 143.554 156.784 143.119C156.131 143.119 155.261 143.119 154.392 143.119C153.957 143.554 153.522 143.989 152.869 144.424C152.869 145.076 152.869 145.511 152.869 146.381C152.435 146.598 151.782 147.033 151.13 147.468C149.39 147.468 147.868 148.338 146.346 148.99C146.346 149.425 146.346 149.86 146.346 150.295C146.128 150.295 145.476 150.512 145.476 150.512C145.259 151.165 145.911 151.165 146.346 151.165C146.781 151.599 146.998 152.034 147.433 152.687C146.563 153.339 145.693 154.209 144.824 154.861C143.519 155.079 142.214 154.644 141.127 155.079C141.344 155.949 143.084 156.601 141.344 157.471C141.127 157.253 140.91 157.036 140.475 156.818C139.387 157.036 138.952 157.906 138.083 158.558C137.43 158.123 136.778 157.688 136.343 157.253C136.56 156.601 136.778 156.166 136.995 155.731C137.43 156.166 137.865 156.383 138.3 156.601C138.735 156.166 139.387 155.731 139.822 155.296C139.822 155.079 139.822 154.644 139.822 153.991C140.692 153.339 141.779 152.469 143.084 151.6C142.867 151.382 142.432 151.165 142.432 150.947C143.736 149.86 144.824 148.99 146.563 147.468C147.216 147.468 148.303 146.816 148.52 145.511C148.738 144.641 149.39 143.989 150.695 143.771C150.912 144.424 150.26 145.293 151.347 145.511C151.782 144.206 151.782 144.206 150.695 143.771C150.695 143.336 150.477 142.901 150.695 142.466C151.565 141.379 152.435 140.074 153.304 139.205C154.174 139.205 154.609 139.205 155.044 139.205C155.261 140.074 155.914 140.509 156.784 140.944C157.436 140.292 157.436 139.64 156.566 139.205C156.131 139.205 155.479 139.205 155.044 139.205C155.044 138.77 155.044 138.335 155.044 137.683C155.914 137.465 157.001 137.465 158.088 137.248C158.088 136.813 158.306 136.378 158.523 135.943C158.958 135.725 159.828 135.725 160.263 135.291C160.915 134.856 161.35 134.421 162.22 134.638C163.307 135.291 162.655 136.16 162.655 137.03C162.437 137.248 162.22 137.465 162.002 137.683C162.002 138.77 162.002 139.857 162.002 140.944C162.437 140.727 162.655 140.727 162.872 140.727C163.742 140.075 164.394 139.422 165.047 138.77C164.612 138.335 164.394 138.117 163.96 137.683C163.96 137.248 163.96 137.03 164.177 136.813C165.482 135.943 167.004 137.03 168.309 136.16C168.091 135.943 167.656 135.508 167.439 135.291C167.874 133.986 169.613 134.203 170.483 133.333C170.483 133.116 170.483 132.681 170.483 132.464C170.048 132.029 169.396 131.594 168.961 131.159C168.526 131.376 168.309 131.811 167.874 132.029C167.439 131.811 167.221 131.376 166.786 131.159C165.917 131.811 166.352 132.681 166.352 133.333C165.917 133.768 165.482 134.203 165.047 134.638C163.96 134.203 163.09 133.768 162.002 133.333C162.437 132.029 162.437 132.029 163.742 131.159C164.177 131.376 164.394 131.811 164.829 132.029C165.699 131.376 165.047 130.507 165.482 129.637C165.917 129.202 166.786 128.549 167.439 127.897C167.439 127.68 167.439 127.245 167.439 127.027C168.091 126.592 169.178 126.592 169.613 125.94C170.483 125.07 171.788 126.158 172.44 125.288C173.093 124.418 174.18 124.853 174.615 124.418C174.832 123.983 174.832 123.548 175.05 123.113C175.702 122.896 176.354 122.678 177.007 122.461C176.572 121.808 176.137 121.156 175.702 120.286C177.007 120.069 178.094 119.851 179.181 119.634C179.181 119.199 179.399 118.764 179.399 118.329C180.051 117.677 180.921 118.112 182.226 117.894C182.878 117.242 183.748 116.372 184.618 115.285C184.618 115.067 184.618 114.415 184.618 113.98C185.922 112.893 186.575 111.371 188.749 111.371C188.967 110.936 188.967 110.501 189.184 109.849C189.836 109.196 190.706 109.631 191.794 109.414C192.228 109.849 192.881 110.283 193.316 110.718C192.881 112.023 191.794 112.458 189.836 112.241C190.489 113.545 190.924 114.198 191.576 114.85C190.924 115.067 190.054 114.85 190.706 115.72C190.924 115.502 191.141 115.285 191.576 114.85C192.228 114.633 193.098 114.198 194.403 113.763C194.403 113.328 194.62 112.458 194.838 111.588C194.838 111.371 195.49 111.371 195.708 111.153C195.925 111.806 195.708 112.458 196.795 111.806C196.577 111.588 196.143 111.371 195.708 111.153C195.273 109.849 193.751 109.196 192.446 107.891C193.098 107.674 193.533 107.457 194.62 107.022C194.838 107.022 195.925 107.457 196.795 107.891C197.012 108.544 196.36 109.414 197.447 110.283C198.1 109.196 198.535 108.326 198.969 107.239C198.969 107.239 198.969 107.022 198.752 106.804C198.1 106.152 197.012 106.587 196.143 106.369C195.925 106.152 195.708 105.717 195.708 105.717C196.577 105.282 196.577 104.412 196.577 103.76C196.577 103.325 196.795 103.107 197.23 102.455C197.665 103.325 197.882 103.76 198.1 104.412C199.187 104.847 199.622 104.412 200.274 103.76C199.622 103.108 199.187 102.673 198.752 102.02C198.969 100.498 200.492 100.063 201.579 98.9759C201.796 99.1933 202.014 99.4108 202.449 99.8457C203.101 99.8457 203.971 99.8457 204.841 99.8457C205.493 99.4108 205.928 98.9759 206.363 98.541C205.928 98.1061 205.711 97.8886 205.276 97.4537C205.058 96.5839 205.711 96.3665 206.145 95.7141C206.58 95.2792 206.58 94.6268 206.798 94.1919C207.233 94.1919 207.668 94.1919 208.102 94.1919C208.537 93.5396 209.19 93.1047 209.625 92.4523C210.494 91.1476 210.494 91.365 212.017 90.4952C213.539 89.6254 215.713 89.408 216.583 87.6683C217.236 87.6683 217.67 87.6683 218.323 87.4509C218.54 88.1032 218.323 88.7556 219.41 88.1032C219.193 87.8858 218.758 87.6683 218.323 87.4509C218.323 86.7985 218.323 86.1462 218.323 85.2764C219.193 84.8415 220.28 84.4065 221.367 83.7542C222.454 83.7542 223.759 83.7542 224.846 83.7542C224.846 84.1891 224.846 84.624 224.846 85.2764C224.194 85.4938 223.324 85.9287 222.672 86.1462C222.889 86.5811 222.889 87.016 223.107 87.6683C224.411 87.2334 225.716 86.7985 226.803 86.3636C227.021 85.9287 227.238 85.2764 227.456 84.8415C228.326 84.8415 228.978 84.8415 229.848 84.8415C230.935 83.1018 232.24 81.5797 233.327 81.1447C234.197 80.9273 235.067 81.3622 235.719 80.7098C235.719 80.4924 235.719 80.0575 235.719 79.6226C239.416 78.9702 240.286 75.9259 241.59 73.7513C242.025 73.7513 242.46 73.7513 242.895 73.7513C243.982 72.2292 246.374 71.7943 246.592 69.6197C247.896 68.315 249.853 67.2278 250.288 65.4881C251.158 65.4881 251.811 65.4881 252.68 65.4881C252.898 64.6183 253.115 63.7485 253.985 63.0962C254.203 62.8787 253.985 62.2263 253.768 61.7914C252.68 62.4438 251.811 63.0961 250.723 63.5311C249.636 63.966 248.331 64.8358 246.809 64.4009C246.157 65.2707 244.417 65.0532 244.417 65.7056C243.982 66.7928 243.112 67.4452 242.46 68.315C241.808 69.1848 241.373 70.0546 240.938 70.9245C240.503 71.7943 239.851 72.6641 239.416 73.5339C238.981 73.3164 238.546 72.8815 238.328 72.6641C237.894 73.099 237.241 73.5339 236.806 73.9688C236.806 75.0561 236.589 75.9259 236.589 77.2306C235.502 77.2306 234.849 77.448 233.979 77.448C233.544 77.883 232.892 78.3179 232.457 78.7528C232.457 78.9702 232.457 79.4051 232.457 79.6226C230.065 80.2749 228.326 81.7971 227.673 83.7542C226.803 83.7542 225.934 83.7542 225.064 83.7542C224.629 83.1018 224.194 82.232 223.759 81.5797C224.629 80.7098 225.716 81.1448 226.586 80.9273C227.021 80.4924 227.456 80.0575 228.108 79.6226C228.108 78.9702 228.108 77.883 228.543 77.448C230.065 76.5782 228.543 74.6212 230.5 73.9688C229.63 72.8815 228.761 73.5339 227.456 73.5339C227.456 73.9688 227.238 74.4037 227.238 74.8386C226.586 75.0561 225.716 75.2735 225.064 75.7084C224.194 76.1433 223.759 77.0131 222.454 77.0131C221.802 77.0131 221.15 77.883 220.497 78.5353C219.628 79.6226 218.105 79.6226 217.018 80.4924C216.583 80.7098 215.713 80.7098 214.626 80.7098C213.756 81.7971 212.234 82.4495 210.712 83.1018C209.407 83.5367 208.32 84.1891 207.015 84.624C205.928 85.0589 205.058 86.1462 203.753 86.5811C202.231 87.2334 201.144 88.5382 199.839 89.6254C197.882 91.365 195.708 92.0174 193.968 93.1047C193.098 93.5396 191.794 94.1919 192.446 95.7141C191.576 95.7141 191.359 95.7141 190.706 95.7141C189.836 96.3665 189.184 97.2363 188.314 97.8886C187.662 98.541 187.01 99.1933 185.705 99.4108C184.4 99.4108 184.183 101.15 182.878 101.15C181.573 101.15 181.356 102.238 180.486 102.673C179.399 103.108 178.311 103.542 177.224 103.977C176.354 104.412 175.485 104.847 174.18 105.282C173.527 105.934 172.44 106.587 171.788 107.457C170.483 108.979 168.091 109.196 166.786 110.718C165.482 112.241 163.09 112.458 161.785 113.98C161.35 114.633 160.263 114.415 159.61 114.85C158.741 115.285 157.871 115.502 157.001 116.155C156.131 116.807 155.479 117.677 154.174 117.894C153.087 118.112 152.652 119.416 151.347 119.634C150.26 119.851 149.173 120.504 148.303 120.939C148.303 121.156 148.303 121.591 148.303 122.026C147.433 122.243 146.128 122.026 145.476 122.461C144.824 122.896 143.736 122.896 143.302 123.331C142.649 124.2 141.344 123.766 140.692 124.635C140.257 125.288 139.387 125.723 138.735 126.375C138.735 126.592 138.735 127.027 138.735 127.245C137.648 127.68 136.778 128.115 135.691 128.767C135.473 128.767 135.256 128.767 135.256 128.767C134.821 128.767 134.603 128.767 134.168 128.767C133.081 129.854 131.994 130.724 131.342 131.594C130.037 131.594 129.385 131.594 128.732 131.594C127.862 132.464 126.993 133.116 126.123 133.986C126.123 134.203 126.123 134.638 126.123 135.073C124.818 135.508 123.296 135.943 122.209 136.595C121.121 137.248 120.252 138.335 119.382 139.205C118.294 139.205 117.642 139.205 116.99 139.205C116.337 140.074 116.12 141.162 114.815 141.814C114.38 141.814 113.51 141.814 112.858 141.814C112.858 141.814 112.641 141.814 112.423 142.032C111.118 143.771 108.292 143.771 107.422 145.511C106.769 145.076 106.117 144.858 105.247 144.206C104.595 145.076 103.943 145.946 103.725 146.381C102.42 146.381 101.768 146.381 100.898 146.381C100.463 147.903 99.1586 148.99 97.4189 149.86C96.7666 150.295 96.1142 150.512 95.4619 150.947C95.2444 150.73 95.027 150.512 94.5921 150.295C93.7222 151.382 92.635 152.469 92.2001 152.904C90.4604 152.904 89.8081 152.904 89.1557 152.904C88.0685 153.774 87.1986 154.644 86.1114 155.514C83.7194 155.949 82.1972 157.688 79.3703 157.471C78.718 158.123 77.8482 158.775 77.1958 159.21C76.5435 159.21 75.6736 159.21 75.0213 159.21C73.934 160.08 72.8468 160.95 71.9769 161.82C70.8897 162.255 69.3675 161.167 68.9326 162.907C64.3661 162.907 60.017 162.907 55.8854 162.907C55.4505 163.125 55.0156 163.559 54.5807 163.777C53.4934 163.777 52.4062 163.777 51.3189 163.777C50.884 163.994 50.4491 164.429 50.0142 164.647C49.7967 163.994 49.5793 163.559 49.3618 162.907C48.9269 162.907 48.492 162.907 48.0571 162.907C47.1873 163.559 47.6222 164.429 47.6222 165.082C47.4048 165.299 47.1873 165.517 46.7524 165.517C45.2302 165.517 43.9255 165.517 42.6208 165.517C41.751 164.864 41.0986 164.212 40.4463 163.777C39.359 164.647 40.2288 165.951 39.7939 166.821C39.1415 167.474 38.7066 167.908 38.2717 168.343C37.8368 168.126 37.1845 168.126 36.5321 167.908C36.967 167.474 37.4019 167.039 37.6194 166.821C36.5321 165.734 35.0099 166.821 33.4878 166.169C33.4878 165.951 33.2703 165.516 33.2703 165.082C33.7052 164.647 33.9227 164.429 34.575 163.994C33.9227 163.777 33.4878 163.777 33.0529 163.559C32.618 164.212 32.4005 164.864 31.9656 165.517C31.7481 165.299 31.5307 165.082 30.8783 164.647C29.5736 164.212 28.0514 164.864 26.3118 164.429C25.8769 163.994 25.442 163.559 24.7897 163.125C25.0071 162.472 25.8769 162.472 25.8769 161.602C26.9642 160.95 26.9642 160.95 26.5293 159.863C25.442 160.298 26.0944 160.95 25.8769 161.602C25.442 161.602 24.7897 161.602 24.3547 161.602C23.05 159.645 21.9628 157.471 20.658 155.514C21.7453 154.426 23.2675 155.514 24.5722 155.079C25.2246 154.426 24.7897 153.774 24.1373 153.122C23.4849 152.469 23.7024 152.252 24.7897 151.6C26.0944 151.165 26.5293 153.557 28.0514 152.034C27.834 151.817 27.6165 151.382 27.1816 151.165C27.6165 150.077 30.0085 149.642 29.1387 147.903C30.4434 147.685 31.3132 147.685 32.1831 147.685C32.1831 147.25 32.4005 146.816 32.4005 146.381C31.7481 145.946 31.3132 145.511 30.8783 145.076C30.0085 145.293 29.7911 146.381 28.7038 145.728C27.6165 145.076 28.2689 144.206 28.2689 143.336C28.2689 143.119 28.9213 143.119 29.1387 142.901C29.3562 143.554 29.1387 144.206 30.226 143.554C30.0085 143.336 29.5736 143.119 29.1387 142.901C29.1387 142.249 29.1387 141.597 29.1387 140.727C29.7911 140.509 30.226 140.292 30.8783 140.292C31.5307 139.64 31.0958 138.77 31.3132 138.117C31.7481 137.9 31.9656 137.465 32.4005 137.248C32.4005 137.03 32.4005 136.595 32.4005 136.378C32.1831 136.16 31.9656 135.943 31.9656 136.16C30.8783 136.813 29.5736 137.03 28.2689 136.813C28.2689 137.465 28.0514 137.9 28.0514 138.335C28.7038 138.552 29.3562 138.77 30.0085 138.987C30.0085 139.205 29.7911 139.64 29.7911 139.64C28.4864 139.422 28.0514 140.727 26.9642 140.509C26.5293 140.075 26.3118 139.422 25.8769 138.987C25.8769 138.552 25.8769 137.9 25.8769 137.248C27.3991 136.595 26.5293 134.638 28.7038 134.203C28.9213 134.421 29.1387 134.638 29.5736 134.856C30.0085 134.638 30.226 134.203 30.6609 133.986C31.3132 133.986 32.1831 133.986 32.8354 133.986C33.0529 134.421 33.2703 135.073 33.4878 135.725C34.3576 135.291 35.4448 134.856 36.3147 134.638C35.8798 133.768 34.3576 133.333 34.1401 132.246C35.0099 132.246 35.8798 132.246 37.1845 132.246C37.1845 131.811 37.4019 131.159 37.6194 130.724C36.967 130.507 36.3147 130.507 35.6623 130.507C35.4448 130.289 35.2274 130.072 35.6623 129.854C36.7496 128.984 36.5321 127.245 38.7066 126.81C39.1415 127.027 39.5765 127.245 40.2288 127.68C41.3161 126.375 42.6208 124.853 43.9255 123.331C43.9255 123.113 43.9255 122.461 43.9255 121.808C46.5349 120.721 46.5349 120.721 47.6222 118.547C48.0571 118.764 48.492 119.199 48.7095 119.416C50.4491 118.764 51.9713 117.894 53.7109 117.242C53.7109 116.59 53.7109 115.937 53.7109 115.285C54.3633 115.067 55.0156 114.85 55.668 114.633C55.668 114.198 55.8854 113.763 55.8854 113.328C56.3203 112.893 56.7552 112.458 57.4076 112.023C58.2774 112.023 59.1472 112.023 60.017 111.806C60.2345 110.936 60.2345 110.283 60.2345 109.414C62.409 108.544 64.3661 107.674 66.5406 106.804C66.1057 106.369 65.8883 106.152 65.4534 105.717C66.7581 104.195 69.3675 104.195 70.2373 102.455C71.1071 102.455 71.7595 102.455 72.6293 102.455C72.8468 102.02 72.8468 101.368 73.2817 100.933C73.7166 100.281 74.5864 99.8457 75.2387 99.4108C74.8038 98.9759 74.5864 98.7584 73.934 98.3235C75.0213 98.1061 76.1086 98.1061 76.9784 97.8886C77.1958 97.4537 77.1958 97.0188 77.4133 96.5839C78.5005 95.7141 79.3703 94.8443 80.6751 93.9745C80.2402 93.757 79.5878 93.5396 79.3703 93.5396C78.2831 93.9745 76.9784 94.1919 76.326 95.0617C74.3689 97.0188 71.1071 97.6712 69.585 100.063C68.9326 99.6283 68.7151 99.4108 68.2802 99.1933C68.0628 99.4108 67.8453 99.6283 67.6279 99.6283C66.5406 100.063 65.4534 100.498 64.3661 100.933C64.1486 100.933 63.9312 100.933 63.9312 100.933C62.6265 102.02 61.1043 103.325 59.7996 104.63C58.9298 104.412 58.2774 105.065 57.625 105.499C56.3203 105.282 55.8854 106.369 55.0156 106.804C54.3633 107.239 53.4934 107.457 52.8411 107.891C52.8411 108.109 52.8411 108.544 52.8411 108.761C48.9269 110.501 44.7953 112.241 40.8812 113.763C39.5765 113.545 39.359 112.458 38.2717 112.023C37.8368 112.241 37.4019 112.458 36.5321 112.893C36.0972 112.675 35.4448 112.241 35.0099 111.806C34.7925 112.023 34.3576 112.458 33.9227 112.675C33.2703 112.675 32.618 112.675 31.7481 112.675C31.5307 113.11 31.3132 113.763 31.0958 114.198C29.7911 115.067 29.3562 113.763 28.7038 113.545C27.834 113.545 26.9642 113.545 27.1816 114.415C25.8769 114.415 24.5722 114.415 23.4849 114.415C23.05 114.198 22.6151 113.763 22.3977 113.545C21.7453 113.545 20.8755 113.545 20.0057 113.545C19.5708 112.893 18.9184 112.241 18.4835 111.806C16.5264 111.588 16.0915 112.893 15.2217 113.545C12.6123 113.763 13.0472 112.893 12.6123 112.241C12.1774 111.806 11.0901 112.241 10.0029 111.806C10.0029 111.806 9.56795 111.371 9.13304 111.153C8.04577 111.153 6.95851 111.153 5.87125 111.153C5.43634 110.718 5.00143 110.283 4.34907 109.631C4.34907 109.196 4.34907 108.761 4.34907 107.674C3.69672 107.239 2.8269 106.804 2.17455 106.369C2.17455 105.717 2.17455 105.499 2.17455 105.065C1.73964 104.847 1.52219 104.412 1.08728 103.977C1.52219 103.76 1.95709 103.76 2.392 103.542C4.13162 104.195 4.78398 105.934 6.5236 106.152C6.5236 107.022 6.5236 107.891 7.39342 107.239C7.17596 107.022 6.74106 106.804 6.30615 106.587C6.30615 106.152 6.30615 105.717 6.30615 105.282C5.21889 104.412 3.91417 103.76 3.47926 102.673C2.8269 101.585 1.95709 100.716 1.08728 99.8457C1.73964 98.9759 2.392 97.8886 3.04436 96.8014C3.04436 96.5839 3.04436 95.9315 3.04436 95.4966C3.47926 94.8443 3.91417 94.4094 4.13162 93.9745C4.56653 93.9745 4.78398 93.9745 5.21889 93.9745C5.21889 94.4094 5.21889 94.8443 5.21889 95.2792C5.65379 95.7141 6.30615 95.9315 6.95851 95.4966C7.61087 95.0617 8.04577 94.6268 8.91559 94.8443C9.35049 95.4966 10.0029 96.149 10.4378 97.0188C10.6552 97.6712 10.6552 98.541 10.8727 99.1933C11.525 99.8457 12.6123 99.1933 13.2646 99.6283C13.4821 99.4108 13.917 99.1933 13.917 98.7584C13.917 97.2363 13.917 95.7141 13.917 94.4094C14.5694 93.5396 15.4392 93.9745 16.9613 92.8872C17.3963 92.4523 17.1788 93.1047 17.1788 93.5396C16.9613 93.9745 15.4392 93.757 16.7439 94.6268C17.8312 94.6268 19.1359 94.6268 20.4406 94.6268C20.658 93.1047 19.7882 92.4523 16.9613 92.6698C16.0915 93.3221 16.0915 92.8872 16.0915 92.2348C15.6566 92.0174 15.4392 91.5825 15.0043 91.365C15.2217 91.1476 15.6566 90.9301 15.8741 90.9301C17.1788 90.7127 18.701 91.365 19.7882 90.0603C20.8755 89.8429 22.3977 90.2778 23.05 89.1905C24.5722 89.408 24.5722 88.5381 25.0071 87.6683C25.2246 87.2334 25.8769 86.7985 26.3118 86.3636C27.3991 86.3636 28.2689 86.3636 29.1387 86.3636C29.3562 86.3636 29.5736 86.3636 29.5736 86.3636C30.0085 86.1462 30.4434 85.7113 30.6609 85.4938C31.0958 85.7113 31.5307 86.1462 31.7481 86.3636C32.1831 85.7113 33.2703 85.4938 33.0529 84.624C33.7052 84.4065 34.575 84.624 33.9227 83.7542C33.7052 83.9716 33.4878 84.1891 33.0529 84.624C32.618 84.4065 31.7481 84.8415 31.3132 84.1891C31.7481 83.3193 32.4005 82.8844 33.2703 82.6669C33.9227 82.4495 34.7925 82.0146 35.4448 81.5797C35.6623 82.232 35.4448 82.8844 36.5321 82.232C36.3147 82.0146 35.8798 81.7971 35.4448 81.5797C35.6623 80.4924 36.5321 80.7098 37.4019 80.9273C37.6194 81.5797 37.8368 82.0146 38.0543 82.6669C39.359 82.232 39.7939 80.7098 41.5335 80.9273C42.4033 80.2749 43.2732 79.4051 44.3604 78.5353C43.9255 77.883 43.4906 77.448 43.2732 76.7957C43.9255 76.1433 44.7953 75.491 45.6651 74.6212C46.1 74.4037 47.1873 74.6212 47.6222 73.9688C48.2746 73.099 49.5793 74.1863 50.4491 73.3164C51.1015 72.8815 51.9713 72.6641 52.6236 72.2292C52.1887 71.7943 51.9713 71.5768 51.5364 71.1419C51.5364 70.707 51.5364 70.4895 51.5364 70.0546C51.9713 69.8372 52.4062 69.8372 53.276 69.6197C54.7982 68.315 56.5378 66.7929 58.2774 65.2707C59.7996 65.2707 60.6694 64.1834 61.7567 63.3136C63.0614 63.7485 63.4963 62.2263 64.5835 62.4438C64.801 62.4438 65.0184 62.4438 65.2359 62.4438C65.4534 62.0089 65.6708 61.3565 65.8883 60.9216C66.3232 60.9216 66.7581 60.7042 67.4104 60.7042C68.0628 60.2693 68.7151 59.6169 69.3675 58.9645C70.4548 58.9645 71.7595 58.9645 73.0642 58.7471C73.2817 58.3122 73.2817 57.8773 73.4991 57.2249C73.934 57.0075 74.5864 56.79 75.2387 56.79C75.4562 56.3551 75.4562 55.9202 75.6736 55.4853C76.9784 55.0504 78.0656 54.6155 79.8053 53.9631C83.502 50.7013 83.502 50.7013 87.4161 49.3966C87.6336 48.9617 87.6336 48.5268 87.851 48.3093C90.6779 47.2221 93.2873 46.1348 96.1142 44.8301C100.028 41.5683 100.028 41.5683 104.812 40.0461C104.377 39.8287 104.16 39.3938 103.725 38.9589C104.377 38.7414 104.812 38.7414 106.117 38.3065C106.769 37.6542 107.639 36.5669 108.509 35.6971C109.814 35.6971 110.684 35.6971 111.336 35.6971C112.641 34.6098 113.728 33.74 114.598 32.8702C116.337 32.8702 117.425 32.8702 118.729 32.8702C118.947 32.4353 119.164 31.7829 119.382 31.1306C119.817 31.1306 120.251 30.9131 120.904 30.9131C121.121 30.4782 121.339 30.0433 121.339 29.6084C125.253 27.8688 128.95 26.3466 132.864 24.607C133.081 24.607 133.951 24.607 134.603 24.607C135.908 23.5197 137.43 22.215 138.518 21.1277C139.605 20.6928 140.257 20.4754 141.562 20.0405C141.779 20.0405 142.432 20.0405 143.302 20.0405C144.171 19.3881 144.824 18.7357 145.693 18.0834C146.781 18.0834 147.868 18.0834 148.52 18.0834C149.825 17.6485 150.695 17.2136 151.565 16.7787C151.782 16.3438 151.782 15.9089 152 15.2565C153.304 15.2565 154.609 15.2565 155.696 15.2565C156.131 14.1692 156.349 13.082 158.306 12.4296C158.958 12.4296 160.48 12.4296 161.785 12.4296C162.22 12.2122 162.655 11.5598 162.872 11.5598C164.394 11.9947 164.829 10.0376 166.134 10.4725C167.221 9.60272 168.091 8.73291 169.178 7.8631C169.613 8.08055 169.831 8.29801 170.266 8.73291C170.701 8.51546 170.918 8.08055 171.353 7.8631C171.788 7.8631 172.44 7.8631 172.875 7.64565C173.093 8.298 172.875 8.95036 173.962 8.298C173.745 8.08055 173.31 7.8631 172.875 7.64565C173.093 7.42819 173.093 7.21074 173.31 6.99329C174.615 6.77583 175.702 6.55838 176.572 7.64565C176.789 7.42819 177.224 7.42819 177.224 7.21074C177.224 5.90602 178.094 5.47112 179.399 5.03621C180.051 4.81876 180.486 4.6013 181.356 4.1664C182.226 4.1664 183.313 4.1664 184.4 4.1664C184.618 4.6013 184.835 4.81876 185.052 5.03621C185.27 5.03621 185.705 5.25366 185.922 5.25366C188.314 5.25366 190.924 5.25366 193.316 5.25366C193.316 5.47112 193.316 5.90602 193.316 6.12348C192.881 6.12348 192.228 6.12348 192.011 6.12348C191.141 6.55838 190.489 6.99329 189.836 7.42819C190.924 8.298 192.011 8.08055 193.098 7.64565C193.098 7.21074 193.098 6.55838 193.316 6.12348C194.62 5.90602 196.143 6.34093 197.447 5.90602C197.447 5.68857 197.665 5.47112 197.665 5.47112C196.795 4.81876 195.925 3.94895 195.055 3.07913C194.838 3.73149 194.62 4.1664 194.403 4.6013C194.186 4.81876 193.751 4.81876 193.533 4.81876C193.316 3.73149 191.794 3.29659 191.359 2.20932C193.098 1.55696 194.838 2.20932 196.795 1.77442C196.36 1.12206 195.925 0.904604 195.708 0.469698C195.925 -0.18266 196.577 0.0347925 197.447 0.0347925C197.665 0.469698 197.882 1.12206 198.1 1.55696C198.535 1.55696 198.969 1.77442 199.622 1.99187C200.492 2.64423 199.622 3.51404 200.057 3.94895C199.622 4.38385 199.187 4.6013 198.752 5.03621C199.404 5.25366 199.839 5.25366 200.274 5.47112C200.709 5.03621 201.144 4.81876 201.579 4.6013C202.014 4.81876 202.449 5.25366 202.666 5.47112C203.536 5.68857 204.406 5.25366 205.276 5.90602C205.058 6.99329 204.841 7.21074 204.406 7.64565C204.406 9.38527 204.406 11.3423 204.406 13.2994C205.058 13.5169 205.493 13.7343 206.145 13.7343C206.798 14.8216 206.363 15.9089 206.58 16.7787C206.798 16.9961 207.015 17.2136 207.45 17.6485C207.45 18.0834 207.45 18.5183 207.668 19.1707C206.58 20.6928 206.58 20.6928 206.58 21.9975C206.58 22.215 206.58 22.4324 206.363 22.4324C204.406 23.5197 204.406 25.9117 202.231 26.7815C202.231 27.6513 202.231 28.0862 202.231 28.7386C201.579 29.3909 200.927 29.8258 200.057 30.4782C200.057 31.5655 200.057 33.0876 200.057 34.1749C199.187 34.8273 198.535 35.4796 197.882 35.9145C197.882 37.0018 197.882 38.3065 197.882 39.6112C197.447 40.0461 197.23 40.2636 196.795 40.6985C196.795 41.3509 196.795 41.7858 196.795 42.873C196.143 43.3079 195.49 43.9603 194.62 44.6126C194.403 45.265 194.838 46.1348 194.186 46.7872C193.533 46.3523 193.098 45.4825 192.011 45.9174C191.576 46.5697 191.141 47.2221 190.924 47.8744C190.706 48.3094 190.489 48.9617 190.054 49.3966C189.619 50.049 188.532 50.4839 188.314 51.1362C188.097 51.7886 188.097 52.2235 187.444 52.6584C186.792 53.0933 186.14 53.7457 185.487 54.398C184.618 55.2678 183.095 55.7027 182.878 57.2249C181.791 57.4424 181.356 58.0947 180.921 58.7471C181.791 59.182 182.443 59.3995 182.878 58.5296C182.878 58.0947 182.878 57.6598 182.878 57.2249C183.748 57.0075 183.965 58.0947 185.27 58.0947C185.27 58.0947 185.922 58.0947 186.575 58.0947C187.444 57.4424 186.792 56.5726 187.227 55.7027C188.097 55.4853 189.402 55.4853 190.271 54.8329C191.359 54.1806 192.446 54.6155 193.316 54.1806C193.968 53.5282 193.533 52.6584 193.751 51.7886C194.186 51.7886 194.838 51.3537 195.055 51.5711C195.925 52.2235 196.795 52.441 197.665 52.6584C197.882 52.6584 197.882 53.0933 197.882 53.3108C196.577 54.398 195.273 55.4853 193.533 57.0075C193.968 57.0075 193.316 57.0075 192.881 57.2249C192.663 57.6598 192.446 58.3122 192.011 58.9645C191.576 58.0947 191.141 57.6598 190.924 57.0075C189.619 57.6598 190.706 58.7471 190.054 59.3994C189.402 60.0518 188.314 59.6169 187.444 59.6169C187.227 59.8344 187.01 60.0518 186.575 60.4867C185.922 60.4867 185.052 60.4867 183.965 60.7042C183.748 61.574 183.748 62.4438 183.53 63.0962C182.443 63.7485 181.791 63.0961 181.138 62.4438C180.703 62.6612 180.486 62.8787 180.051 63.3136C179.181 63.3136 178.094 63.3136 176.789 63.3136C175.702 64.4009 174.397 65.4881 173.093 67.0103C173.093 67.0103 173.093 67.2278 173.093 67.4452C171.788 68.315 170.048 68.315 169.613 69.8372C168.961 69.4023 168.744 69.1848 168.309 68.7499C167.656 70.2721 166.352 71.3594 165.047 72.4466C164.612 72.2292 164.394 72.0117 163.96 71.3594C163.307 72.0117 162.872 72.8815 162.437 73.3164C161.568 73.3164 161.133 73.3164 160.915 73.3164C159.61 75.491 159.61 75.491 157.219 76.5782C157.219 76.7957 157.219 77.2306 157.219 77.6655C156.566 77.883 156.131 78.1004 156.349 77.883C154.392 79.4051 153.304 80.4924 151.782 81.7971C151.782 82.232 152 82.6669 153.304 82.6669C154.392 82.0146 155.261 80.9273 156.566 80.0575C157.219 80.0575 157.871 80.0575 158.741 80.0575C159.176 79.4051 159.828 78.5353 160.263 78.1004C161.35 78.1004 162.002 78.1004 162.437 77.883C162.655 78.5353 162.437 79.1877 163.525 78.5353C163.307 78.3179 162.872 78.1004 162.437 77.883C162.437 77.0131 163.525 76.7957 163.96 76.3608C165.264 76.5782 165.917 75.2735 167.221 75.2735C168.091 75.0561 168.309 73.5339 169.613 73.3164C169.831 73.9688 169.613 74.6212 170.701 73.9688C170.483 73.7514 170.048 73.5339 169.613 73.3164ZM128.515 97.2363C128.732 97.8886 128.732 98.7584 129.602 98.1061C129.385 97.8886 128.95 97.6712 128.515 97.4537C128.297 96.8014 128.95 95.9316 127.862 95.7141C127.427 96.8014 127.427 96.8014 128.515 97.2363ZM172.005 135.073C172.658 134.856 173.745 135.508 174.18 134.638C172.658 134.203 172.658 134.203 172.44 135.073C171.57 135.291 170.701 135.291 171.57 135.943C171.57 135.725 171.788 135.508 172.005 135.073ZM172.005 127.897C173.31 127.897 174.615 127.897 175.702 127.897C176.137 127.462 177.007 127.027 177.007 126.158C175.702 126.158 174.615 126.158 173.31 126.158C173.093 126.81 171.788 126.81 172.005 128.332C171.135 127.462 171.135 127.462 169.613 127.027C169.613 127.68 169.831 128.115 169.831 128.767C170.918 128.767 171.353 128.549 172.005 127.897ZM217.453 92.6698C215.278 93.1047 215.278 95.0617 214.191 96.3665C213.974 96.5839 214.409 96.8014 214.626 97.2363C215.061 97.0188 215.278 96.5839 215.713 96.5839C216.366 96.3665 217.018 96.149 217.453 95.9315C217.453 94.8443 217.453 93.757 217.453 92.6698C218.54 92.2348 218.54 92.2348 218.105 90.9301C216.801 91.365 217.453 92.2348 217.453 92.6698ZM199.839 168.343C200.492 168.343 200.927 168.343 201.579 168.343C202.014 168.126 202.449 167.691 202.666 167.474C203.319 167.474 204.188 167.474 204.841 167.474C206.798 165.951 206.798 165.951 205.928 164.864C204.406 166.386 200.927 165.951 200.274 168.126C199.404 168.343 198.535 168.343 199.404 168.996C199.622 168.996 199.839 168.561 199.839 168.343ZM523.627 71.5768C522.757 71.5768 521.887 71.5768 521.017 71.5768C520.582 71.7943 520.147 72.2292 519.93 72.4466C519.278 72.4466 518.408 72.4466 518.19 72.4466C516.886 72.8815 516.016 73.3164 515.146 73.7513C515.146 73.7513 515.146 73.9688 515.364 73.9688C515.581 73.9688 515.581 74.1863 515.798 74.1863C516.886 74.1863 517.973 74.1863 518.843 74.1863C519.713 72.8815 521.017 73.3164 522.105 73.099C522.539 72.6641 523.627 72.4466 523.627 71.5768C524.279 71.3594 525.366 72.0117 525.801 71.1419C524.279 70.707 524.279 70.707 523.627 71.5768ZM41.0986 133.768C40.6637 133.551 40.4463 133.333 40.2288 133.333C40.0114 133.333 39.5765 133.333 39.359 133.551C38.2717 135.508 38.2717 135.508 36.0972 136.378C35.8798 136.813 35.6623 137.465 35.4448 137.9C35.0099 137.9 34.575 137.9 34.3576 137.9C32.8354 138.77 32.4005 140.074 31.7481 141.379C32.8354 141.814 33.7052 141.814 34.575 141.379C34.575 140.727 34.7925 139.857 34.7925 139.205C36.3147 138.552 37.6194 138.117 38.9241 137.465C38.4892 135.943 40.8812 135.725 41.0986 133.768ZM281.819 31.1306C282.254 30.6957 282.906 30.2608 283.341 29.8258C282.906 29.3909 282.254 28.7386 281.819 28.3037C280.732 28.3037 279.862 28.3037 279.427 28.3037C278.775 28.7386 278.34 29.1735 277.687 29.8258C278.34 30.6957 277.253 32.0004 278.34 32.8702C278.775 32.8702 279.21 32.6527 279.645 32.6527C279.862 32.0004 280.079 31.5655 280.297 30.9131C280.949 31.1306 281.384 31.1306 281.819 31.1306ZM184.835 120.069C186.792 121.156 187.227 118.764 188.749 119.416C188.749 119.416 189.184 118.982 189.402 118.547C188.749 117.677 188.314 116.59 187.662 115.72C187.01 116.155 186.575 116.59 185.922 117.024C185.922 117.677 185.922 118.329 185.922 118.764C185.705 119.416 185.27 119.634 184.835 120.069ZM35.0099 164.647C35.8798 164.429 36.7496 164.864 37.6194 164.212C37.4019 163.777 36.967 163.342 36.7496 162.907C36.5321 161.82 37.4019 160.733 36.0972 159.863C35.6623 160.515 35.4448 161.167 35.2274 161.602C34.575 161.602 34.1401 161.82 33.7052 161.82C34.1401 162.907 34.575 163.777 35.0099 164.647ZM298.563 145.293C298.563 144.641 298.563 144.206 298.563 143.771C297.693 143.771 297.693 142.466 296.606 142.684C296.388 143.336 296.171 143.771 295.954 144.424C295.084 144.424 294.431 144.424 293.779 144.424C293.344 144.858 292.474 145.293 292.257 145.946C293.561 146.816 293.996 145.511 295.301 145.293C295.953 145.293 297.041 145.293 298.563 145.293ZM534.499 76.1433C534.282 75.2735 534.282 74.8386 534.064 74.4037C532.542 74.1863 531.238 73.9688 529.933 74.6212C529.933 75.0561 530.15 75.491 530.15 75.9259C531.672 76.1433 532.76 76.1433 534.499 76.1433ZM187.227 122.461C186.14 123.113 185.27 123.331 184.618 123.766C185.052 124.418 185.27 124.853 185.27 125.07C185.705 125.07 186.14 125.07 186.575 125.07C186.792 124.418 187.227 123.766 187.444 123.331C188.314 123.331 188.314 123.331 188.967 122.678C188.314 122.026 187.444 122.461 187.227 122.461ZM528.846 80.0575C527.976 80.2749 527.323 80.4924 526.671 80.9273C526.019 81.3622 525.366 81.7971 524.714 82.232C524.931 82.4495 524.931 82.4495 525.149 82.6669C525.366 82.6669 525.584 82.8844 525.584 82.8844C526.671 82.4495 527.976 82.0146 529.063 81.5797C528.846 80.9273 528.846 80.4924 528.846 80.0575ZM168.744 14.8216C166.786 13.9518 166.352 15.474 165.264 15.9089C165.264 16.3438 165.482 16.7787 165.482 17.2136C166.569 16.7787 167.439 16.3438 168.526 15.9089C168.744 15.474 168.744 15.2565 168.744 14.8216ZM287.69 28.7386C286.603 28.0862 285.516 27.8688 284.428 28.7386C284.428 29.1735 284.646 29.6084 284.646 29.8258C285.733 29.8258 286.82 30.4782 287.69 29.6084C287.69 29.3909 287.69 29.1735 287.69 28.7386ZM302.912 134.638C301.825 133.986 301.172 132.899 300.085 132.464C299.433 133.333 299.433 134.203 300.085 135.073C300.955 135.073 301.825 135.508 302.912 134.638ZM498.185 79.84C498.62 79.4051 499.489 78.9702 499.707 78.3179C498.837 77.883 497.75 77.883 496.663 78.3179C496.663 78.7528 496.88 79.1877 496.88 79.84C497.315 79.84 497.75 79.84 498.185 79.84ZM187.01 78.5353C187.444 78.7528 187.879 78.7528 188.532 79.1877C188.967 78.5353 189.402 78.1004 190.271 77.0131C190.271 77.0131 190.706 76.3608 189.619 76.3608C188.749 77.0131 187.879 77.883 187.01 78.5353ZM211.799 97.6712C211.147 98.1061 210.277 98.3235 209.625 98.7584C209.842 99.4108 210.06 99.8457 210.277 100.063C211.147 99.6283 212.234 99.1933 213.104 98.7584C212.452 98.3235 212.017 97.8886 211.799 97.6712ZM152.217 172.91C150.912 172.91 150.043 172.91 150.26 174.432C150.695 174.65 151.347 175.084 152 175.519C152.869 174.867 152.435 173.997 152.217 172.91ZM507.753 76.5782C504.056 76.1433 504.056 76.1433 502.534 77.2306C504.491 77.0131 505.796 77.4481 507.753 76.5782ZM148.303 84.624C149.173 84.4065 149.825 84.4065 150.477 84.1891C150.26 83.5367 150.26 83.1018 150.043 82.4495C149.39 82.6669 148.738 82.6669 148.303 82.6669C148.303 83.3193 148.303 83.7542 148.303 84.624ZM208.537 100.063C207.668 100.281 207.015 100.281 206.363 100.498C206.58 101.15 206.58 101.585 206.798 102.238C207.45 102.02 208.102 102.02 208.537 102.02C208.537 101.368 208.537 100.933 208.537 100.063ZM201.144 106.804C202.014 106.587 202.666 106.587 203.319 106.369C203.101 105.717 203.101 105.282 202.884 104.63C202.231 104.847 201.579 104.847 201.144 104.847C201.144 105.499 201.144 105.934 201.144 106.804ZM203.101 109.196C202.231 109.414 201.579 109.414 200.927 109.631C201.144 110.283 201.144 110.718 201.361 111.371C202.014 111.153 202.666 111.153 203.101 111.153C203.101 110.501 203.101 110.066 203.101 109.196ZM178.529 131.376C178.311 130.507 178.311 130.072 178.094 129.637C177.442 129.854 176.789 129.854 176.137 129.854C176.354 130.507 176.354 130.941 176.572 131.376C177.007 131.376 177.659 131.376 178.529 131.376ZM385.979 132.681C385.327 132.899 384.674 133.333 384.022 133.551C384.674 134.203 385.109 134.638 385.762 135.073C386.414 134.203 386.414 133.333 385.979 132.681ZM285.298 139.857C285.516 140.727 285.516 141.162 285.733 141.597C286.386 141.379 287.038 141.379 287.69 141.379C287.473 140.727 287.473 140.292 287.255 139.857C286.82 139.857 286.386 139.857 285.298 139.857ZM133.299 94.8443C134.168 93.9745 134.168 93.5396 133.516 92.8872C133.081 92.8872 132.429 93.1047 131.994 93.1047C132.429 93.5396 132.864 94.1919 133.299 94.8443ZM492.096 81.3622C491.009 80.4924 489.922 80.4924 488.834 81.3622C489.922 82.0146 491.009 82.0146 492.096 81.3622ZM145.259 87.4509C145.911 86.5811 146.781 86.3636 146.781 85.7113C146.128 85.2764 145.476 85.2764 144.824 85.9287C145.041 86.3636 145.041 86.7985 145.259 87.4509ZM207.885 106.804C208.537 106.152 209.407 105.717 209.625 105.065C208.972 104.63 208.32 104.63 207.668 105.282C207.668 105.717 207.885 106.152 207.885 106.804ZM225.064 46.7872C224.194 46.7872 223.977 46.7872 223.977 46.7872C223.759 46.7872 223.324 47.0046 223.107 47.0046C223.324 47.2221 223.324 47.4395 223.542 47.657C223.977 47.8744 224.194 48.3093 224.846 48.7443C224.846 48.0919 224.846 47.657 225.064 46.7872ZM140.475 88.5382C141.344 89.1905 141.997 89.1905 142.867 88.7556C142.867 88.3207 142.649 87.8858 142.649 87.6683C141.779 87.8858 141.127 88.3207 140.475 88.5382ZM35.0099 90.0603C35.8798 89.408 35.8798 88.7556 35.0099 88.1032C34.575 88.5382 33.7052 88.9731 33.4878 89.8429C34.1401 89.8429 34.575 90.0603 35.0099 90.0603ZM238.111 71.1419C237.241 70.4896 236.589 70.4896 235.719 70.9245C235.719 71.3594 235.936 71.7943 235.936 72.0117C236.589 71.7943 237.241 71.5768 238.111 71.1419ZM210.712 162.907C209.625 163.125 209.407 163.777 208.755 164.212C209.407 164.864 210.277 164.864 210.929 164.212C210.929 163.777 210.712 163.342 210.712 162.907ZM314.22 124.2C313.35 124.853 313.35 125.505 314.22 125.94C314.872 125.288 314.872 124.635 314.22 124.2ZM262.031 134.856C262.466 134.638 263.336 135.725 263.77 134.638C263.118 133.986 262.466 134.203 262.031 134.856ZM298.345 134.421C298.128 134.421 297.911 134.421 297.693 134.421C297.693 134.856 297.476 135.291 297.476 135.725C297.476 135.725 297.693 135.943 297.911 135.943C298.128 135.943 298.563 135.725 298.563 135.508C298.563 135.291 298.345 134.856 298.345 134.421ZM156.131 151.817C157.001 151.165 157.001 150.512 156.131 150.077C155.479 150.512 155.479 151.165 156.131 151.817ZM143.302 166.386C142.649 167.256 142.214 167.908 143.519 168.126C143.954 167.691 143.954 167.256 143.302 166.386ZM484.703 83.1018C485.355 83.7542 486.225 83.7542 486.877 83.1018C486.007 82.4495 485.355 82.4495 484.703 83.1018ZM182.443 120.721C182.008 120.939 181.138 119.851 180.703 120.939C181.356 121.591 182.008 121.591 182.443 120.721ZM178.964 122.243C178.311 123.113 177.877 123.766 179.181 123.983C179.616 123.548 179.616 122.896 178.964 122.243ZM275.948 31.7829C276.165 32.0004 276.165 32.0004 276.383 32.2178C276.6 32.0004 276.6 31.7829 276.818 31.5655C276.818 31.5655 276.6 31.348 276.383 31.348C276.165 31.348 276.165 31.5655 275.948 31.7829ZM281.602 32.8702C281.819 32.8702 282.037 32.6527 282.254 32.4353C282.037 32.4353 282.037 32.2178 281.819 32.2178C281.602 32.2178 281.384 32.4353 281.167 32.4353C281.384 32.6527 281.384 32.6527 281.602 32.8702ZM292.257 34.3924C292.474 34.6098 292.474 34.6098 292.692 34.8273C292.909 34.6098 292.909 34.3924 293.127 34.1749C293.127 34.1749 292.909 33.9575 292.692 33.9575C292.474 33.9575 292.257 34.1749 292.257 34.3924ZM245.722 38.0891C245.939 38.3065 245.939 38.3065 246.157 38.524C246.374 38.3065 246.374 38.0891 246.592 37.8716C246.592 37.8716 246.374 37.6542 246.157 37.6542C245.939 37.6542 245.722 37.8716 245.722 38.0891ZM207.45 54.398C207.233 54.1806 207.233 54.1806 207.015 53.9631C206.798 54.1806 206.798 54.398 206.58 54.6155C206.58 54.6155 206.798 54.8329 207.015 54.8329C207.233 54.8329 207.233 54.6155 207.45 54.398ZM209.407 54.8329C209.625 54.6155 209.625 54.6155 209.842 54.398C209.625 54.398 209.407 54.1806 209.19 54.1806C209.19 54.1806 208.972 54.398 208.755 54.398C208.972 54.6155 209.19 54.8329 209.407 54.8329ZM173.093 63.0962C173.31 63.3136 173.31 63.3136 173.527 63.5311C173.745 63.3136 173.745 63.0962 173.962 62.8787C173.962 62.8787 173.745 62.6612 173.527 62.6612C173.31 62.6612 173.31 62.8787 173.093 63.0962ZM528.193 70.9245C527.976 71.1419 527.976 71.1419 527.758 71.3594C527.976 71.3594 528.193 71.5768 528.411 71.5768C528.411 71.5768 528.628 71.3594 528.846 71.3594C528.628 71.1419 528.411 70.9245 528.193 70.9245ZM232.457 73.9688C232.24 73.7514 232.24 73.5339 232.022 73.3164C231.805 73.3164 231.587 73.5339 231.587 73.5339C231.587 73.7513 231.805 73.9688 232.022 74.1863C232.022 74.1863 232.24 74.1863 232.457 73.9688ZM48.492 75.7084C48.2746 75.7084 48.2746 75.491 48.0571 75.491C47.8397 75.491 47.6222 75.7084 47.4048 75.7084C47.6222 75.7084 47.6222 75.9259 47.8397 75.9259C48.0571 75.9259 48.2746 75.9259 48.492 75.7084ZM522.757 75.491C522.539 75.7084 522.539 75.7084 522.322 75.9259C522.539 75.9259 522.757 76.1433 522.974 76.1433C522.974 76.1433 523.192 75.9259 523.409 75.9259C523.409 75.7084 522.974 75.491 522.757 75.491ZM50.0142 80.7098C50.2316 80.7098 50.4491 80.4924 50.6666 80.2749C50.4491 80.2749 50.4491 80.0575 50.2316 80.0575C50.0142 80.0575 49.7967 80.2749 49.5793 80.2749C49.7967 80.4924 49.7967 80.4924 50.0142 80.7098ZM47.6222 81.1447C47.8397 81.3622 47.8397 81.5797 48.0571 81.7971C48.2746 81.7971 48.492 81.5797 48.492 81.5797C48.492 81.3622 48.2746 81.1448 48.0571 80.9273C47.8397 80.9273 47.8397 80.9273 47.6222 81.1447ZM44.143 83.9716C43.9255 83.7542 43.9255 83.7542 43.7081 83.5367C43.4906 83.7542 43.4906 83.9716 43.2732 84.1891C43.2732 84.1891 43.4906 84.4065 43.7081 84.4065C43.9255 84.4065 43.9255 84.1891 44.143 83.9716ZM187.01 90.4952C186.792 90.4952 186.792 90.2778 186.575 90.2778C186.357 90.2778 186.14 90.4952 185.922 90.4952C186.14 90.4952 186.14 90.7127 186.357 90.7127C186.575 90.7127 186.792 90.4952 187.01 90.4952ZM143.736 91.365C143.519 91.1476 143.519 91.1476 143.302 90.9301C143.084 91.1476 143.084 91.365 142.867 91.5825C142.867 91.5825 143.084 91.7999 143.302 91.7999C143.302 91.5825 143.519 91.5825 143.736 91.365ZM18.9184 96.5839C18.701 96.5839 18.4835 96.8014 18.4835 96.8014C18.4835 97.0188 18.701 97.2363 18.9184 97.4537C19.1359 97.4537 19.3533 97.2363 19.3533 97.2363C19.1359 96.8014 18.9184 96.5839 18.9184 96.5839ZM6.5236 98.9759C6.74106 99.1933 6.74106 99.1933 6.95851 99.4108C7.17596 99.1933 7.17596 98.9759 7.39342 98.7584C7.39342 98.7584 7.17596 98.541 6.95851 98.541C6.74106 98.541 6.74106 98.7584 6.5236 98.9759ZM203.101 103.542C202.884 103.325 202.884 103.107 202.666 102.89C202.449 102.89 202.231 103.107 202.231 103.107C202.231 103.325 202.449 103.542 202.666 103.76C202.884 103.76 203.101 103.542 203.101 103.542ZM206.798 103.542C207.015 103.76 207.015 103.76 207.233 103.977C207.45 103.76 207.45 103.542 207.668 103.325C207.668 103.325 207.45 103.107 207.233 103.107C207.015 103.107 206.798 103.325 206.798 103.542ZM200.927 107.891C200.709 107.674 200.709 107.674 200.492 107.457C200.274 107.674 200.274 107.891 200.057 108.109C200.057 108.109 200.274 108.326 200.492 108.326C200.709 108.326 200.927 108.109 200.927 107.891ZM471.003 108.544C470.786 108.544 470.568 108.761 470.568 108.761C470.568 108.979 470.786 109.196 471.003 109.414C471.221 109.414 471.438 109.196 471.438 109.196C471.438 108.761 471.221 108.761 471.003 108.544ZM369.67 110.936C369.453 110.718 369.453 110.501 369.235 110.283C369.018 110.283 368.8 110.501 368.8 110.501C368.8 110.718 369.018 110.936 369.235 111.153C369.453 111.153 369.67 110.936 369.67 110.936ZM199.839 111.806C199.622 111.588 199.622 111.371 199.404 111.153C199.187 111.153 198.969 111.371 198.969 111.371C198.969 111.588 199.187 111.806 199.404 112.023C199.622 112.023 199.839 112.023 199.839 111.806ZM437.733 116.807C437.515 116.807 437.298 117.024 437.08 117.242C437.298 117.242 437.298 117.459 437.515 117.459C437.733 117.459 437.95 117.242 438.168 117.242C437.95 117.024 437.733 117.024 437.733 116.807ZM434.906 117.894C435.123 118.112 435.123 118.329 435.341 118.547C435.558 118.547 435.776 118.329 435.776 118.329C435.776 118.112 435.558 117.894 435.341 117.677C435.341 117.677 435.123 117.894 434.906 117.894ZM425.773 119.634C425.555 119.634 425.338 119.851 425.121 120.069C425.338 120.069 425.338 120.286 425.555 120.286C425.773 120.286 425.99 120.069 426.208 120.069C425.99 119.851 425.99 119.851 425.773 119.634ZM287.038 121.374C286.82 121.374 286.603 121.591 286.603 121.591C286.603 121.808 286.82 122.026 287.038 122.243C287.255 122.243 287.473 122.026 287.473 122.026C287.473 121.808 287.255 121.591 287.038 121.374ZM127.21 124.2C126.993 124.2 126.775 124.418 126.558 124.635C126.775 124.635 126.775 124.853 126.993 124.853C127.21 124.853 127.427 124.635 127.645 124.635C127.427 124.418 127.21 124.418 127.21 124.2ZM413.596 124.2C413.378 124.418 413.378 124.418 413.161 124.635C413.378 124.635 413.596 124.853 413.813 124.853C413.813 124.853 414.03 124.635 414.248 124.635C414.03 124.418 413.813 124.418 413.596 124.2ZM407.072 126.81C407.289 126.81 407.507 126.592 407.724 126.375C407.507 126.375 407.507 126.158 407.289 126.158C407.072 126.158 406.854 126.375 406.637 126.375C406.854 126.592 406.854 126.592 407.072 126.81ZM309.001 129.419C309.218 129.202 309.218 129.202 309.436 128.984C309.218 128.984 309.001 128.767 308.783 128.767C308.783 128.767 308.566 128.984 308.348 128.984C308.566 129.202 308.783 129.419 309.001 129.419ZM40.8812 131.159C40.6637 130.941 40.6637 130.724 40.4463 130.507C40.2288 130.507 40.0114 130.724 40.0114 130.724C40.0114 130.941 40.2288 131.159 40.4463 131.376C40.6637 131.376 40.6637 131.376 40.8812 131.159ZM388.154 131.159C387.936 130.941 387.936 130.724 387.719 130.507C387.501 130.507 387.284 130.724 387.284 130.724C387.284 130.941 387.501 131.159 387.719 131.376C387.936 131.376 387.936 131.376 388.154 131.159ZM296.388 138.335C296.171 138.335 296.171 138.117 295.954 138.117C295.736 138.117 295.519 138.335 295.301 138.335C295.519 138.335 295.519 138.552 295.736 138.552C295.953 138.552 296.171 138.552 296.388 138.335ZM161.568 143.336C161.785 143.336 162.002 143.119 162.22 142.901C162.002 142.901 162.002 142.684 161.785 142.684C161.568 142.684 161.35 142.901 161.133 142.901C161.133 143.119 161.35 143.119 161.568 143.336ZM247.461 143.119C247.244 142.901 247.244 142.684 247.027 142.466C246.809 142.466 246.592 142.684 246.592 142.684C246.592 142.901 246.809 143.119 247.027 143.336C247.244 143.336 247.461 143.336 247.461 143.119ZM157.219 147.903C157.436 147.903 157.653 147.685 157.871 147.468C157.653 147.468 157.653 147.25 157.436 147.25C157.219 147.25 157.001 147.468 156.784 147.468C156.784 147.685 157.001 147.903 157.219 147.903ZM293.779 149.86C293.996 149.642 293.996 149.642 294.214 149.425C293.996 149.425 293.779 149.208 293.562 149.208C293.562 149.208 293.344 149.425 293.127 149.425C293.344 149.642 293.562 149.642 293.779 149.86ZM321.178 154.209C320.961 153.991 320.961 153.774 320.743 153.557C320.526 153.557 320.308 153.774 320.308 153.774C320.308 153.991 320.526 154.209 320.743 154.426C320.743 154.426 320.961 154.209 321.178 154.209ZM145.911 168.778C145.693 168.778 145.693 168.561 145.476 168.561C145.259 168.561 145.041 168.778 144.824 168.778C145.041 168.778 145.041 168.996 145.259 168.996C145.476 168.996 145.693 168.996 145.911 168.778ZM183.53 176.824C183.313 176.824 183.095 177.041 182.878 177.259C183.095 177.259 183.095 177.476 183.313 177.476C183.53 177.476 183.748 177.259 183.965 177.259C183.748 177.041 183.53 176.824 183.53 176.824ZM359.45 141.814C359.232 142.032 359.232 142.032 359.015 142.249C359.232 142.249 359.45 142.466 359.667 142.466C359.667 142.466 359.885 142.249 360.102 142.249C359.885 142.032 359.667 141.814 359.45 141.814Z" fill="#C0B5F5"/>
<path d="M10.6552 87.2334C10.6552 87.6683 10.6552 88.1033 10.6552 88.7556C10.2203 88.9731 10.0028 89.1905 9.35048 89.6254C9.35048 90.9301 9.35048 92.2349 9.35048 93.5396C7.82831 93.9745 6.52359 93.5396 5.21887 93.757C5.00142 93.5396 5.00142 93.1047 4.78397 93.1047C4.13161 92.8872 4.13161 93.3221 4.13161 93.757C3.6967 93.757 3.04434 93.757 2.60944 93.757C2.17453 93.9745 1.73962 94.4094 1.52217 94.6268C1.08726 94.6268 0.869812 94.6268 0.434906 94.6268C0.217453 94.4094 0 94.4094 0 94.1919C0 92.2349 0 90.2778 0 88.3207C0.652359 88.7556 1.08726 89.6254 1.30472 91.5825C2.17453 91.5825 2.60944 90.7127 3.26179 90.2778C3.26179 89.6254 3.26179 88.9731 3.26179 88.3207C4.13161 87.8858 5.21887 87.2334 6.30614 86.5811C6.30614 86.3636 6.52359 85.7113 6.74104 85.2764C7.17595 85.2764 7.61085 85.2764 8.04576 85.2764C8.26321 85.9287 8.69812 86.5811 9.13302 87.016C9.56793 87.2334 10.2203 87.2334 10.6552 87.2334ZM6.08868 89.1905C6.95849 88.9731 7.82831 88.9731 6.95849 88.3207C6.74104 88.5382 6.52359 88.7556 6.52359 88.9731C5.65378 89.1905 4.78396 89.1905 5.65378 89.8429C6.08868 89.6254 6.30614 89.408 6.08868 89.1905ZM8.48067 90.2778C8.26321 90.0603 8.26321 90.0603 8.04576 89.8429C7.82831 90.0603 7.82831 90.2778 7.61085 90.4952C7.61085 90.4952 7.82831 90.7127 8.04576 90.7127C8.04576 90.7127 8.26321 90.4952 8.48067 90.2778Z" fill="#C0B5F5"/>
<path d="M222.019 42.8731C220.497 42.8731 219.627 43.0906 218.975 43.0906C218.54 43.3081 218.105 43.743 217.888 43.9604C217.018 43.9604 215.931 43.9604 215.061 43.9604C213.974 44.3953 212.886 45.4826 211.364 44.6128C210.929 44.3953 211.147 44.1779 211.364 43.9604C212.234 42.8731 213.974 43.0906 214.843 42.0033C215.496 42.0033 216.366 42.0033 217.235 42.0033C217.453 39.8288 219.41 39.3939 222.019 38.3066C222.237 38.3066 223.324 38.3066 223.976 38.3066C225.281 38.0892 225.716 36.7845 227.021 37.4368C227.456 38.3066 227.673 39.1764 226.803 40.0463C226.368 39.8288 226.151 39.3939 225.716 39.1764C225.281 39.6114 224.629 40.0463 224.194 40.4812C224.411 40.6986 224.846 41.1335 225.281 41.5684C224.846 41.7859 224.411 41.7859 223.542 42.2208C222.889 41.5684 222.454 40.6986 221.802 40.0463C219.845 41.351 220.932 42.0033 222.019 42.8731Z" fill="#C0B5F5"/>
<path d="M19.3533 149.86C18.2661 149.86 17.3963 149.86 16.5264 149.86C16.0915 148.99 15.6566 148.338 15.0043 147.468C15.4392 147.25 16.0915 147.25 16.7439 147.033C16.9613 146.598 17.1788 145.946 17.6137 145.293C18.2661 146.163 18.701 147.033 19.3533 147.903C19.3533 148.12 19.3533 148.772 19.3533 149.86Z" fill="#C0B5F5"/>
<path d="M234.632 33.9572C234.849 33.0874 235.719 32.435 236.589 32.2176C237.894 31.7827 238.763 30.6954 240.286 31.1303C240.938 31.7827 241.373 32.435 241.808 32.8699C240.938 33.3048 239.633 32.8699 238.546 33.0874C238.111 33.3048 237.676 33.7397 237.459 33.9572C236.371 33.9572 235.502 33.9572 234.632 33.9572Z" fill="#C0B5F5"/>
<path d="M319.004 43.3081C318.351 44.1779 317.916 45.0477 317.481 45.7001C317.264 45.7001 317.047 45.7001 317.047 45.7001C315.959 45.2652 314.872 44.8303 313.785 44.3954C313.35 44.1779 312.915 43.743 312.698 43.5256C313.785 42.8732 313.785 42.8732 315.089 43.743C316.177 43.5256 317.264 42.6557 319.004 43.3081Z" fill="#C0B5F5"/>
<path d="M245.504 29.6087C245.504 30.261 245.504 30.9134 245.504 31.3483C245.939 31.5657 246.157 32.0006 246.809 32.4355C246.157 32.653 245.504 32.653 244.852 32.8704C244.635 32.2181 244.635 31.7832 244.417 31.1308C243.982 30.6959 243.112 30.0436 242.243 29.6087C243.33 28.9563 244.417 28.9563 245.504 29.6087Z" fill="#C0B5F5"/>
<path d="M209.842 47.44C209.19 47.6575 208.755 47.6575 208.102 47.6575C207.885 47.2226 207.45 46.5702 207.015 45.9178C207.233 45.7004 207.668 45.2655 208.32 44.8306C208.755 44.8306 209.19 44.8306 209.625 44.8306C210.059 45.7004 209.625 46.5702 209.842 47.44Z" fill="#C0B5F5"/>
<path d="M21.9628 139.857C23.05 139.857 23.7024 139.857 23.4849 141.379C22.6151 141.814 21.5279 142.466 20.4406 143.119C20.2231 142.901 20.2231 142.249 20.8755 141.597C21.5279 141.162 21.7453 140.292 21.9628 139.857Z" fill="#C0B5F5"/>
<path d="M249.854 30.6959C249.419 31.1308 248.766 31.5657 248.331 32.0007C246.809 31.5657 248.114 30.4785 247.679 29.6087C247.462 29.3912 247.027 29.1738 246.374 28.5214C247.244 28.304 247.896 28.304 248.331 28.304C248.766 29.1738 248.766 30.261 249.854 30.6959Z" fill="#C0B5F5"/>
<path d="M253.115 28.9563C252.68 29.1737 252.245 29.1737 251.376 29.6086C250.941 28.9563 250.506 28.5214 249.854 27.6516C249.854 27.6516 250.071 27.2167 250.288 26.1294C250.941 26.9992 251.376 27.4341 251.593 27.869C252.028 28.3039 253.115 28.0865 253.115 28.9563Z" fill="#C0B5F5"/>
<path d="M464.262 112.893C462.74 113.111 461.653 113.546 461 112.893C461.435 112.241 462.088 111.806 462.305 111.154C462.957 111.154 463.392 111.154 463.392 111.371C463.827 111.806 464.045 112.241 464.262 112.893Z" fill="#C0B5F5"/>
<path d="M206.145 47.657C207.015 49.1792 205.493 49.6141 204.841 50.4839C204.406 50.049 203.971 49.6141 203.318 48.9617C204.188 48.7442 205.058 48.3093 206.145 47.657Z" fill="#C0B5F5"/>
<path d="M257.464 26.1292C259.856 25.4768 261.161 25.4768 262.683 25.9117C261.813 26.5641 261.813 26.5641 257.464 26.1292Z" fill="#C0B5F5"/>
<path d="M253.115 28.3042C253.115 27.8693 253.115 27.4344 253.115 26.7821C253.55 26.5646 254.203 26.5646 255.072 26.3472C255.072 26.9995 255.29 27.6519 255.29 28.3042C254.42 28.3042 253.768 28.3042 253.115 28.3042Z" fill="#C0B5F5"/>
<path d="M457.739 113.545C457.086 113.98 456.434 114.198 455.564 114.632C455.564 114.198 455.347 113.763 455.347 113.328C456.216 112.893 456.869 112.893 457.739 113.545Z" fill="#C0B5F5"/>
<path d="M32.6181 132.899C31.9657 133.116 31.3133 133.116 30.4435 133.334C30.4435 132.681 30.2261 132.246 30.2261 131.594C31.5308 132.246 31.5308 132.246 32.6181 132.899Z" fill="#C0B5F5"/>
<path d="M11.5251 92.8874C11.7426 91.8002 11.9601 91.3652 11.9601 90.7129C12.6124 91.3652 13.4822 91.8002 13.6997 92.67C13.2648 92.67 12.8299 92.8874 11.5251 92.8874Z" fill="#C0B5F5"/>
<path d="M140.475 172.04C139.387 171.823 138.952 171.171 138.3 170.301C138.952 170.301 139.605 170.301 140.257 170.083C140.475 170.953 140.475 171.388 140.475 172.04Z" fill="#C0B5F5"/>
<path d="M25.8769 140.727C25.6595 141.379 26.3119 142.249 25.2246 142.467C24.7897 141.162 24.7897 141.162 25.8769 140.727Z" fill="#C0B5F5"/>
<path d="M144.606 177.911C143.954 178.781 143.519 178.781 142.866 178.128C143.301 176.824 144.171 177.911 144.606 177.911Z" fill="#C0B5F5"/>
<path d="M16.7439 89.1905C15.8741 88.5382 15.8741 87.8858 16.7439 87.4509C17.3963 87.8858 17.3963 88.5382 16.7439 89.1905Z" fill="#C0B5F5"/>
<path d="M269.424 26.7818C268.989 26.3469 268.554 26.1294 268.337 25.912C269.207 25.2596 269.207 26.1294 269.424 26.7818Z" fill="#C0B5F5"/>
<path d="M235.067 33.7402C234.632 34.1751 234.414 34.3926 234.197 34.61C233.327 33.9577 234.197 33.9577 235.067 33.7402Z" fill="#C0B5F5"/>
<path d="M313.567 34.3929C313.35 34.6104 313.35 34.6104 313.132 34.8278C312.915 34.6104 312.915 34.3929 312.698 34.1755C312.698 34.1755 312.915 33.958 313.132 33.958C313.35 33.958 313.35 34.1755 313.567 34.3929Z" fill="#C0B5F5"/>
<path d="M232.022 35.4798C231.805 35.4798 231.587 35.2623 231.37 35.0448C231.587 35.0448 231.587 34.8274 231.805 34.8274C232.022 34.8274 232.24 35.0448 232.457 35.0448C232.457 35.2623 232.24 35.4798 232.022 35.4798Z" fill="#C0B5F5"/>
<path d="M317.046 35.9147C316.612 35.4798 316.177 35.2623 315.959 35.0449C316.829 34.61 316.829 35.2623 317.046 35.9147Z" fill="#C0B5F5"/>
<path d="M316.829 35.4795C317.264 35.9144 317.699 36.1319 317.916 36.3493C316.829 36.7842 317.046 36.1319 316.829 35.4795Z" fill="#C0B5F5"/>
<path d="M320.091 37.2193C319.873 37.4368 319.873 37.4368 319.656 37.6542C319.439 37.4368 319.439 37.2193 319.221 37.0019C319.221 37.0019 319.439 36.7844 319.656 36.7844C319.656 36.7844 319.873 37.0019 320.091 37.2193Z" fill="#C0B5F5"/>
<path d="M419.032 38.5242C419.249 38.5242 419.467 38.7416 419.684 38.9591C419.467 38.9591 419.467 39.1765 419.249 39.1765C419.032 39.1765 418.814 38.9591 418.597 38.9591C418.814 38.7416 418.814 38.7416 419.032 38.5242Z" fill="#C0B5F5"/>
<path d="M420.119 41.1335C420.337 41.351 420.337 41.5684 420.554 41.7859C420.554 41.7859 420.337 42.0034 420.119 42.0034C419.902 41.7859 419.902 41.5685 419.684 41.351C419.902 41.351 420.119 41.351 420.119 41.1335Z" fill="#C0B5F5"/>
<path d="M535.587 70.2722C535.804 70.0548 535.804 69.8373 536.022 69.6199C536.239 69.6199 536.456 69.8373 536.456 69.8373C536.456 70.0548 536.239 70.2722 536.022 70.4897C535.804 70.4897 535.804 70.4897 535.587 70.2722Z" fill="#C0B5F5"/>
<path d="M539.283 76.1436C539.501 76.361 539.501 76.5785 539.718 76.7959C539.718 76.7959 539.501 77.0134 539.283 77.0134C539.066 76.7959 539.066 76.5785 538.849 76.361C538.849 76.361 539.066 76.361 539.283 76.1436Z" fill="#C0B5F5"/>
<path d="M41.0986 77.4481C41.3161 77.2306 41.3161 77.2306 41.5335 77.0132C41.751 77.2306 41.751 77.4481 41.9684 77.6655C41.9684 77.6655 41.751 77.883 41.5335 77.883C41.3161 77.883 41.3161 77.6655 41.0986 77.4481Z" fill="#C0B5F5"/>
<path d="M23.4849 85.9286C23.2675 86.146 23.2675 86.146 23.05 86.3635C22.8326 86.146 22.8326 85.9286 22.6151 85.7111C22.6151 85.7111 22.8326 85.4937 23.05 85.4937C23.2675 85.7111 23.4849 85.9286 23.4849 85.9286Z" fill="#C0B5F5"/>
<path d="M10.4379 87.4506C10.8728 87.0157 11.0902 86.7983 11.3077 86.5808C12.1775 87.2332 11.3077 87.2332 10.4379 87.4506Z" fill="#C0B5F5"/>
<path d="M12.1775 96.584C12.3949 96.584 12.6124 96.8014 12.8298 97.0189C12.6124 97.0189 12.6124 97.2363 12.3949 97.2363C12.1775 97.2363 11.96 97.0189 11.7426 97.0189C11.96 96.8014 11.96 96.8014 12.1775 96.584Z" fill="#C0B5F5"/>
<path d="M25.6595 114.633C26.0945 115.067 26.5294 115.285 26.7468 115.502C25.877 116.155 25.877 115.285 25.6595 114.633Z" fill="#C0B5F5"/>
<path d="M297.476 128.114C297.041 127.679 296.606 127.462 296.388 127.245C297.476 126.592 297.258 127.245 297.476 128.114Z" fill="#C0B5F5"/>
<path d="M33.4878 132.464C33.0529 132.464 32.8354 132.464 32.4005 132.464C32.4005 132.029 32.4005 131.594 33.0529 131.811C33.2703 131.811 33.2703 132.246 33.4878 132.464Z" fill="#C0B5F5"/>
<path d="M23.4849 143.771C23.2675 143.989 23.2675 144.206 23.05 144.424C22.8326 144.424 22.6151 144.206 22.6151 144.206C22.6151 143.989 22.8326 143.771 23.05 143.554C23.2675 143.554 23.4849 143.554 23.4849 143.771Z" fill="#C0B5F5"/>
<path d="M283.341 143.119C283.776 143.554 284.211 143.771 284.429 143.988C283.341 144.641 283.559 143.988 283.341 143.119Z" fill="#C0B5F5"/>
<path d="M155.914 145.511C155.479 145.076 155.044 144.858 154.826 144.641C155.696 144.206 155.479 144.858 155.914 145.511Z" fill="#C0B5F5"/>
<path d="M151.782 149.86C151.565 149.643 151.565 149.643 151.347 149.425C151.565 149.425 151.782 149.208 152 149.208C152 149.208 152.217 149.425 152.434 149.425C152.217 149.643 152 149.643 151.782 149.86Z" fill="#C0B5F5"/>
<path d="M146.998 149.86C147.433 149.86 148.085 149.86 147.868 150.512C147.868 150.73 147.216 150.73 146.998 150.73C146.998 150.512 146.998 150.295 146.998 149.86Z" fill="#C0B5F5"/>
<path d="M21.3105 152.252C21.093 152.469 21.093 152.469 20.8756 152.687C20.6581 152.469 20.6581 152.252 20.4407 152.034C20.4407 152.034 20.6581 151.817 20.8756 151.817C21.093 152.034 21.3105 152.252 21.3105 152.252Z" fill="#C0B5F5"/>
<path d="M149.39 156.166C148.955 156.601 148.738 156.818 148.52 157.036C147.868 156.383 148.738 156.383 149.39 156.166Z" fill="#C0B5F5"/>
<path d="M136.125 168.996C135.908 169.213 135.908 169.213 135.691 169.431C135.473 169.213 135.473 168.996 135.256 168.779C135.256 168.779 135.473 168.561 135.691 168.561C135.908 168.561 135.908 168.778 136.125 168.996Z" fill="#C0B5F5"/>
<path d="M175.267 181.173C174.615 181.173 174.18 180.956 174.18 180.303C174.615 180.303 174.832 180.303 175.267 180.303C175.267 180.521 175.267 180.956 175.267 181.173Z" fill="#C0B5F5"/>
<path d="M303.782 34.3929C303.564 34.6104 303.564 34.6104 303.347 34.8278C303.13 34.6104 303.13 34.3929 302.912 34.1755C302.912 34.1755 303.13 33.958 303.347 33.958C303.564 33.958 303.564 34.1755 303.782 34.3929Z" fill="#C0B5F5"/>
</svg>
