<svg width="957" height="309" viewBox="0 0 957 309" fill="none" xmlns="http://www.w3.org/2000/svg">
<path fill-rule="evenodd" clip-rule="evenodd" d="M618.906 31.0998C620.706 32.0598 622.881 32.5398 625.431 32.5398C627.111 32.5398 628.611 32.3148 629.931 31.8648C631.281 31.4148 632.421 30.7848 633.351 29.9748C634.281 29.1648 634.986 28.1748 635.466 27.0048C635.976 25.8348 636.231 24.5298 636.231 23.0898C636.231 20.7498 635.541 18.8748 634.161 17.4648C632.781 16.0548 630.546 15.0048 627.456 14.3148L624.891 13.7298C622.911 13.2798 621.426 12.6798 620.436 11.9298C619.476 11.1498 618.996 10.0098 618.996 8.50981C618.996 6.79981 619.566 5.5248 620.706 4.6848C621.876 3.8148 623.466 3.3798 625.476 3.3798C627.306 3.3798 628.836 3.7248 630.066 4.4148C631.296 5.1048 632.346 6.04981 633.216 7.24981L636.051 5.17981C634.881 3.49981 633.441 2.22481 631.731 1.3548C630.051 0.484805 628.026 0.0498047 625.656 0.0498047C624.126 0.0498047 622.716 0.244804 621.426 0.634805C620.166 0.994804 619.071 1.5348 618.141 2.25481C617.241 2.97481 616.536 3.87481 616.026 4.95481C615.516 6.03481 615.261 7.2648 615.261 8.6448C615.261 11.0748 616.011 12.9648 617.511 14.3148C619.041 15.6348 621.246 16.6248 624.126 17.2848L626.691 17.8698C628.761 18.3498 630.246 18.9948 631.146 19.8048C632.046 20.6148 632.496 21.7698 632.496 23.2698C632.496 25.0698 631.896 26.5098 630.696 27.5898C629.526 28.6698 627.816 29.2098 625.566 29.2098C623.736 29.2098 622.146 28.8348 620.796 28.0848C619.446 27.3048 618.216 26.1798 617.106 24.7098L614.316 27.0498C615.576 28.7598 617.106 30.1098 618.906 31.0998ZM560.185 0.589806H570.715C572.665 0.589806 574.435 0.919805 576.025 1.5798C577.615 2.2398 578.965 3.2298 580.075 4.54981C581.215 5.83981 582.085 7.4748 582.685 9.4548C583.285 11.4048 583.585 13.6848 583.585 16.2948C583.585 18.9048 583.285 21.1998 582.685 23.1798C582.085 25.1298 581.215 26.7648 580.075 28.0848C578.965 29.3748 577.615 30.3498 576.025 31.0098C574.435 31.6698 572.665 31.9998 570.715 31.9998H560.185V0.589806ZM570.715 28.6698C572.005 28.6698 573.19 28.4598 574.27 28.0398C575.35 27.5898 576.28 26.9448 577.06 26.1048C577.84 25.2648 578.44 24.2448 578.86 23.0448C579.31 21.8148 579.535 20.4198 579.535 18.8598V13.7298C579.535 12.1698 579.31 10.7898 578.86 9.5898C578.44 8.3598 577.84 7.32481 577.06 6.48481C576.28 5.6448 575.35 5.0148 574.27 4.5948C573.19 4.1448 572.005 3.91981 570.715 3.91981H563.965V28.6698H570.715ZM590.375 31.9998V0.589806H609.545V3.91981H594.155V14.4498H608.646V17.7798H594.155V28.6698H609.545V31.9998H590.375ZM641.273 31.9998V28.8498H645.683V3.73981H641.273V0.589806H653.873V3.73981H649.463V28.8498H653.873V31.9998H641.273ZM680.981 27.4098H681.116V31.9998H684.626V15.8448H674.006V19.1748H680.936V22.2798C680.936 23.4498 680.726 24.4698 680.306 25.3398C679.886 26.1798 679.301 26.8848 678.551 27.4548C677.831 28.0248 676.976 28.4598 675.986 28.7598C675.026 29.0298 674.006 29.1648 672.926 29.1648C671.426 29.1648 670.076 28.9248 668.876 28.4448C667.676 27.9348 666.656 27.2298 665.816 26.3298C665.006 25.4298 664.376 24.3498 663.926 23.0898C663.476 21.7998 663.251 20.3748 663.251 18.8148V13.7298C663.251 12.1698 663.476 10.7598 663.926 9.49981C664.376 8.23981 665.006 7.1598 665.816 6.2598C666.656 5.3598 667.646 4.6698 668.786 4.18981C669.926 3.6798 671.186 3.4248 672.566 3.4248C674.546 3.4248 676.241 3.9048 677.651 4.8648C679.091 5.8248 680.171 7.14481 680.891 8.82481L683.996 6.9348C682.976 4.8648 681.521 3.1998 679.631 1.9398C677.741 0.679804 675.386 0.0498047 672.566 0.0498047C670.556 0.0498047 668.726 0.409805 667.076 1.1298C665.426 1.8498 664.016 2.8998 662.846 4.2798C661.676 5.6298 660.776 7.32481 660.146 9.36481C659.516 11.3748 659.201 13.6848 659.201 16.2948C659.201 18.9348 659.516 21.2748 660.146 23.3148C660.806 25.3248 661.706 27.0198 662.846 28.3998C663.986 29.7498 665.351 30.7848 666.941 31.5048C668.561 32.1948 670.331 32.5398 672.251 32.5398C674.651 32.5398 676.601 32.0598 678.101 31.0998C679.631 30.1098 680.591 28.8798 680.981 27.4098ZM699.67 12.8298L695.89 5.8548H695.755V31.9998H692.065V0.589806H696.43L707.905 19.7598L711.685 26.7348H711.82V0.589806H715.51V31.9998H711.145L699.67 12.8298ZM576.745 85.6598C577.255 85.1498 577.675 84.6998 578.005 84.3098L581.38 87.9998H586.06L579.94 81.4748C580.45 80.4848 580.885 79.4198 581.245 78.2798C581.605 77.1098 581.89 75.8648 582.1 74.5448H585.295V71.4848H579.175C579.115 72.8348 578.965 74.1548 578.725 75.4448C578.485 76.7348 578.14 77.9498 577.69 79.0898L570.625 71.4848C571.615 70.9448 572.545 70.3898 573.415 69.8198C574.285 69.2198 575.05 68.5748 575.71 67.8848C576.37 67.1948 576.88 66.4448 577.24 65.6348C577.63 64.7948 577.825 63.8498 577.825 62.7998C577.825 61.8098 577.63 60.8948 577.24 60.0548C576.88 59.2148 576.37 58.5098 575.71 57.9398C575.05 57.3398 574.255 56.8748 573.325 56.5448C572.395 56.2148 571.375 56.0498 570.265 56.0498C569.035 56.0498 567.91 56.2448 566.89 56.6348C565.9 57.0248 565.045 57.5648 564.325 58.2548C563.635 58.9148 563.095 59.7098 562.705 60.6398C562.315 61.5698 562.12 62.5598 562.12 63.6098C562.12 65.0198 562.435 66.3248 563.065 67.5248C563.725 68.6948 564.595 69.8498 565.675 70.9898C564.865 71.4398 564.07 71.9348 563.29 72.4748C562.54 73.0148 561.85 73.6448 561.22 74.3648C560.62 75.0548 560.14 75.8498 559.78 76.7498C559.42 77.6498 559.24 78.6848 559.24 79.8548C559.24 81.0548 559.45 82.1798 559.87 83.2298C560.29 84.2798 560.905 85.2098 561.715 86.0198C562.525 86.7998 563.53 87.4148 564.73 87.8648C565.93 88.3148 567.31 88.5398 568.87 88.5398C570.13 88.5398 571.255 88.3898 572.245 88.0898C573.265 87.7898 574.135 87.4298 574.855 87.0098C575.605 86.5898 576.235 86.1398 576.745 85.6598ZM566.89 60.2798C567.73 59.4698 568.795 59.0648 570.085 59.0648C571.225 59.0648 572.215 59.3948 573.055 60.0548C573.925 60.7148 574.36 61.6598 574.36 62.8898V63.4298C574.36 64.0598 574.195 64.6598 573.865 65.2298C573.535 65.7698 573.1 66.2948 572.56 66.8048C572.05 67.3148 571.45 67.7948 570.76 68.2448C570.1 68.6648 569.41 69.0698 568.69 69.4598C567.79 68.4398 567.055 67.4798 566.485 66.5798C565.945 65.6498 565.675 64.7348 565.675 63.8348V63.2948C565.675 62.0948 566.08 61.0898 566.89 60.2798ZM573.145 84.5348C572.035 85.1048 570.715 85.3898 569.185 85.3898C567.295 85.3898 565.78 84.9098 564.64 83.9498C563.53 82.9898 562.975 81.6848 562.975 80.0348V79.3598C562.975 78.4898 563.095 77.7398 563.335 77.1098C563.605 76.4498 563.95 75.8798 564.37 75.3998C564.79 74.8898 565.27 74.4548 565.81 74.0948C566.38 73.7348 566.965 73.3898 567.565 73.0598L575.98 82.1498C575.2 83.1398 574.255 83.9348 573.145 84.5348ZM613.135 88.5398C609.145 88.5398 606.04 87.1898 603.82 84.4898C601.6 81.7598 600.49 77.7548 600.49 72.4748C600.49 67.1948 601.6 63.1448 603.82 60.3248C606.04 57.4748 609.145 56.0498 613.135 56.0498C615.775 56.0498 617.98 56.6498 619.75 57.8498C621.55 59.0498 622.945 60.7448 623.935 62.9348L620.875 64.7798C620.245 63.1598 619.285 61.8698 617.995 60.9098C616.705 59.9198 615.085 59.4248 613.135 59.4248C611.785 59.4248 610.57 59.6798 609.49 60.1898C608.44 60.6998 607.54 61.4348 606.79 62.3948C606.07 63.3248 605.515 64.4498 605.125 65.7698C604.735 67.0598 604.54 68.5148 604.54 70.1348V74.8148C604.54 78.0548 605.29 80.5898 606.79 82.4198C608.29 84.2498 610.405 85.1648 613.135 85.1648C615.145 85.1648 616.825 84.6548 618.175 83.6348C619.525 82.5848 620.515 81.2048 621.145 79.4948L624.16 81.3848C623.17 83.6048 621.745 85.3598 619.885 86.6498C618.025 87.9098 615.775 88.5398 613.135 88.5398ZM635.653 87.5048C637.303 88.1948 639.148 88.5398 641.188 88.5398C643.198 88.5398 645.028 88.1948 646.678 87.5048C648.328 86.7848 649.723 85.7498 650.863 84.3998C652.033 83.0198 652.933 81.3248 653.563 79.3148C654.193 77.2748 654.508 74.9348 654.508 72.2948C654.508 69.6548 654.193 67.3298 653.563 65.3198C652.933 63.3098 652.033 61.6148 650.863 60.2348C649.723 58.8548 648.328 57.8198 646.678 57.1298C645.028 56.4098 643.198 56.0498 641.188 56.0498C639.148 56.0498 637.303 56.4098 635.653 57.1298C634.033 57.8198 632.638 58.8548 631.468 60.2348C630.328 61.6148 629.443 63.3098 628.813 65.3198C628.183 67.3298 627.868 69.6548 627.868 72.2948C627.868 74.9348 628.183 77.2748 628.813 79.3148C629.443 81.3248 630.328 83.0198 631.468 84.3998C632.638 85.7498 634.033 86.7848 635.653 87.5048ZM644.923 84.4448C643.783 84.9248 642.538 85.1648 641.188 85.1648C639.838 85.1648 638.593 84.9248 637.453 84.4448C636.313 83.9648 635.323 83.2748 634.483 82.3748C633.673 81.4748 633.043 80.3948 632.593 79.1348C632.143 77.8748 631.918 76.4648 631.918 74.9048V69.6848C631.918 68.1248 632.143 66.7148 632.593 65.4548C633.043 64.1948 633.673 63.1148 634.483 62.2148C635.323 61.3148 636.313 60.6248 637.453 60.1448C638.593 59.6648 639.838 59.4248 641.188 59.4248C642.538 59.4248 643.783 59.6648 644.923 60.1448C646.063 60.6248 647.038 61.3148 647.848 62.2148C648.688 63.1148 649.333 64.1948 649.783 65.4548C650.233 66.7148 650.458 68.1248 650.458 69.6848V74.9048C650.458 76.4648 650.233 77.8748 649.783 79.1348C649.333 80.3948 648.688 81.4748 647.848 82.3748C647.038 83.2748 646.063 83.9648 644.923 84.4448ZM17.8773 202.16L17.878 202.159L17.8801 202.158C21.3242 199.753 24.7683 197.349 28.2773 194.88C28.6673 194.62 29.1222 194.49 29.5772 194.36L29.5773 194.36C30.0323 194.23 30.4873 194.1 30.8773 193.84C31.9173 194.36 32.9573 194.88 33.7373 195.66C54.0173 214.12 84.6973 222.44 111.217 217.76C117.717 216.46 125.257 213.86 130.977 210.48C134.877 208.14 137.477 204.76 139.297 200.86C142.417 193.32 135.137 181.1 128.117 178.76C118.497 175.12 106.537 172.78 95.8773 172.26C84.9573 171.74 73.7773 170.96 62.8573 169.4C52.7173 168.1 42.8373 165.76 33.7373 161.34C17.8773 153.28 9.55731 138.72 8.77731 121.3C7.73731 104.92 15.5373 91.6598 28.5373 82.5598C38.4173 75.5398 48.8173 70.3398 60.7773 67.7398C89.1173 61.4998 125.517 63.8398 150.477 81.5198C153.337 83.5998 155.872 85.6798 158.407 87.7598C160.942 89.8398 163.477 91.9198 166.337 93.9998C167.897 95.0398 169.197 96.3398 169.977 98.4198C170.237 98.9398 170.237 99.9798 169.717 100.5C169.457 101.02 168.937 101.54 168.677 101.8C168.162 102.251 167.152 103.18 165.841 104.387L165.839 104.389L165.835 104.392L165.831 104.397L165.83 104.397C161.848 108.063 155.101 114.273 150.997 117.4C146.317 121.04 145.277 121.04 140.857 117.92C138.163 116.273 135.21 114.11 132.296 111.975C130.149 110.401 128.023 108.844 126.037 107.52C119.277 103.36 109.137 100.24 101.077 98.6798C92.4973 96.8598 81.8373 97.8998 73.2573 99.4598C65.9773 100.76 55.5773 104.66 50.3773 110.64C44.9173 116.88 44.3973 127.02 52.4573 131.7C60.0939 136.097 69.3783 136.786 78.1105 137.434L78.1174 137.435L78.1179 137.435H78.1182C79.1944 137.515 80.2621 137.594 81.3173 137.68C84.0384 137.907 86.741 138.115 89.4261 138.322L89.4304 138.322C111.373 140.012 132.145 141.613 152.297 152.5C169.977 161.86 178.297 179.54 176.737 199.3C176.477 203.98 175.177 208.14 172.837 212.3C172.027 213.707 171.259 215.086 170.506 216.437C166.67 223.325 163.238 229.486 156.717 234.92C155.157 236.22 153.337 237.52 151.257 238.56C143.977 242.46 136.437 246.36 128.377 248.96C126.817 249.48 123.957 250.26 122.137 250.52C110.437 252.6 98.4773 253.9 86.5173 253.12C58.9573 251.04 37.1173 242.46 13.4573 229.2C11.8586 228.182 9.77241 226.434 7.78915 224.772L7.7887 224.771C6.22422 223.46 4.72382 222.202 3.57731 221.4C-0.322687 218.8 -0.322687 216.72 3.05731 213.34C4.35731 212.04 5.91731 210.48 7.47731 209.44C10.9873 206.97 14.4323 204.565 17.8773 202.16ZM286.901 176.72L286.9 176.72C281.435 176.545 276.239 176.379 271.524 176.42C268.144 176.68 238.504 176.68 234.864 176.68C234.604 178.24 235.124 233.1 235.384 237.26C235.644 240.12 235.644 242.98 235.644 245.58C235.644 249.22 235.644 250 233.044 250C232.285 250.108 227.821 250.036 222.665 249.952C215.454 249.835 206.891 249.697 205.224 250C200.804 250.52 199.244 248.7 199.244 244.54C199.374 238.43 199.374 213.601 199.374 188.543C199.374 163.486 199.374 138.2 199.504 131.18C199.504 124.68 199.244 118.18 198.724 111.68C198.236 107.292 198.256 102.905 198.277 98.5172C198.289 95.8847 198.301 93.2523 198.204 90.6198C198.204 88.6937 198.174 86.7971 198.145 84.9201V84.9199V84.9197V84.9195V84.9193V84.9191V84.9189V84.9187V84.9185C198.087 81.2217 198.031 77.6007 198.204 73.9798C198.204 70.3398 198.984 68.2598 202.884 68.2598H234.344C242.104 68.8141 272.189 68.5805 295.573 68.399C305.093 68.3251 313.503 68.2598 318.844 68.2598C331.324 68.2598 344.584 71.3798 354.464 79.4398C365.644 88.2798 370.064 104.14 371.624 117.66C372.924 128.84 370.064 137.94 366.164 148.34C354.52 178.878 316.7 177.671 286.901 176.72ZM235.384 101.54L235.384 101.54C235.384 114.836 235.626 127.891 235.876 141.404L235.904 142.88C236.499 142.979 236.981 143.078 237.393 143.163L237.393 143.163L237.394 143.163L237.394 143.163C238.06 143.301 238.542 143.4 239.024 143.4C243.05 143.53 247.011 143.66 250.973 143.789C254.941 143.92 258.91 144.05 262.944 144.18C263.854 144.18 264.764 144.115 265.674 144.05C266.584 143.985 267.494 143.92 268.404 143.92C272.564 143.66 276.724 143.4 281.144 143.4H299.864C306.624 143.14 313.384 142.88 320.144 141.84C328.984 140.28 333.924 136.64 337.044 128.84C338.604 124.42 338.084 117.66 336.004 113.76C332.364 106.74 327.164 102.84 318.844 101.54C317.674 101.41 316.438 101.215 315.203 101.02C313.968 100.825 312.734 100.63 311.564 100.5C305.584 100.24 299.344 100.24 293.364 100.24H250.464C248.644 100.37 246.889 100.37 245.134 100.37C243.379 100.37 241.624 100.37 239.804 100.5C238.504 100.5 236.944 101.02 235.384 101.54ZM543.19 241.683L543.189 241.68C542.474 239.99 541.759 238.3 540.979 236.74C540.369 235.317 539.759 233.898 539.15 232.482L539.145 232.47C535.085 223.025 531.075 213.699 527.459 203.98C523.888 194.673 520.226 185.952 516.606 177.328L516.606 177.328L516.605 177.325L516.605 177.324L516.604 177.324C511.528 165.231 506.532 153.331 501.979 140.28C499.842 134.135 496.812 127.234 493.807 120.39C490.963 113.914 488.142 107.488 486.119 101.8C483.775 94.9349 480.892 88.1778 478.025 81.459C476.44 77.7448 474.86 74.0423 473.379 70.3398C473.119 70.0798 472.339 69.0398 471.819 68.2598C467.659 68.2598 464.019 68.2598 459.339 68.5198H446.079V68.2598H437.759C436.362 68.4344 435.082 68.3744 433.84 68.3162L433.84 68.3162C433.233 68.2878 432.636 68.2598 432.039 68.2598C429.439 68.5198 427.359 71.8998 426.319 73.9798C425.539 75.2798 412.799 104.14 409.939 111.16C409.14 113.114 407.62 116.858 405.595 121.845C395.768 146.052 374.058 199.53 365.219 219.58C361.319 227.9 358.459 234.66 355.079 243.24C353.259 248.44 354.039 249.74 359.239 250H373.279H391.739C392.779 250 393.559 249.48 393.819 248.7C396.169 243.505 398.931 236.722 401.712 229.89L401.713 229.89L401.713 229.888L401.713 229.888C404.779 222.358 407.869 214.768 410.459 209.18C411.499 209.05 413.839 209.115 416.179 209.18C418.519 209.245 420.859 209.31 421.899 209.18C424.383 209.049 437.716 209.116 450.822 209.181C463.777 209.246 476.51 209.309 478.319 209.18C481.179 209.18 484.559 209.18 487.159 210.22C487.289 210.48 487.484 210.675 487.679 210.87C487.874 211.065 488.069 211.26 488.199 211.52C490.398 216.357 493.092 224.003 495.676 231.337L495.677 231.339L495.678 231.343L495.68 231.348C497.679 237.02 499.612 242.505 501.199 246.36C501.388 246.738 501.55 247.083 501.697 247.397C502.56 249.24 502.915 250 505.359 250C506.219 250 507.892 250.014 510.052 250.033C517.034 250.094 529.103 250.198 535.259 250H540.459C544.099 250 546.699 249.48 545.399 246.62C544.62 245.061 543.905 243.373 543.191 241.684L543.19 241.683ZM477.019 177.2H475.719C473.899 177.46 425.539 177.46 422.679 177.2C421.639 176.94 420.859 176.16 421.119 175.12C423.347 169.625 424.387 167.438 425.305 165.507C425.995 164.058 426.616 162.752 427.619 160.3C427.738 159.995 427.894 159.596 428.083 159.112C431.599 150.112 446.564 111.802 450.759 104.4C453.717 112.486 457.386 121.806 461.156 131.381L461.157 131.384L461.16 131.392L461.161 131.394L461.161 131.395L461.162 131.397L461.163 131.399C467.33 147.066 473.766 163.415 477.799 176.16C478.059 176.68 477.799 177.2 477.019 177.2ZM768.208 130.68C768.036 132.057 768.091 133.32 768.149 134.619C768.178 135.283 768.208 135.957 768.208 136.66V188.14C768.208 194.014 768.179 199.917 768.15 205.839V205.847C768.093 217.747 768.034 229.723 768.208 241.7C768.208 244.268 768.271 246.837 768.336 249.436C768.401 252.1 768.468 254.797 768.468 257.56C768.62 261.051 768.572 266.802 768.519 273.196V273.198V273.2V273.201C768.391 288.711 768.231 308 770.808 308C770.863 308 771.199 307.997 771.763 307.992H771.767C776.506 307.951 797.297 307.768 803.568 308C806.948 308 806.948 303.32 806.948 300.2C806.692 294.191 806.499 288.244 806.308 282.33C806.109 276.217 805.912 270.139 805.648 264.06C805.388 261.46 806.168 259.64 807.988 258.08L810.328 255.74C815.3 250.895 820.336 246.05 825.403 241.174C830.668 236.107 835.968 231.007 841.268 225.84C841.615 225.494 842.192 225.147 842.77 224.8L842.77 224.8C843.059 224.627 843.348 224.453 843.608 224.28C844.165 224.837 844.573 225.32 844.952 225.768C845.28 226.156 845.586 226.518 845.948 226.88C848.954 230.744 856.214 239.494 862.741 247.359C868.071 253.783 872.912 259.616 874.548 261.72C880.524 269.076 886.05 276.522 891.602 284.005C895.47 289.218 899.351 294.449 903.408 299.68C906.008 303.06 910.688 307.74 915.108 308C922.835 308.176 931.867 308.114 940.441 308.056C944.561 308.027 948.575 308 952.288 308C952.633 307.943 952.991 307.911 953.347 307.879C954.602 307.766 955.84 307.655 956.448 306.44C957.288 304.761 956.093 303.759 955.055 302.888C954.807 302.681 954.568 302.48 954.368 302.28C948.243 295.456 941.53 286.747 935.258 278.611C932.211 274.658 929.268 270.841 926.548 267.44C920.758 260.343 908.261 243.99 900.62 233.991C897.623 230.069 895.374 227.125 894.568 226.1C891.578 222.07 888.198 218.04 884.818 214.01C881.438 209.98 878.058 205.95 875.068 201.92C874.872 201.675 874.658 201.44 874.443 201.203C873.514 200.183 872.566 199.14 872.988 197.24C873.248 196.72 873.768 196.2 874.287 195.68L874.288 195.68C877.668 192.56 880.99 189.382 884.312 186.205L884.313 186.203C890.958 179.848 897.602 173.493 904.708 167.6C907.715 165.056 914.169 158.704 921.004 151.978L921.005 151.976L921.007 151.975L921.01 151.972C929.538 143.58 938.656 134.606 942.408 131.72C943.188 131.2 943.708 130.68 943.968 130.16C944.197 129.587 944.427 129.367 944.589 129.212C944.795 129.015 944.893 128.921 944.748 128.34C944.748 126.78 943.188 126.26 942.148 126.26C931.748 126.52 901.588 126.52 897.948 126.26C894.485 126.26 893.846 126.966 891.554 129.497L891.549 129.502C891.433 129.63 891.313 129.762 891.188 129.9C883.094 138.657 864.304 156.08 846.562 172.53L846.562 172.53C829.537 188.316 813.479 203.205 808.768 208.68C808.248 209.46 807.468 210.24 806.688 210.76C806.493 210.89 806.315 211.052 806.136 211.215L806.135 211.215C805.599 211.703 805.063 212.19 804.088 211.8C803.985 211.595 803.842 211.43 803.707 211.274C803.499 211.035 803.308 210.815 803.308 210.5C803.308 205.017 803.536 192.157 803.746 180.352L803.746 180.34L803.746 180.328L803.746 180.317L803.746 180.31C803.924 170.302 804.088 161.058 804.088 157.72C804.348 150.44 804.348 143.16 804.348 135.88C804.348 129.12 804.088 126.78 796.808 126.26C790.247 125.85 783.685 126.087 776.869 126.333C775.042 126.399 773.196 126.465 771.328 126.52C769.248 127.3 768.208 128.86 768.208 130.68ZM748.452 302.153L748.452 302.153L748.45 302.15C747.995 301.5 747.54 300.85 747.15 300.2C745.2 297.34 743.185 294.48 741.17 291.62C739.155 288.76 737.14 285.9 735.19 283.04C732.366 278.973 729.934 274.857 727.512 270.756C724.358 265.419 721.22 260.106 717.25 254.96C715.648 252.776 714.027 250.613 712.407 248.453C708.243 242.897 704.094 237.363 700.35 231.56C713.35 227.66 724.27 220.38 729.47 206.34C733.37 196.2 736.23 186.84 734.93 175.66C733.37 162.14 728.95 146.28 717.77 137.44C707.89 129.38 694.63 126.52 682.15 126.52C676.81 126.52 668.404 126.564 658.887 126.613L658.884 126.613H658.882H658.88C635.495 126.734 605.411 126.89 597.65 126.52C588.55 126.52 568.79 126.52 566.19 126.26C562.29 126.26 561.51 128.34 561.51 131.98C561.336 135.629 561.395 139.393 561.453 143.119V143.122V143.127V143.133V143.138C561.481 144.982 561.51 146.815 561.51 148.62C561.607 151.253 561.595 153.885 561.583 156.518C561.563 160.905 561.542 165.293 562.03 169.68C562.55 176.18 562.81 182.68 562.81 189.44C562.68 196.33 562.68 221.55 562.68 246.575C562.68 271.6 562.68 296.43 562.55 302.54C562.55 306.96 564.11 308.52 568.53 308C569.969 307.869 576.876 307.936 583.647 308.001H583.651H583.652H583.653C590.332 308.066 596.877 308.129 597.91 308C600.232 308 600.273 307.378 600.44 304.838C600.46 304.533 600.482 304.202 600.51 303.84C600.51 300.98 600.25 298.12 599.99 295.52C599.73 291.88 599.47 252.62 599.47 239.36C599.47 236.76 601.55 234.68 603.89 234.68H634.83C639.984 234.489 645.559 234.719 651.348 234.957L651.349 234.957L651.35 234.957L651.351 234.957L651.352 234.957C653.447 235.044 655.569 235.131 657.71 235.2C658.553 236.35 659.397 237.523 660.247 238.705L660.248 238.707L660.253 238.714C662.284 241.537 664.352 244.413 666.55 247.16C670.862 253.22 674.912 259.227 678.959 265.229C683.941 272.619 688.918 280 694.37 287.46C696.536 290.349 698.703 293.639 700.869 296.929L700.87 296.929C702.603 299.561 704.337 302.193 706.07 304.62C707.89 306.96 710.49 308 713.61 308H717.51C722.201 308.162 724.376 308.122 727.291 308.069C729.061 308.037 731.104 308 734.15 308C736.618 308.176 739.924 308.114 743.013 308.055C744.478 308.027 745.895 308 747.15 308C749.49 308 750.79 306.18 749.75 304.1C749.361 303.451 748.906 302.802 748.452 302.153ZM644.45 201.4C642.206 201.4 640.03 201.534 637.886 201.666C635.807 201.794 633.758 201.92 631.71 201.92C629.89 202.18 628.07 202.18 626.25 202.18C622.22 202.05 618.255 201.92 614.29 201.79C610.325 201.66 606.36 201.53 602.33 201.4C601.848 201.4 601.366 201.301 600.7 201.164C600.288 201.079 599.806 200.979 599.21 200.88L599.162 198.325L599.12 196.079L599.12 196.072C598.893 184.038 598.69 173.252 598.69 160.84C599.252 160.746 599.815 160.619 600.365 160.494C601.341 160.273 602.279 160.06 603.11 160.06C606.75 159.8 610.13 159.8 613.77 159.8C620.92 159.8 628.07 159.735 635.22 159.67C642.37 159.605 649.52 159.54 656.67 159.54C662.65 159.54 668.89 159.8 674.87 160.06C677.21 160.06 679.81 160.58 682.15 161.1C690.47 162.4 695.67 164.74 699.31 171.76C701.39 175.66 701.91 183.98 700.35 188.14C697.23 196.2 692.29 199.84 683.45 201.14C679.225 201.953 675 201.749 670.775 201.546C668.24 201.424 665.705 201.303 663.17 201.4C659.01 201.573 654.85 201.516 650.69 201.458C648.61 201.429 646.53 201.4 644.45 201.4Z" fill="black"/>
</svg>
