<svg width="786" height="569" viewBox="0 0 786 569" fill="none" xmlns="http://www.w3.org/2000/svg">
<g filter="url(#filter0_d_267_167)">
<rect y="142" width="771" height="412" rx="30" fill="#FCFCFC"/>
<rect x="1" y="143" width="769" height="410" rx="29" stroke="black" stroke-width="2"/>
</g>
<line y1="271.5" x2="771" y2="271.5" stroke="#B6B6B6"/>
<path d="M65.7273 224H55.8693V194.909H65.9261C68.8144 194.909 71.2955 195.491 73.3693 196.656C75.4527 197.812 77.053 199.473 78.1705 201.642C79.2879 203.811 79.8466 206.405 79.8466 209.426C79.8466 212.456 79.2831 215.061 78.1562 217.239C77.0388 219.417 75.4242 221.088 73.3125 222.253C71.2102 223.418 68.6818 224 65.7273 224ZM61.1392 219.44H65.4716C67.4981 219.44 69.1884 219.071 70.5426 218.332C71.8968 217.584 72.9148 216.472 73.5966 214.994C74.2784 213.508 74.6193 211.652 74.6193 209.426C74.6193 207.201 74.2784 205.354 73.5966 203.886C72.9148 202.409 71.9063 201.306 70.571 200.577C69.2453 199.838 67.5975 199.469 65.6278 199.469H61.1392V219.44ZM94.2855 224.426C92.098 224.426 90.2088 223.972 88.6179 223.062C87.0365 222.144 85.8196 220.847 84.9673 219.17C84.1151 217.485 83.6889 215.501 83.6889 213.219C83.6889 210.974 84.1151 209.005 84.9673 207.31C85.8291 205.605 87.0317 204.279 88.5753 203.332C90.1188 202.376 91.9323 201.898 94.0156 201.898C95.3603 201.898 96.6293 202.116 97.8224 202.551C99.0251 202.977 100.086 203.64 101.004 204.54C101.932 205.439 102.661 206.585 103.192 207.977C103.722 209.36 103.987 211.008 103.987 212.92V214.497H86.1037V211.031H99.0582C99.0488 210.046 98.8357 209.17 98.419 208.403C98.0024 207.627 97.42 207.016 96.6719 206.571C95.9332 206.126 95.0715 205.903 94.0866 205.903C93.0355 205.903 92.1122 206.159 91.3168 206.67C90.5213 207.172 89.901 207.835 89.456 208.659C89.0204 209.473 88.7978 210.368 88.7884 211.344V214.369C88.7884 215.638 89.0204 216.727 89.4844 217.636C89.9484 218.536 90.5971 219.227 91.4304 219.71C92.2637 220.184 93.2391 220.42 94.3565 220.42C95.1046 220.42 95.7817 220.316 96.3878 220.108C96.9938 219.89 97.5194 219.573 97.9645 219.156C98.4096 218.74 98.7457 218.223 98.973 217.608L103.774 218.148C103.471 219.417 102.893 220.525 102.041 221.472C101.198 222.409 100.119 223.138 98.8026 223.659C97.4863 224.17 95.9806 224.426 94.2855 224.426ZM125.582 207.949L120.894 208.46C120.762 207.987 120.53 207.542 120.198 207.125C119.876 206.708 119.441 206.372 118.891 206.116C118.342 205.861 117.67 205.733 116.874 205.733C115.804 205.733 114.905 205.965 114.175 206.429C113.456 206.893 113.101 207.494 113.11 208.233C113.101 208.867 113.333 209.384 113.806 209.781C114.289 210.179 115.085 210.506 116.192 210.761L119.914 211.557C121.978 212.002 123.513 212.707 124.516 213.673C125.53 214.639 126.041 215.903 126.05 217.466C126.041 218.839 125.638 220.051 124.843 221.102C124.057 222.144 122.963 222.958 121.562 223.545C120.16 224.133 118.55 224.426 116.732 224.426C114.062 224.426 111.912 223.867 110.283 222.75C108.655 221.623 107.684 220.056 107.371 218.048L112.386 217.565C112.613 218.55 113.096 219.294 113.835 219.795C114.573 220.297 115.534 220.548 116.718 220.548C117.94 220.548 118.92 220.297 119.658 219.795C120.406 219.294 120.781 218.673 120.781 217.935C120.781 217.31 120.539 216.794 120.056 216.386C119.583 215.979 118.844 215.667 117.84 215.449L114.119 214.668C112.026 214.232 110.478 213.498 109.474 212.466C108.47 211.424 107.973 210.108 107.982 208.517C107.973 207.172 108.337 206.008 109.076 205.023C109.824 204.028 110.861 203.261 112.187 202.722C113.522 202.172 115.061 201.898 116.803 201.898C119.36 201.898 121.372 202.442 122.84 203.531C124.317 204.62 125.231 206.093 125.582 207.949ZM130.29 224V202.182H135.433V224H130.29ZM132.876 199.085C132.061 199.085 131.361 198.815 130.773 198.276C130.186 197.726 129.893 197.068 129.893 196.301C129.893 195.525 130.186 194.866 130.773 194.327C131.361 193.777 132.061 193.503 132.876 193.503C133.7 193.503 134.4 193.777 134.978 194.327C135.565 194.866 135.859 195.525 135.859 196.301C135.859 197.068 135.565 197.726 134.978 198.276C134.4 198.815 133.7 199.085 132.876 199.085ZM150.209 232.636C148.362 232.636 146.776 232.385 145.45 231.884C144.125 231.391 143.059 230.728 142.254 229.895C141.449 229.062 140.891 228.138 140.578 227.125L145.209 226.003C145.417 226.429 145.72 226.85 146.118 227.267C146.516 227.693 147.051 228.044 147.723 228.318C148.405 228.602 149.262 228.744 150.294 228.744C151.752 228.744 152.96 228.389 153.916 227.679C154.873 226.978 155.351 225.823 155.351 224.213V220.08H155.095C154.83 220.61 154.442 221.154 153.93 221.713C153.429 222.272 152.761 222.741 151.928 223.119C151.104 223.498 150.067 223.688 148.817 223.688C147.141 223.688 145.621 223.295 144.257 222.509C142.903 221.713 141.823 220.529 141.018 218.957C140.223 217.376 139.825 215.397 139.825 213.02C139.825 210.624 140.223 208.602 141.018 206.955C141.823 205.297 142.908 204.043 144.271 203.19C145.635 202.329 147.155 201.898 148.831 201.898C150.109 201.898 151.161 202.116 151.984 202.551C152.818 202.977 153.481 203.493 153.973 204.099C154.465 204.696 154.839 205.259 155.095 205.79H155.379V202.182H160.45V224.355C160.45 226.221 160.005 227.764 159.115 228.986C158.225 230.207 157.008 231.121 155.464 231.727C153.921 232.333 152.169 232.636 150.209 232.636ZM150.251 219.653C151.34 219.653 152.268 219.388 153.036 218.858C153.803 218.328 154.385 217.565 154.783 216.571C155.18 215.577 155.379 214.384 155.379 212.991C155.379 211.618 155.18 210.416 154.783 209.384C154.394 208.351 153.817 207.551 153.05 206.983C152.292 206.405 151.359 206.116 150.251 206.116C149.106 206.116 148.149 206.415 147.382 207.011C146.615 207.608 146.037 208.427 145.649 209.469C145.261 210.501 145.067 211.675 145.067 212.991C145.067 214.327 145.261 215.496 145.649 216.5C146.047 217.494 146.629 218.271 147.396 218.83C148.173 219.379 149.125 219.653 150.251 219.653ZM170.862 211.216V224H165.72V202.182H170.635V205.889H170.891C171.393 204.668 172.193 203.697 173.291 202.977C174.399 202.258 175.768 201.898 177.396 201.898C178.902 201.898 180.214 202.22 181.331 202.864C182.458 203.508 183.329 204.44 183.945 205.662C184.57 206.884 184.877 208.366 184.868 210.108V224H179.726V210.903C179.726 209.445 179.347 208.304 178.589 207.48C177.841 206.656 176.804 206.244 175.479 206.244C174.579 206.244 173.779 206.443 173.078 206.841C172.387 207.229 171.842 207.793 171.445 208.531C171.056 209.27 170.862 210.165 170.862 211.216ZM190.095 224V202.182H195.237V224H190.095ZM192.68 199.085C191.866 199.085 191.165 198.815 190.578 198.276C189.991 197.726 189.697 197.068 189.697 196.301C189.697 195.525 189.991 194.866 190.578 194.327C191.165 193.777 191.866 193.503 192.68 193.503C193.504 193.503 194.205 193.777 194.783 194.327C195.37 194.866 195.663 195.525 195.663 196.301C195.663 197.068 195.37 197.726 194.783 198.276C194.205 198.815 193.504 199.085 192.68 199.085ZM205.667 211.216V224H200.525V202.182H205.44V205.889H205.695C206.197 204.668 206.997 203.697 208.096 202.977C209.204 202.258 210.572 201.898 212.201 201.898C213.707 201.898 215.018 202.22 216.136 202.864C217.263 203.508 218.134 204.44 218.749 205.662C219.374 206.884 219.682 208.366 219.673 210.108V224H214.531V210.903C214.531 209.445 214.152 208.304 213.394 207.48C212.646 206.656 211.609 206.244 210.283 206.244C209.384 206.244 208.584 206.443 207.883 206.841C207.192 207.229 206.647 207.793 206.249 208.531C205.861 209.27 205.667 210.165 205.667 211.216ZM234.388 232.636C232.542 232.636 230.956 232.385 229.63 231.884C228.304 231.391 227.239 230.728 226.434 229.895C225.629 229.062 225.07 228.138 224.758 227.125L229.388 226.003C229.597 226.429 229.9 226.85 230.298 227.267C230.695 227.693 231.23 228.044 231.903 228.318C232.585 228.602 233.442 228.744 234.474 228.744C235.932 228.744 237.139 228.389 238.096 227.679C239.052 226.978 239.531 225.823 239.531 224.213V220.08H239.275C239.01 220.61 238.621 221.154 238.11 221.713C237.608 222.272 236.941 222.741 236.107 223.119C235.283 223.498 234.246 223.688 232.996 223.688C231.32 223.688 229.8 223.295 228.437 222.509C227.083 221.713 226.003 220.529 225.198 218.957C224.403 217.376 224.005 215.397 224.005 213.02C224.005 210.624 224.403 208.602 225.198 206.955C226.003 205.297 227.087 204.043 228.451 203.19C229.815 202.329 231.335 201.898 233.011 201.898C234.289 201.898 235.34 202.116 236.164 202.551C236.997 202.977 237.66 203.493 238.153 204.099C238.645 204.696 239.019 205.259 239.275 205.79H239.559V202.182H244.63V224.355C244.63 226.221 244.185 227.764 243.295 228.986C242.405 230.207 241.188 231.121 239.644 231.727C238.101 232.333 236.349 232.636 234.388 232.636ZM234.431 219.653C235.52 219.653 236.448 219.388 237.215 218.858C237.982 218.328 238.565 217.565 238.962 216.571C239.36 215.577 239.559 214.384 239.559 212.991C239.559 211.618 239.36 210.416 238.962 209.384C238.574 208.351 237.996 207.551 237.229 206.983C236.472 206.405 235.539 206.116 234.431 206.116C233.285 206.116 232.329 206.415 231.562 207.011C230.795 207.608 230.217 208.427 229.829 209.469C229.441 210.501 229.246 211.675 229.246 212.991C229.246 214.327 229.441 215.496 229.829 216.5C230.227 217.494 230.809 218.271 231.576 218.83C232.353 219.379 233.304 219.653 234.431 219.653ZM277.066 207.949L272.379 208.46C272.246 207.987 272.014 207.542 271.683 207.125C271.361 206.708 270.925 206.372 270.376 206.116C269.826 205.861 269.154 205.733 268.359 205.733C267.289 205.733 266.389 205.965 265.66 206.429C264.94 206.893 264.585 207.494 264.594 208.233C264.585 208.867 264.817 209.384 265.29 209.781C265.773 210.179 266.569 210.506 267.677 210.761L271.398 211.557C273.463 212.002 274.997 212.707 276.001 213.673C277.014 214.639 277.525 215.903 277.535 217.466C277.525 218.839 277.123 220.051 276.327 221.102C275.541 222.144 274.448 222.958 273.046 223.545C271.645 224.133 270.035 224.426 268.217 224.426C265.546 224.426 263.397 223.867 261.768 222.75C260.139 221.623 259.168 220.056 258.856 218.048L263.87 217.565C264.097 218.55 264.58 219.294 265.319 219.795C266.058 220.297 267.019 220.548 268.202 220.548C269.424 220.548 270.404 220.297 271.143 219.795C271.891 219.294 272.265 218.673 272.265 217.935C272.265 217.31 272.023 216.794 271.54 216.386C271.067 215.979 270.328 215.667 269.325 215.449L265.603 214.668C263.51 214.232 261.962 213.498 260.958 212.466C259.954 211.424 259.457 210.108 259.467 208.517C259.457 207.172 259.822 206.008 260.56 205.023C261.308 204.028 262.345 203.261 263.671 202.722C265.006 202.172 266.545 201.898 268.288 201.898C270.844 201.898 272.857 202.442 274.325 203.531C275.802 204.62 276.716 206.093 277.066 207.949ZM291.292 224.426C289.161 224.426 287.315 223.957 285.752 223.02C284.19 222.082 282.978 220.771 282.116 219.085C281.263 217.4 280.837 215.43 280.837 213.176C280.837 210.922 281.263 208.948 282.116 207.253C282.978 205.558 284.19 204.241 285.752 203.304C287.315 202.366 289.161 201.898 291.292 201.898C293.423 201.898 295.269 202.366 296.832 203.304C298.394 204.241 299.602 205.558 300.454 207.253C301.316 208.948 301.746 210.922 301.746 213.176C301.746 215.43 301.316 217.4 300.454 219.085C299.602 220.771 298.394 222.082 296.832 223.02C295.269 223.957 293.423 224.426 291.292 224.426ZM291.32 220.307C292.476 220.307 293.442 219.99 294.218 219.355C294.995 218.711 295.572 217.849 295.951 216.77C296.339 215.69 296.533 214.488 296.533 213.162C296.533 211.827 296.339 210.619 295.951 209.54C295.572 208.451 294.995 207.584 294.218 206.94C293.442 206.296 292.476 205.974 291.32 205.974C290.137 205.974 289.152 206.296 288.366 206.94C287.589 207.584 287.007 208.451 286.619 209.54C286.24 210.619 286.05 211.827 286.05 213.162C286.05 214.488 286.24 215.69 286.619 216.77C287.007 217.849 287.589 218.711 288.366 219.355C289.152 219.99 290.137 220.307 291.32 220.307ZM306.111 224V202.182H311.026V205.889H311.281C311.736 204.639 312.489 203.664 313.54 202.963C314.591 202.253 315.846 201.898 317.304 201.898C318.781 201.898 320.027 202.258 321.04 202.977C322.063 203.687 322.782 204.658 323.199 205.889H323.426C323.909 204.677 324.723 203.711 325.869 202.991C327.025 202.262 328.393 201.898 329.974 201.898C331.982 201.898 333.62 202.532 334.889 203.801C336.158 205.07 336.793 206.921 336.793 209.355V224H331.636V210.151C331.636 208.796 331.277 207.807 330.557 207.182C329.837 206.547 328.956 206.23 327.915 206.23C326.674 206.23 325.704 206.618 325.003 207.395C324.312 208.162 323.966 209.161 323.966 210.392V224H318.923V209.938C318.923 208.811 318.582 207.911 317.901 207.239C317.228 206.566 316.348 206.23 315.259 206.23C314.52 206.23 313.848 206.42 313.241 206.798C312.635 207.168 312.152 207.693 311.793 208.375C311.433 209.047 311.253 209.833 311.253 210.733V224H306.111ZM351.668 224.426C349.481 224.426 347.592 223.972 346.001 223.062C344.419 222.144 343.202 220.847 342.35 219.17C341.498 217.485 341.072 215.501 341.072 213.219C341.072 210.974 341.498 209.005 342.35 207.31C343.212 205.605 344.415 204.279 345.958 203.332C347.502 202.376 349.315 201.898 351.398 201.898C352.743 201.898 354.012 202.116 355.205 202.551C356.408 202.977 357.469 203.64 358.387 204.54C359.315 205.439 360.044 206.585 360.575 207.977C361.105 209.36 361.37 211.008 361.37 212.92V214.497H343.487V211.031H356.441C356.432 210.046 356.219 209.17 355.802 208.403C355.385 207.627 354.803 207.016 354.055 206.571C353.316 206.126 352.454 205.903 351.469 205.903C350.418 205.903 349.495 206.159 348.7 206.67C347.904 207.172 347.284 207.835 346.839 208.659C346.403 209.473 346.181 210.368 346.171 211.344V214.369C346.171 215.638 346.403 216.727 346.867 217.636C347.331 218.536 347.98 219.227 348.813 219.71C349.647 220.184 350.622 220.42 351.739 220.42C352.487 220.42 353.165 220.316 353.771 220.108C354.377 219.89 354.902 219.573 355.347 219.156C355.792 218.74 356.129 218.223 356.356 217.608L361.157 218.148C360.854 219.417 360.276 220.525 359.424 221.472C358.581 222.409 357.502 223.138 356.185 223.659C354.869 224.17 353.363 224.426 351.668 224.426ZM376.615 202.182V206.159H364.072V202.182H376.615ZM367.169 196.955H372.311V217.438C372.311 218.129 372.415 218.659 372.624 219.028C372.841 219.388 373.125 219.634 373.476 219.767C373.826 219.9 374.214 219.966 374.641 219.966C374.963 219.966 375.256 219.942 375.521 219.895C375.796 219.848 376.004 219.805 376.146 219.767L377.013 223.787C376.738 223.882 376.345 223.986 375.834 224.099C375.332 224.213 374.716 224.279 373.987 224.298C372.699 224.336 371.539 224.142 370.507 223.716C369.475 223.28 368.656 222.608 368.05 221.699C367.453 220.79 367.16 219.653 367.169 218.29V196.955ZM386.526 211.216V224H381.384V194.909H386.413V205.889H386.668C387.18 204.658 387.97 203.687 389.04 202.977C390.12 202.258 391.493 201.898 393.16 201.898C394.675 201.898 395.996 202.215 397.123 202.849C398.25 203.484 399.121 204.412 399.737 205.634C400.362 206.855 400.674 208.347 400.674 210.108V224H395.532V210.903C395.532 209.436 395.153 208.295 394.396 207.48C393.647 206.656 392.596 206.244 391.242 206.244C390.333 206.244 389.519 206.443 388.799 206.841C388.089 207.229 387.53 207.793 387.123 208.531C386.725 209.27 386.526 210.165 386.526 211.216ZM405.915 224V202.182H411.058V224H405.915ZM408.501 199.085C407.686 199.085 406.986 198.815 406.398 198.276C405.811 197.726 405.518 197.068 405.518 196.301C405.518 195.525 405.811 194.866 406.398 194.327C406.986 193.777 407.686 193.503 408.501 193.503C409.325 193.503 410.025 193.777 410.603 194.327C411.19 194.866 411.484 195.525 411.484 196.301C411.484 197.068 411.19 197.726 410.603 198.276C410.025 198.815 409.325 199.085 408.501 199.085ZM421.487 211.216V224H416.345V202.182H421.26V205.889H421.516C422.018 204.668 422.818 203.697 423.916 202.977C425.024 202.258 426.393 201.898 428.021 201.898C429.527 201.898 430.839 202.22 431.956 202.864C433.083 203.508 433.954 204.44 434.57 205.662C435.195 206.884 435.502 208.366 435.493 210.108V224H430.351V210.903C430.351 209.445 429.972 208.304 429.214 207.48C428.466 206.656 427.429 206.244 426.104 206.244C425.204 206.244 424.404 206.443 423.703 206.841C423.012 207.229 422.467 207.793 422.07 208.531C421.681 209.27 421.487 210.165 421.487 211.216ZM450.209 232.636C448.362 232.636 446.776 232.385 445.45 231.884C444.125 231.391 443.059 230.728 442.254 229.895C441.449 229.062 440.891 228.138 440.578 227.125L445.209 226.003C445.417 226.429 445.72 226.85 446.118 227.267C446.516 227.693 447.051 228.044 447.723 228.318C448.405 228.602 449.262 228.744 450.294 228.744C451.752 228.744 452.96 228.389 453.916 227.679C454.873 226.978 455.351 225.823 455.351 224.213V220.08H455.095C454.83 220.61 454.442 221.154 453.93 221.713C453.429 222.272 452.761 222.741 451.928 223.119C451.104 223.498 450.067 223.688 448.817 223.688C447.141 223.688 445.621 223.295 444.257 222.509C442.903 221.713 441.823 220.529 441.018 218.957C440.223 217.376 439.825 215.397 439.825 213.02C439.825 210.624 440.223 208.602 441.018 206.955C441.823 205.297 442.908 204.043 444.271 203.19C445.635 202.329 447.155 201.898 448.831 201.898C450.109 201.898 451.161 202.116 451.984 202.551C452.818 202.977 453.481 203.493 453.973 204.099C454.465 204.696 454.839 205.259 455.095 205.79H455.379V202.182H460.45V224.355C460.45 226.221 460.005 227.764 459.115 228.986C458.225 230.207 457.008 231.121 455.464 231.727C453.921 232.333 452.169 232.636 450.209 232.636ZM450.251 219.653C451.34 219.653 452.268 219.388 453.036 218.858C453.803 218.328 454.385 217.565 454.783 216.571C455.18 215.577 455.379 214.384 455.379 212.991C455.379 211.618 455.18 210.416 454.783 209.384C454.394 208.351 453.817 207.551 453.05 206.983C452.292 206.405 451.359 206.116 450.251 206.116C449.106 206.116 448.149 206.415 447.382 207.011C446.615 207.608 446.037 208.427 445.649 209.469C445.261 210.501 445.067 211.675 445.067 212.991C445.067 214.327 445.261 215.496 445.649 216.5C446.047 217.494 446.629 218.271 447.396 218.83C448.173 219.379 449.125 219.653 450.251 219.653Z" fill="black"/>
<circle cx="715.5" cy="210.5" r="9.5" fill="#D9D9D9"/>
<circle cx="685.5" cy="210.5" r="9.5" fill="#D9D9D9"/>
<circle cx="655.5" cy="210.5" r="9.5" fill="#D9D9D9"/>
<path fill-rule="evenodd" clip-rule="evenodd" d="M91.1007 498C104.023 498 115.442 483.396 122.331 461.061C129.221 483.396 140.64 498 153.562 498C166.484 498 177.903 483.397 184.792 461.064C191.682 483.397 203.101 498 216.022 498C237.064 498 254.123 459.273 254.123 411.5C254.123 363.727 237.064 325 216.022 325C203.101 325 191.682 339.603 184.792 361.936C177.903 339.603 166.484 325 153.562 325C140.64 325 129.221 339.604 122.331 361.939C115.442 339.604 104.023 325 91.1007 325C70.0583 325 53 363.727 53 411.5C53 459.273 70.0583 498 91.1007 498Z" fill="#F5B5E3"/>
<rect x="318" y="348" width="302" height="31" rx="15.5" fill="#EAE7E7"/>
<rect x="318" y="393" width="168" height="30" rx="15" fill="#EAE7E7"/>
<rect x="318" y="437" width="201" height="31" rx="15.5" fill="#EAE7E7"/>
<g filter="url(#filter1_d_267_167)">
<rect x="296" width="446" height="330" rx="16" fill="#9B8DD6"/>
<rect x="297" y="1" width="444" height="328" rx="15" stroke="black" stroke-width="2"/>
</g>
<rect x="330" y="173" width="374" height="116" rx="58" fill="#B4A5F3"/>
<rect x="599" y="187" width="90" height="87" rx="43.5" fill="white"/>
<rect x="381" y="205" width="141" height="19" rx="9.5" fill="#C9BCFF"/>
<rect x="381" y="235" width="89" height="19" rx="9.5" fill="#C9BCFF"/>
<path d="M656 229.768C657.333 230.538 657.333 232.462 656 233.232L640.25 242.325C638.917 243.095 637.25 242.133 637.25 240.593L637.25 222.407C637.25 220.867 638.917 219.905 640.25 220.675L656 229.768Z" fill="#B4A5F3"/>
<rect x="587" y="60" width="30" height="91" rx="15" fill="#F8D4DD"/>
<rect x="628" y="80" width="31" height="71" rx="15.5" fill="#F8D4DD"/>
<rect x="670" y="48" width="30" height="103" rx="15" fill="#F8D4DD"/>
<defs>
<filter id="filter0_d_267_167" x="0" y="142" width="786" height="427" filterUnits="userSpaceOnUse" color-interpolation-filters="sRGB">
<feFlood flood-opacity="0" result="BackgroundImageFix"/>
<feColorMatrix in="SourceAlpha" type="matrix" values="0 0 0 0 0 0 0 0 0 0 0 0 0 0 0 0 0 0 127 0" result="hardAlpha"/>
<feOffset dx="15" dy="15"/>
<feComposite in2="hardAlpha" operator="out"/>
<feColorMatrix type="matrix" values="0 0 0 0 0 0 0 0 0 0 0 0 0 0 0 0 0 0 0.25 0"/>
<feBlend mode="normal" in2="BackgroundImageFix" result="effect1_dropShadow_267_167"/>
<feBlend mode="normal" in="SourceGraphic" in2="effect1_dropShadow_267_167" result="shape"/>
</filter>
<filter id="filter1_d_267_167" x="296" y="0" width="458" height="342" filterUnits="userSpaceOnUse" color-interpolation-filters="sRGB">
<feFlood flood-opacity="0" result="BackgroundImageFix"/>
<feColorMatrix in="SourceAlpha" type="matrix" values="0 0 0 0 0 0 0 0 0 0 0 0 0 0 0 0 0 0 127 0" result="hardAlpha"/>
<feOffset dx="12" dy="12"/>
<feComposite in2="hardAlpha" operator="out"/>
<feColorMatrix type="matrix" values="0 0 0 0 0 0 0 0 0 0 0 0 0 0 0 0 0 0 0.16 0"/>
<feBlend mode="normal" in2="BackgroundImageFix" result="effect1_dropShadow_267_167"/>
<feBlend mode="normal" in="SourceGraphic" in2="effect1_dropShadow_267_167" result="shape"/>
</filter>
</defs>
</svg>
