<svg width="732" height="691" viewBox="0 0 732 691" fill="none" xmlns="http://www.w3.org/2000/svg">
<path fill-rule="evenodd" clip-rule="evenodd" d="M589.208 241.871L589.842 242.438C589.843 242.438 589.843 242.439 589.842 242.44V242.44C589.841 242.441 589.841 242.442 589.842 242.443C646.184 293.56 650.794 380.651 599.988 437.438L465.904 587.308C415.098 644.096 328.033 649.168 270.986 598.839C270.985 598.839 270.984 598.839 270.983 598.84V598.84C270.983 598.84 270.981 598.84 270.981 598.84L137.533 479.449C93.9345 440.443 90.2116 373.478 129.218 329.879V329.879C153.566 302.665 176.741 258.219 176.061 221.709C175.357 183.963 188.359 145.867 215.517 115.512C272.592 51.7166 370.577 46.2691 434.373 103.345L589.013 241.696C589.045 241.725 589.078 241.754 589.111 241.784C589.143 241.813 589.176 241.842 589.208 241.871Z" fill="#DCD2FF"/>
<ellipse cx="656.5" cy="62.5005" rx="75.5" ry="58.5" fill="#DCD2FF"/>
<path d="M207.609 122.899C248.729 147.909 258.004 207.742 228.324 256.541C198.645 305.34 141.25 324.625 100.129 299.616C59.0089 274.606 24.0601 199.157 53.7398 150.358C83.4194 101.56 166.488 97.8895 207.609 122.899Z" fill="#FBC5EC"/>
</svg>
