<svg width="445" height="576" viewBox="0 0 445 576" fill="none" xmlns="http://www.w3.org/2000/svg">
<g clip-path="url(#clip0_289_508)">
<path fill-rule="evenodd" clip-rule="evenodd" d="M685.208 181.871L685.842 182.438C685.843 182.438 685.843 182.439 685.842 182.44V182.44C685.841 182.441 685.841 182.442 685.842 182.443C742.184 233.56 746.794 320.651 695.988 377.438L561.904 527.308C511.098 584.096 424.033 589.168 366.986 538.839C366.985 538.839 366.984 538.839 366.983 538.84V538.84C366.983 538.84 366.981 538.84 366.981 538.84L233.533 419.449C189.935 380.443 186.212 313.478 225.218 269.879V269.879C249.566 242.665 272.741 198.219 272.061 161.709C271.357 123.963 284.359 85.8668 311.517 55.5117C368.592 -8.28341 466.577 -13.7309 530.373 43.3445L685.013 181.696C685.045 181.725 685.078 181.754 685.111 181.784C685.143 181.813 685.176 181.842 685.208 181.871Z" fill="#ADF8F3"/>
<ellipse cx="172" cy="477" rx="51" ry="48" fill="#93DD9F"/>
<path d="M303.609 62.8991C344.729 87.9086 354.004 147.742 324.324 196.541C294.645 245.34 237.25 264.625 196.129 239.616C155.009 214.606 120.06 139.157 149.74 90.3585C179.419 41.5595 262.488 37.8895 303.609 62.8991Z" fill="#E6EBB0"/>
</g>
<defs>
<clipPath id="clip0_289_508">
<rect width="445" height="576" fill="white"/>
</clipPath>
</defs>
</svg>
