<svg width="852" height="753" viewBox="0 0 852 753" fill="none" xmlns="http://www.w3.org/2000/svg">
<g filter="url(#filter0_d_267_142)">
<rect y="326" width="771" height="412" rx="30" fill="#FCFCFC"/>
<rect x="1" y="327" width="769" height="410" rx="29" stroke="black" stroke-width="2"/>
</g>
<line y1="455.5" x2="771" y2="455.5" stroke="#B6B6B6"/>
<path d="M80.7699 388.724H75.4574C75.3059 387.853 75.0265 387.081 74.6193 386.409C74.2121 385.727 73.7055 385.15 73.0994 384.676C72.4934 384.203 71.8021 383.848 71.0256 383.611C70.2585 383.365 69.4299 383.241 68.5398 383.241C66.9583 383.241 65.5568 383.639 64.3352 384.435C63.1136 385.221 62.1572 386.376 61.4659 387.901C60.7746 389.416 60.429 391.267 60.429 393.455C60.429 395.68 60.7746 397.555 61.4659 399.08C62.1667 400.595 63.1231 401.741 64.3352 402.517C65.5568 403.284 66.9536 403.668 68.5256 403.668C69.3968 403.668 70.2112 403.554 70.9688 403.327C71.7358 403.09 72.4223 402.744 73.0284 402.29C73.6439 401.835 74.16 401.277 74.5767 400.614C75.0028 399.951 75.2964 399.193 75.4574 398.341L80.7699 398.369C80.571 399.752 80.1402 401.049 79.4773 402.261C78.8239 403.473 77.9669 404.544 76.9062 405.472C75.8456 406.39 74.6051 407.11 73.1847 407.631C71.7642 408.142 70.1875 408.398 68.4545 408.398C65.8977 408.398 63.6155 407.806 61.608 406.622C59.6004 405.438 58.0189 403.729 56.8636 401.494C55.7083 399.259 55.1307 396.58 55.1307 393.455C55.1307 390.32 55.7131 387.64 56.8778 385.415C58.0426 383.18 59.6288 381.471 61.6364 380.287C63.6439 379.103 65.9167 378.511 68.4545 378.511C70.0739 378.511 71.5795 378.739 72.9716 379.193C74.3636 379.648 75.6042 380.315 76.6932 381.196C77.7822 382.067 78.6771 383.137 79.3778 384.406C80.0881 385.666 80.5521 387.105 80.7699 388.724ZM94.8857 408.426C92.755 408.426 90.9084 407.957 89.3459 407.02C87.7834 406.082 86.5713 404.771 85.7095 403.085C84.8572 401.4 84.4311 399.43 84.4311 397.176C84.4311 394.922 84.8572 392.948 85.7095 391.253C86.5713 389.558 87.7834 388.241 89.3459 387.304C90.9084 386.366 92.755 385.898 94.8857 385.898C97.0163 385.898 98.8629 386.366 100.425 387.304C101.988 388.241 103.195 389.558 104.048 391.253C104.909 392.948 105.34 394.922 105.34 397.176C105.34 399.43 104.909 401.4 104.048 403.085C103.195 404.771 101.988 406.082 100.425 407.02C98.8629 407.957 97.0163 408.426 94.8857 408.426ZM94.9141 404.307C96.0694 404.307 97.0353 403.99 97.8118 403.355C98.5883 402.711 99.166 401.849 99.5447 400.77C99.933 399.69 100.127 398.488 100.127 397.162C100.127 395.827 99.933 394.619 99.5447 393.54C99.166 392.451 98.5883 391.584 97.8118 390.94C97.0353 390.296 96.0694 389.974 94.9141 389.974C93.7304 389.974 92.7455 390.296 91.9595 390.94C91.183 391.584 90.6006 392.451 90.2124 393.54C89.8336 394.619 89.6442 395.827 89.6442 397.162C89.6442 398.488 89.8336 399.69 90.2124 400.77C90.6006 401.849 91.183 402.711 91.9595 403.355C92.7455 403.99 93.7304 404.307 94.9141 404.307ZM114.847 378.909V408H109.705V378.909H114.847ZM129.651 408.426C127.521 408.426 125.674 407.957 124.112 407.02C122.549 406.082 121.337 404.771 120.475 403.085C119.623 401.4 119.197 399.43 119.197 397.176C119.197 394.922 119.623 392.948 120.475 391.253C121.337 389.558 122.549 388.241 124.112 387.304C125.674 386.366 127.521 385.898 129.651 385.898C131.782 385.898 133.629 386.366 135.191 387.304C136.754 388.241 137.961 389.558 138.813 391.253C139.675 392.948 140.106 394.922 140.106 397.176C140.106 399.43 139.675 401.4 138.813 403.085C137.961 404.771 136.754 406.082 135.191 407.02C133.629 407.957 131.782 408.426 129.651 408.426ZM129.68 404.307C130.835 404.307 131.801 403.99 132.577 403.355C133.354 402.711 133.932 401.849 134.31 400.77C134.699 399.69 134.893 398.488 134.893 397.162C134.893 395.827 134.699 394.619 134.31 393.54C133.932 392.451 133.354 391.584 132.577 390.94C131.801 390.296 130.835 389.974 129.68 389.974C128.496 389.974 127.511 390.296 126.725 390.94C125.949 391.584 125.366 392.451 124.978 393.54C124.599 394.619 124.41 395.827 124.41 397.162C124.41 398.488 124.599 399.69 124.978 400.77C125.366 401.849 125.949 402.711 126.725 403.355C127.511 403.99 128.496 404.307 129.68 404.307ZM144.47 408V386.182H149.456V389.818H149.683C150.081 388.559 150.763 387.588 151.729 386.906C152.704 386.215 153.817 385.869 155.067 385.869C155.351 385.869 155.668 385.884 156.018 385.912C156.378 385.931 156.677 385.964 156.913 386.011V390.741C156.696 390.666 156.35 390.599 155.876 390.543C155.412 390.476 154.963 390.443 154.527 390.443C153.589 390.443 152.747 390.647 151.999 391.054C151.26 391.452 150.678 392.006 150.251 392.716C149.825 393.426 149.612 394.245 149.612 395.173V408H144.47ZM170.479 408V378.909H181.388C183.623 378.909 185.498 379.326 187.013 380.159C188.537 380.992 189.688 382.138 190.464 383.597C191.25 385.045 191.643 386.693 191.643 388.54C191.643 390.405 191.25 392.062 190.464 393.511C189.679 394.96 188.518 396.101 186.984 396.935C185.45 397.759 183.561 398.17 181.317 398.17H174.087V393.838H180.607C181.913 393.838 182.983 393.611 183.817 393.156C184.65 392.702 185.266 392.077 185.663 391.281C186.071 390.486 186.274 389.572 186.274 388.54C186.274 387.508 186.071 386.598 185.663 385.812C185.266 385.027 184.645 384.416 183.803 383.98C182.969 383.535 181.894 383.312 180.578 383.312H175.749V408H170.479ZM201.881 408.44C200.499 408.44 199.254 408.194 198.146 407.702C197.047 407.2 196.176 406.461 195.532 405.486C194.897 404.51 194.58 403.308 194.58 401.878C194.58 400.647 194.808 399.629 195.262 398.824C195.717 398.019 196.337 397.375 197.123 396.892C197.909 396.409 198.794 396.045 199.779 395.798C200.773 395.543 201.801 395.358 202.862 395.244C204.14 395.112 205.177 394.993 205.972 394.889C206.768 394.776 207.345 394.605 207.705 394.378C208.075 394.141 208.259 393.777 208.259 393.284V393.199C208.259 392.129 207.942 391.3 207.308 390.713C206.673 390.126 205.759 389.832 204.566 389.832C203.307 389.832 202.308 390.107 201.569 390.656C200.84 391.205 200.347 391.854 200.092 392.602L195.29 391.92C195.669 390.595 196.294 389.487 197.165 388.597C198.037 387.697 199.102 387.025 200.362 386.58C201.621 386.125 203.013 385.898 204.538 385.898C205.589 385.898 206.635 386.021 207.677 386.267C208.719 386.513 209.67 386.92 210.532 387.489C211.394 388.047 212.085 388.81 212.606 389.776C213.136 390.741 213.401 391.949 213.401 393.398V408H208.458V405.003H208.288C207.975 405.609 207.535 406.177 206.967 406.707C206.408 407.228 205.702 407.65 204.85 407.972C204.007 408.284 203.018 408.44 201.881 408.44ZM203.217 404.662C204.249 404.662 205.144 404.458 205.901 404.051C206.659 403.634 207.241 403.085 207.648 402.403C208.065 401.722 208.273 400.978 208.273 400.173V397.602C208.112 397.735 207.838 397.858 207.45 397.972C207.071 398.085 206.645 398.185 206.171 398.27C205.698 398.355 205.229 398.431 204.765 398.497C204.301 398.563 203.898 398.62 203.558 398.668C202.79 398.772 202.104 398.942 201.498 399.179C200.892 399.416 200.414 399.747 200.063 400.173C199.713 400.59 199.538 401.13 199.538 401.793C199.538 402.74 199.883 403.455 200.575 403.938C201.266 404.42 202.147 404.662 203.217 404.662ZM223.714 378.909V408H218.572V378.909H223.714ZM238.661 408.426C236.473 408.426 234.584 407.972 232.993 407.062C231.411 406.144 230.195 404.847 229.342 403.17C228.49 401.485 228.064 399.501 228.064 397.219C228.064 394.974 228.49 393.005 229.342 391.31C230.204 389.605 231.407 388.279 232.95 387.332C234.494 386.376 236.307 385.898 238.391 385.898C239.735 385.898 241.004 386.116 242.197 386.551C243.4 386.977 244.461 387.64 245.379 388.54C246.307 389.439 247.036 390.585 247.567 391.977C248.097 393.36 248.362 395.008 248.362 396.92V398.497H230.479V395.031H243.433C243.424 394.046 243.211 393.17 242.794 392.403C242.377 391.627 241.795 391.016 241.047 390.571C240.308 390.126 239.446 389.903 238.462 389.903C237.411 389.903 236.487 390.159 235.692 390.67C234.896 391.172 234.276 391.835 233.831 392.659C233.395 393.473 233.173 394.368 233.163 395.344V398.369C233.163 399.638 233.395 400.727 233.859 401.636C234.323 402.536 234.972 403.227 235.805 403.71C236.639 404.184 237.614 404.42 238.732 404.42C239.48 404.42 240.157 404.316 240.763 404.108C241.369 403.89 241.894 403.573 242.339 403.156C242.785 402.74 243.121 402.223 243.348 401.608L248.149 402.148C247.846 403.417 247.268 404.525 246.416 405.472C245.573 406.409 244.494 407.138 243.178 407.659C241.861 408.17 240.356 408.426 238.661 408.426ZM263.607 386.182V390.159H251.065V386.182H263.607ZM254.161 380.955H259.303V401.438C259.303 402.129 259.407 402.659 259.616 403.028C259.834 403.388 260.118 403.634 260.468 403.767C260.818 403.9 261.207 403.966 261.633 403.966C261.955 403.966 262.248 403.942 262.513 403.895C262.788 403.848 262.996 403.805 263.138 403.767L264.005 407.787C263.73 407.882 263.337 407.986 262.826 408.099C262.324 408.213 261.709 408.279 260.979 408.298C259.692 408.336 258.531 408.142 257.499 407.716C256.467 407.28 255.648 406.608 255.042 405.699C254.445 404.79 254.152 403.653 254.161 402.29V380.955ZM278.803 386.182V390.159H266.26V386.182H278.803ZM269.357 380.955H274.499V401.438C274.499 402.129 274.603 402.659 274.811 403.028C275.029 403.388 275.313 403.634 275.663 403.767C276.014 403.9 276.402 403.966 276.828 403.966C277.15 403.966 277.444 403.942 277.709 403.895C277.983 403.848 278.192 403.805 278.334 403.767L279.2 407.787C278.926 407.882 278.533 407.986 278.021 408.099C277.519 408.213 276.904 408.279 276.175 408.298C274.887 408.336 273.727 408.142 272.695 407.716C271.662 407.28 270.843 406.608 270.237 405.699C269.641 404.79 269.347 403.653 269.357 402.29V380.955ZM292.528 408.426C290.34 408.426 288.451 407.972 286.86 407.062C285.279 406.144 284.062 404.847 283.21 403.17C282.357 401.485 281.931 399.501 281.931 397.219C281.931 394.974 282.357 393.005 283.21 391.31C284.071 389.605 285.274 388.279 286.817 387.332C288.361 386.376 290.174 385.898 292.258 385.898C293.603 385.898 294.871 386.116 296.065 386.551C297.267 386.977 298.328 387.64 299.246 388.54C300.174 389.439 300.904 390.585 301.434 391.977C301.964 393.36 302.229 395.008 302.229 396.92V398.497H284.346V395.031H297.3C297.291 394.046 297.078 393.17 296.661 392.403C296.245 391.627 295.662 391.016 294.914 390.571C294.175 390.126 293.314 389.903 292.329 389.903C291.278 389.903 290.354 390.159 289.559 390.67C288.763 391.172 288.143 391.835 287.698 392.659C287.263 393.473 287.04 394.368 287.031 395.344V398.369C287.031 399.638 287.263 400.727 287.727 401.636C288.191 402.536 288.839 403.227 289.673 403.71C290.506 404.184 291.481 404.42 292.599 404.42C293.347 404.42 294.024 404.316 294.63 404.108C295.236 403.89 295.762 403.573 296.207 403.156C296.652 402.74 296.988 402.223 297.215 401.608L302.016 402.148C301.713 403.417 301.136 404.525 300.283 405.472C299.441 406.409 298.361 407.138 297.045 407.659C295.728 408.17 294.223 408.426 292.528 408.426ZM323.824 391.949L319.136 392.46C319.004 391.987 318.772 391.542 318.44 391.125C318.118 390.708 317.683 390.372 317.134 390.116C316.584 389.861 315.912 389.733 315.116 389.733C314.046 389.733 313.147 389.965 312.418 390.429C311.698 390.893 311.343 391.494 311.352 392.233C311.343 392.867 311.575 393.384 312.048 393.781C312.531 394.179 313.327 394.506 314.435 394.761L318.156 395.557C320.221 396.002 321.755 396.707 322.759 397.673C323.772 398.639 324.283 399.903 324.293 401.466C324.283 402.839 323.881 404.051 323.085 405.102C322.299 406.144 321.205 406.958 319.804 407.545C318.402 408.133 316.793 408.426 314.974 408.426C312.304 408.426 310.154 407.867 308.526 406.75C306.897 405.623 305.926 404.056 305.614 402.048L310.628 401.565C310.855 402.55 311.338 403.294 312.077 403.795C312.815 404.297 313.777 404.548 314.96 404.548C316.182 404.548 317.162 404.297 317.901 403.795C318.649 403.294 319.023 402.673 319.023 401.935C319.023 401.31 318.781 400.794 318.298 400.386C317.825 399.979 317.086 399.667 316.082 399.449L312.361 398.668C310.268 398.232 308.72 397.498 307.716 396.466C306.712 395.424 306.215 394.108 306.224 392.517C306.215 391.172 306.58 390.008 307.318 389.023C308.066 388.028 309.103 387.261 310.429 386.722C311.764 386.172 313.303 385.898 315.045 385.898C317.602 385.898 319.615 386.442 321.082 387.531C322.56 388.62 323.473 390.093 323.824 391.949Z" fill="black"/>
<circle cx="715.5" cy="394.5" r="9.5" fill="#D9D9D9"/>
<circle cx="685.5" cy="394.5" r="9.5" fill="#D9D9D9"/>
<circle cx="655.5" cy="394.5" r="9.5" fill="#D9D9D9"/>
<rect x="53" y="496" width="204" height="190" rx="20" fill="#87C1EE"/>
<rect x="274" y="496" width="136" height="86" rx="12" fill="#D7F196"/>
<rect x="424" y="496" width="136" height="86" rx="12" fill="#F3DADE"/>
<rect x="574" y="496" width="136" height="86" rx="12" fill="#FFF1AA"/>
<rect x="274" y="600" width="136" height="86" rx="12" fill="#BEDE71"/>
<rect x="424" y="600" width="136" height="86" rx="12" fill="#DCADCF"/>
<rect x="574" y="600" width="136" height="86" rx="12" fill="#FFC888"/>
<g filter="url(#filter1_d_267_142)">
<path d="M273 30C273 13.4315 286.431 0 303 0H807C823.569 0 837 13.4315 837 30V556C837 572.569 823.569 586 807 586H303C286.431 586 273 572.569 273 556V30Z" fill="#FCFCFC"/>
</g>
<path fill-rule="evenodd" clip-rule="evenodd" d="M741.5 97C746.747 97 751 92.7467 751 87.5C751 82.2533 746.747 78 741.5 78C736.253 78 732 82.2533 732 87.5C732 92.7467 736.253 97 741.5 97ZM771.5 97C776.747 97 781 92.7467 781 87.5C781 82.2533 776.747 78 771.5 78C766.253 78 762 82.2533 762 87.5C762 92.7467 766.253 97 771.5 97Z" fill="#D9D9D9"/>
<path d="M365.217 63.5796H360.967C360.845 62.8827 360.622 62.2652 360.296 61.7274C359.97 61.1819 359.565 60.7198 359.08 60.341C358.595 59.9622 358.042 59.6781 357.421 59.4887C356.808 59.2918 356.145 59.1933 355.433 59.1933C354.167 59.1933 353.046 59.5115 352.069 60.1478C351.092 60.7766 350.326 61.7008 349.773 62.9205C349.22 64.1327 348.944 65.6137 348.944 67.3637C348.944 69.144 349.22 70.644 349.773 71.8637C350.334 73.0758 351.099 73.9925 352.069 74.6137C353.046 75.2274 354.164 75.5342 355.421 75.5342C356.118 75.5342 356.77 75.4433 357.376 75.2615C357.989 75.0721 358.539 74.7955 359.023 74.4319C359.516 74.0683 359.929 73.6213 360.262 73.091C360.603 72.5607 360.838 71.9546 360.967 71.2728L365.217 71.2955C365.058 72.4016 364.713 73.4395 364.183 74.4092C363.66 75.3789 362.974 76.2349 362.126 76.9774C361.277 77.7122 360.285 78.288 359.148 78.7046C358.012 79.1137 356.751 79.3183 355.364 79.3183C353.319 79.3183 351.493 78.8448 349.887 77.8978C348.281 76.9508 347.016 75.5834 346.092 73.7955C345.167 72.0077 344.705 69.8637 344.705 67.3637C344.705 64.8561 345.171 62.7122 346.103 60.9319C347.035 59.144 348.304 57.7766 349.91 56.8296C351.516 55.8827 353.334 55.4092 355.364 55.4092C356.66 55.4092 357.864 55.591 358.978 55.9546C360.092 56.3183 361.084 56.8524 361.955 57.5569C362.826 58.2539 363.542 59.1099 364.103 60.1251C364.671 61.1327 365.042 62.2842 365.217 63.5796Z" fill="black"/>
<path d="M373.009 68.7728V79.0001H368.896V55.7274H372.918V64.5115H373.123C373.532 63.5266 374.165 62.7501 375.021 62.1819C375.884 61.6062 376.983 61.3183 378.316 61.3183C379.528 61.3183 380.585 61.5721 381.487 62.0796C382.388 62.5872 383.085 63.3296 383.577 64.3069C384.077 65.2842 384.327 66.4774 384.327 67.8865V79.0001H380.214V68.5228C380.214 67.3486 379.911 66.4357 379.305 65.7842C378.706 65.1251 377.865 64.7955 376.782 64.7955C376.055 64.7955 375.403 64.9546 374.827 65.2728C374.259 65.5834 373.812 66.0342 373.487 66.6251C373.168 67.216 373.009 67.9319 373.009 68.7728Z" fill="black"/>
<path d="M396.134 79.341C394.43 79.341 392.952 78.966 391.702 78.216C390.452 77.466 389.483 76.4168 388.793 75.0683C388.112 73.7198 387.771 72.144 387.771 70.341C387.771 68.538 388.112 66.9584 388.793 65.6024C389.483 64.2463 390.452 63.1933 391.702 62.4433C392.952 61.6933 394.43 61.3183 396.134 61.3183C397.839 61.3183 399.316 61.6933 400.566 62.4433C401.816 63.1933 402.782 64.2463 403.464 65.6024C404.153 66.9584 404.498 68.538 404.498 70.341C404.498 72.144 404.153 73.7198 403.464 75.0683C402.782 76.4168 401.816 77.466 400.566 78.216C399.316 78.966 397.839 79.341 396.134 79.341ZM396.157 76.0455C397.081 76.0455 397.854 75.7918 398.475 75.2842C399.096 74.769 399.558 74.0796 399.862 73.216C400.172 72.3524 400.327 71.3902 400.327 70.3296C400.327 69.2615 400.172 68.2955 399.862 67.4319C399.558 66.5607 399.096 65.8675 398.475 65.3524C397.854 64.8372 397.081 64.5796 396.157 64.5796C395.21 64.5796 394.422 64.8372 393.793 65.3524C393.172 65.8675 392.706 66.5607 392.396 67.4319C392.093 68.2955 391.941 69.2615 391.941 70.3296C391.941 71.3902 392.093 72.3524 392.396 73.216C392.706 74.0796 393.172 74.769 393.793 75.2842C394.422 75.7918 395.21 76.0455 396.157 76.0455Z" fill="black"/>
<path d="M415.603 79.341C413.898 79.341 412.421 78.966 411.171 78.216C409.921 77.466 408.951 76.4168 408.262 75.0683C407.58 73.7198 407.239 72.144 407.239 70.341C407.239 68.538 407.58 66.9584 408.262 65.6024C408.951 64.2463 409.921 63.1933 411.171 62.4433C412.421 61.6933 413.898 61.3183 415.603 61.3183C417.308 61.3183 418.785 61.6933 420.035 62.4433C421.285 63.1933 422.251 64.2463 422.933 65.6024C423.622 66.9584 423.967 68.538 423.967 70.341C423.967 72.144 423.622 73.7198 422.933 75.0683C422.251 76.4168 421.285 77.466 420.035 78.216C418.785 78.966 417.308 79.341 415.603 79.341ZM415.626 76.0455C416.55 76.0455 417.323 75.7918 417.944 75.2842C418.565 74.769 419.027 74.0796 419.33 73.216C419.641 72.3524 419.796 71.3902 419.796 70.3296C419.796 69.2615 419.641 68.2955 419.33 67.4319C419.027 66.5607 418.565 65.8675 417.944 65.3524C417.323 64.8372 416.55 64.5796 415.626 64.5796C414.679 64.5796 413.891 64.8372 413.262 65.3524C412.641 65.8675 412.175 66.5607 411.864 67.4319C411.561 68.2955 411.41 69.2615 411.41 70.3296C411.41 71.3902 411.561 72.3524 411.864 73.216C412.175 74.0796 412.641 74.769 413.262 75.2842C413.891 75.7918 414.679 76.0455 415.626 76.0455Z" fill="black"/>
<path d="M441.254 66.1592L437.504 66.5683C437.397 66.1895 437.212 65.8334 436.947 65.5001C436.689 65.1668 436.341 64.8978 435.901 64.6933C435.462 64.4887 434.924 64.3865 434.288 64.3865C433.432 64.3865 432.712 64.5721 432.129 64.9433C431.553 65.3145 431.269 65.7955 431.276 66.3865C431.269 66.894 431.454 67.3069 431.833 67.6251C432.219 67.9433 432.856 68.2046 433.742 68.4092L436.719 69.0455C438.371 69.4016 439.598 69.966 440.401 70.7387C441.212 71.5115 441.621 72.5228 441.629 73.7728C441.621 74.8713 441.299 75.841 440.663 76.6819C440.034 77.5152 439.159 78.1668 438.038 78.6365C436.916 79.1062 435.629 79.341 434.174 79.341C432.038 79.341 430.318 78.894 429.015 78.0001C427.712 77.0986 426.935 75.8448 426.685 74.2387L430.697 73.8524C430.879 74.6402 431.265 75.2349 431.856 75.6365C432.447 76.038 433.216 76.2387 434.163 76.2387C435.14 76.2387 435.924 76.038 436.515 75.6365C437.113 75.2349 437.413 74.7387 437.413 74.1478C437.413 73.6478 437.219 73.2349 436.833 72.9092C436.454 72.5834 435.863 72.3334 435.06 72.1592L432.083 71.5342C430.409 71.1857 429.17 70.5986 428.367 69.7728C427.564 68.9395 427.166 67.8865 427.174 66.6137C427.166 65.538 427.458 64.6061 428.049 63.8183C428.647 63.0228 429.477 62.4092 430.538 61.9774C431.606 61.538 432.837 61.3183 434.231 61.3183C436.276 61.3183 437.886 61.7539 439.06 62.6251C440.242 63.4963 440.973 64.6743 441.254 66.1592Z" fill="black"/>
<path d="M452.748 79.341C450.998 79.341 449.487 78.9774 448.214 78.2501C446.949 77.5152 445.975 76.4774 445.293 75.1365C444.612 73.788 444.271 72.2008 444.271 70.3751C444.271 68.5796 444.612 67.0039 445.293 65.6478C445.983 64.2842 446.945 63.2236 448.18 62.466C449.415 61.7008 450.865 61.3183 452.532 61.3183C453.608 61.3183 454.623 61.4925 455.577 61.841C456.54 62.1819 457.388 62.7122 458.123 63.4319C458.865 64.1516 459.449 65.0683 459.873 66.1819C460.297 67.288 460.509 68.6062 460.509 70.1365V71.3978H446.202V68.6251H456.566C456.558 67.8372 456.388 67.1365 456.055 66.5228C455.721 65.9016 455.255 65.413 454.657 65.0569C454.066 64.7008 453.377 64.5228 452.589 64.5228C451.748 64.5228 451.009 64.7274 450.373 65.1365C449.737 65.538 449.24 66.0683 448.884 66.7274C448.536 67.3789 448.358 68.0948 448.35 68.8751V71.2955C448.35 72.3107 448.536 73.1819 448.907 73.9092C449.278 74.6289 449.797 75.1819 450.464 75.5683C451.13 75.9471 451.911 76.1365 452.805 76.1365C453.403 76.1365 453.945 76.0531 454.43 75.8865C454.915 75.7122 455.335 75.4584 455.691 75.1251C456.047 74.7918 456.316 74.3789 456.498 73.8865L460.339 74.3183C460.096 75.3334 459.634 76.2198 458.952 76.9774C458.278 77.7274 457.415 78.3107 456.362 78.7274C455.308 79.1365 454.104 79.341 452.748 79.341Z" fill="black"/>
<path d="M475.529 79.0001L470.597 61.5455H474.79L477.859 73.8183H478.018L481.154 61.5455H485.302L488.438 73.7501H488.609L491.631 61.5455H495.836L490.893 79.0001H486.609L483.336 67.2046H483.097L479.825 79.0001H475.529Z" fill="black"/>
<path d="M502.822 68.7728V79.0001H498.708V55.7274H502.731V64.5115H502.935C503.344 63.5266 503.977 62.7501 504.833 62.1819C505.697 61.6062 506.795 61.3183 508.129 61.3183C509.341 61.3183 510.397 61.5721 511.299 62.0796C512.201 62.5872 512.897 63.3296 513.39 64.3069C513.89 65.2842 514.14 66.4774 514.14 67.8865V79.0001H510.026V68.5228C510.026 67.3486 509.723 66.4357 509.117 65.7842C508.519 65.1251 507.678 64.7955 506.594 64.7955C505.867 64.7955 505.216 64.9546 504.64 65.2728C504.072 65.5834 503.625 66.0342 503.299 66.6251C502.981 67.216 502.822 67.9319 502.822 68.7728Z" fill="black"/>
<path d="M523.356 79.3524C522.25 79.3524 521.254 79.1554 520.367 78.7615C519.488 78.3599 518.791 77.769 518.276 76.9887C517.769 76.2084 517.515 75.2463 517.515 74.1024C517.515 73.1175 517.697 72.3031 518.06 71.6592C518.424 71.0152 518.92 70.5001 519.549 70.1137C520.178 69.7274 520.886 69.4357 521.674 69.2387C522.469 69.0342 523.291 68.8865 524.14 68.7955C525.163 68.6895 525.992 68.5948 526.629 68.5115C527.265 68.4205 527.727 68.2842 528.015 68.1024C528.31 67.913 528.458 67.6213 528.458 67.2274V67.1592C528.458 66.3031 528.204 65.6402 527.697 65.1705C527.189 64.7008 526.458 64.466 525.504 64.466C524.496 64.466 523.697 64.6857 523.106 65.1251C522.523 65.5645 522.129 66.0834 521.924 66.6819L518.083 66.1365C518.386 65.0758 518.886 64.1895 519.583 63.4774C520.28 62.7577 521.132 62.2198 522.14 61.8637C523.147 61.5001 524.261 61.3183 525.481 61.3183C526.322 61.3183 527.159 61.4168 527.992 61.6137C528.826 61.8107 529.587 62.1365 530.276 62.591C530.966 63.038 531.519 63.6478 531.935 64.4205C532.36 65.1933 532.572 66.1592 532.572 67.3183V79.0001H528.617V76.6024H528.481C528.231 77.0872 527.879 77.5418 527.424 77.966C526.977 78.3827 526.413 78.7198 525.731 78.9774C525.057 79.2274 524.265 79.3524 523.356 79.3524ZM524.424 76.3296C525.25 76.3296 525.966 76.1668 526.572 75.841C527.178 75.5077 527.644 75.0683 527.969 74.5228C528.303 73.9774 528.469 73.3827 528.469 72.7387V70.6819C528.341 70.788 528.121 70.8865 527.81 70.9774C527.507 71.0683 527.166 71.1478 526.788 71.216C526.409 71.2842 526.034 71.3448 525.663 71.3978C525.291 71.4508 524.969 71.4963 524.697 71.5342C524.083 71.6175 523.534 71.7539 523.049 71.9433C522.564 72.1327 522.182 72.3978 521.901 72.7387C521.621 73.0721 521.481 73.5039 521.481 74.0342C521.481 74.7918 521.757 75.3637 522.31 75.7501C522.863 76.1365 523.568 76.3296 524.424 76.3296Z" fill="black"/>
<path d="M545.424 61.5455V64.7274H535.39V61.5455H545.424ZM537.867 57.3637H541.981V73.7501C541.981 74.3031 542.064 74.7274 542.231 75.0228C542.405 75.3107 542.632 75.5077 542.913 75.6137C543.193 75.7198 543.504 75.7728 543.844 75.7728C544.102 75.7728 544.337 75.7539 544.549 75.716C544.769 75.6781 544.935 75.644 545.049 75.6137L545.742 78.8296C545.523 78.9054 545.208 78.9887 544.799 79.0796C544.397 79.1705 543.905 79.2236 543.322 79.2387C542.291 79.269 541.363 79.1137 540.538 78.7728C539.712 78.4243 539.057 77.8865 538.572 77.1592C538.094 76.4319 537.86 75.5228 537.867 74.4319V57.3637Z" fill="black"/>
<path d="M565.518 61.5455V64.7274H555.484V61.5455H565.518ZM557.961 57.3637H562.075V73.7501C562.075 74.3031 562.158 74.7274 562.325 75.0228C562.499 75.3107 562.726 75.5077 563.006 75.6137C563.287 75.7198 563.597 75.7728 563.938 75.7728C564.196 75.7728 564.431 75.7539 564.643 75.716C564.862 75.6781 565.029 75.644 565.143 75.6137L565.836 78.8296C565.616 78.9054 565.302 78.9887 564.893 79.0796C564.491 79.1705 563.999 79.2236 563.415 79.2387C562.385 79.269 561.457 79.1137 560.631 78.7728C559.806 78.4243 559.15 77.8865 558.665 77.1592C558.188 76.4319 557.953 75.5228 557.961 74.4319V57.3637Z" fill="black"/>
<path d="M576.384 79.341C574.68 79.341 573.202 78.966 571.952 78.216C570.702 77.466 569.733 76.4168 569.043 75.0683C568.362 73.7198 568.021 72.144 568.021 70.341C568.021 68.538 568.362 66.9584 569.043 65.6024C569.733 64.2463 570.702 63.1933 571.952 62.4433C573.202 61.6933 574.68 61.3183 576.384 61.3183C578.089 61.3183 579.566 61.6933 580.816 62.4433C582.066 63.1933 583.032 64.2463 583.714 65.6024C584.403 66.9584 584.748 68.538 584.748 70.341C584.748 72.144 584.403 73.7198 583.714 75.0683C583.032 76.4168 582.066 77.466 580.816 78.216C579.566 78.966 578.089 79.341 576.384 79.341ZM576.407 76.0455C577.331 76.0455 578.104 75.7918 578.725 75.2842C579.346 74.769 579.808 74.0796 580.112 73.216C580.422 72.3524 580.577 71.3902 580.577 70.3296C580.577 69.2615 580.422 68.2955 580.112 67.4319C579.808 66.5607 579.346 65.8675 578.725 65.3524C578.104 64.8372 577.331 64.5796 576.407 64.5796C575.46 64.5796 574.672 64.8372 574.043 65.3524C573.422 65.8675 572.956 66.5607 572.646 67.4319C572.343 68.2955 572.191 69.2615 572.191 70.3296C572.191 71.3902 572.343 72.3524 572.646 73.216C572.956 74.0796 573.422 74.769 574.043 75.2842C574.672 75.7918 575.46 76.0455 576.407 76.0455Z" fill="black"/>
<path d="M351.592 118.307C350.22 118.307 348.993 117.955 347.91 117.25C346.826 116.546 345.97 115.523 345.342 114.182C344.713 112.841 344.398 111.212 344.398 109.296C344.398 107.356 344.717 105.72 345.353 104.386C345.997 103.046 346.864 102.034 347.955 101.352C349.046 100.663 350.262 100.318 351.603 100.318C352.626 100.318 353.467 100.493 354.126 100.841C354.785 101.182 355.308 101.595 355.694 102.08C356.08 102.557 356.379 103.008 356.592 103.432H356.762V94.7274H360.887V118H356.842V115.25H356.592C356.379 115.674 356.073 116.125 355.671 116.602C355.27 117.072 354.739 117.474 354.08 117.807C353.421 118.14 352.592 118.307 351.592 118.307ZM352.739 114.932C353.611 114.932 354.353 114.697 354.967 114.227C355.58 113.75 356.046 113.087 356.364 112.239C356.683 111.39 356.842 110.402 356.842 109.273C356.842 108.144 356.683 107.163 356.364 106.33C356.054 105.496 355.592 104.849 354.978 104.386C354.372 103.924 353.626 103.693 352.739 103.693C351.823 103.693 351.058 103.932 350.444 104.409C349.83 104.886 349.368 105.546 349.058 106.386C348.747 107.227 348.592 108.189 348.592 109.273C348.592 110.364 348.747 111.337 349.058 112.193C349.376 113.042 349.842 113.712 350.455 114.205C351.076 114.689 351.838 114.932 352.739 114.932Z" fill="black"/>
<path d="M372.998 118.341C371.248 118.341 369.737 117.977 368.464 117.25C367.199 116.515 366.225 115.477 365.543 114.136C364.862 112.788 364.521 111.201 364.521 109.375C364.521 107.58 364.862 106.004 365.543 104.648C366.233 103.284 367.195 102.224 368.43 101.466C369.665 100.701 371.115 100.318 372.782 100.318C373.858 100.318 374.873 100.493 375.827 100.841C376.79 101.182 377.638 101.712 378.373 102.432C379.115 103.152 379.699 104.068 380.123 105.182C380.547 106.288 380.759 107.606 380.759 109.136V110.398H366.452V107.625H376.816C376.808 106.837 376.638 106.136 376.305 105.523C375.971 104.902 375.505 104.413 374.907 104.057C374.316 103.701 373.627 103.523 372.839 103.523C371.998 103.523 371.259 103.727 370.623 104.136C369.987 104.538 369.49 105.068 369.134 105.727C368.786 106.379 368.608 107.095 368.6 107.875V110.296C368.6 111.311 368.786 112.182 369.157 112.909C369.528 113.629 370.047 114.182 370.714 114.568C371.38 114.947 372.161 115.136 373.055 115.136C373.653 115.136 374.195 115.053 374.68 114.886C375.165 114.712 375.585 114.458 375.941 114.125C376.297 113.792 376.566 113.379 376.748 112.886L380.589 113.318C380.346 114.333 379.884 115.22 379.202 115.977C378.528 116.727 377.665 117.311 376.612 117.727C375.558 118.136 374.354 118.341 372.998 118.341Z" fill="black"/>
<path d="M398.035 105.159L394.285 105.568C394.179 105.189 393.993 104.833 393.728 104.5C393.47 104.167 393.122 103.898 392.683 103.693C392.243 103.489 391.705 103.386 391.069 103.386C390.213 103.386 389.493 103.572 388.91 103.943C388.334 104.314 388.05 104.796 388.058 105.386C388.05 105.894 388.236 106.307 388.614 106.625C389.001 106.943 389.637 107.205 390.523 107.409L393.501 108.046C395.152 108.402 396.379 108.966 397.183 109.739C397.993 110.511 398.402 111.523 398.41 112.773C398.402 113.871 398.08 114.841 397.444 115.682C396.815 116.515 395.94 117.167 394.819 117.636C393.698 118.106 392.41 118.341 390.955 118.341C388.819 118.341 387.099 117.894 385.796 117C384.493 116.099 383.717 114.845 383.467 113.239L387.478 112.852C387.66 113.64 388.046 114.235 388.637 114.636C389.228 115.038 389.997 115.239 390.944 115.239C391.921 115.239 392.705 115.038 393.296 114.636C393.895 114.235 394.194 113.739 394.194 113.148C394.194 112.648 394.001 112.235 393.614 111.909C393.236 111.583 392.645 111.333 391.842 111.159L388.864 110.534C387.19 110.186 385.951 109.599 385.148 108.773C384.345 107.939 383.948 106.886 383.955 105.614C383.948 104.538 384.239 103.606 384.83 102.818C385.429 102.023 386.258 101.409 387.319 100.977C388.387 100.538 389.618 100.318 391.012 100.318C393.058 100.318 394.667 100.754 395.842 101.625C397.023 102.496 397.754 103.674 398.035 105.159Z" fill="black"/>
<path d="M401.802 118V100.546H405.915V118H401.802ZM403.87 98.0683C403.219 98.0683 402.658 97.8524 402.188 97.4205C401.719 96.9812 401.484 96.4546 401.484 95.841C401.484 95.2198 401.719 94.6933 402.188 94.2615C402.658 93.8221 403.219 93.6024 403.87 93.6024C404.529 93.6024 405.09 93.8221 405.552 94.2615C406.022 94.6933 406.256 95.2198 406.256 95.841C406.256 96.4546 406.022 96.9812 405.552 97.4205C405.09 97.8524 404.529 98.0683 403.87 98.0683Z" fill="black"/>
<path d="M417.737 124.909C416.259 124.909 414.99 124.708 413.93 124.307C412.869 123.913 412.017 123.383 411.373 122.716C410.729 122.049 410.282 121.311 410.032 120.5L413.737 119.602C413.903 119.943 414.146 120.28 414.464 120.614C414.782 120.955 415.21 121.235 415.748 121.455C416.293 121.682 416.979 121.796 417.805 121.796C418.971 121.796 419.937 121.511 420.702 120.943C421.468 120.383 421.85 119.458 421.85 118.171V114.864H421.646C421.433 115.288 421.123 115.724 420.714 116.171C420.312 116.618 419.778 116.993 419.112 117.296C418.452 117.599 417.623 117.75 416.623 117.75C415.282 117.75 414.066 117.436 412.975 116.807C411.892 116.171 411.028 115.224 410.384 113.966C409.748 112.701 409.43 111.118 409.43 109.216C409.43 107.299 409.748 105.682 410.384 104.364C411.028 103.038 411.896 102.034 412.987 101.352C414.077 100.663 415.293 100.318 416.634 100.318C417.657 100.318 418.498 100.493 419.157 100.841C419.824 101.182 420.354 101.595 420.748 102.08C421.142 102.557 421.441 103.008 421.646 103.432H421.873V100.546H425.93V118.284C425.93 119.777 425.574 121.011 424.862 121.989C424.149 122.966 423.176 123.697 421.941 124.182C420.706 124.667 419.305 124.909 417.737 124.909ZM417.771 114.523C418.642 114.523 419.384 114.311 419.998 113.886C420.612 113.462 421.077 112.852 421.396 112.057C421.714 111.261 421.873 110.307 421.873 109.193C421.873 108.095 421.714 107.133 421.396 106.307C421.085 105.481 420.623 104.841 420.009 104.386C419.403 103.924 418.657 103.693 417.771 103.693C416.854 103.693 416.089 103.932 415.475 104.409C414.862 104.886 414.399 105.542 414.089 106.375C413.778 107.201 413.623 108.14 413.623 109.193C413.623 110.261 413.778 111.197 414.089 112C414.407 112.796 414.873 113.417 415.487 113.864C416.108 114.303 416.869 114.523 417.771 114.523Z" fill="black"/>
<path d="M434.259 107.773V118H430.146V100.546H434.077V103.511H434.282C434.683 102.534 435.324 101.758 436.202 101.182C437.089 100.606 438.183 100.318 439.487 100.318C440.691 100.318 441.74 100.576 442.634 101.091C443.536 101.606 444.233 102.352 444.725 103.33C445.225 104.307 445.471 105.493 445.464 106.886V118H441.35V107.523C441.35 106.356 441.047 105.443 440.441 104.784C439.843 104.125 439.013 103.796 437.952 103.796C437.233 103.796 436.593 103.955 436.032 104.273C435.479 104.583 435.043 105.034 434.725 105.625C434.415 106.216 434.259 106.932 434.259 107.773Z" fill="black"/>
<path d="M466.299 100.546V103.727H456.265V100.546H466.299ZM458.742 96.3637H462.856V112.75C462.856 113.303 462.939 113.727 463.106 114.023C463.28 114.311 463.507 114.508 463.788 114.614C464.068 114.72 464.379 114.773 464.719 114.773C464.977 114.773 465.212 114.754 465.424 114.716C465.644 114.678 465.81 114.644 465.924 114.614L466.617 117.83C466.397 117.905 466.083 117.989 465.674 118.08C465.272 118.171 464.78 118.224 464.197 118.239C463.166 118.269 462.238 118.114 461.413 117.773C460.587 117.424 459.932 116.886 459.447 116.159C458.969 115.432 458.735 114.523 458.742 113.432V96.3637Z" fill="black"/>
<path d="M477.165 118.341C475.461 118.341 473.984 117.966 472.734 117.216C471.484 116.466 470.514 115.417 469.825 114.068C469.143 112.72 468.802 111.144 468.802 109.341C468.802 107.538 469.143 105.958 469.825 104.602C470.514 103.246 471.484 102.193 472.734 101.443C473.984 100.693 475.461 100.318 477.165 100.318C478.87 100.318 480.347 100.693 481.597 101.443C482.847 102.193 483.813 103.246 484.495 104.602C485.184 105.958 485.529 107.538 485.529 109.341C485.529 111.144 485.184 112.72 484.495 114.068C483.813 115.417 482.847 116.466 481.597 117.216C480.347 117.966 478.87 118.341 477.165 118.341ZM477.188 115.046C478.112 115.046 478.885 114.792 479.506 114.284C480.128 113.769 480.59 113.08 480.893 112.216C481.203 111.352 481.359 110.39 481.359 109.33C481.359 108.261 481.203 107.296 480.893 106.432C480.59 105.561 480.128 104.868 479.506 104.352C478.885 103.837 478.112 103.58 477.188 103.58C476.241 103.58 475.453 103.837 474.825 104.352C474.203 104.868 473.737 105.561 473.427 106.432C473.124 107.296 472.972 108.261 472.972 109.33C472.972 110.39 473.124 111.352 473.427 112.216C473.737 113.08 474.203 113.769 474.825 114.284C475.453 114.792 476.241 115.046 477.188 115.046Z" fill="black"/>
<path d="M495.498 118.307C494.127 118.307 492.899 117.955 491.816 117.25C490.733 116.546 489.877 115.523 489.248 114.182C488.619 112.841 488.305 111.212 488.305 109.296C488.305 107.356 488.623 105.72 489.259 104.386C489.903 103.046 490.771 102.034 491.862 101.352C492.952 100.663 494.168 100.318 495.509 100.318C496.532 100.318 497.373 100.493 498.032 100.841C498.691 101.182 499.214 101.595 499.6 102.08C499.987 102.557 500.286 103.008 500.498 103.432H500.668V94.7274H504.793V118H500.748V115.25H500.498C500.286 115.674 499.979 116.125 499.577 116.602C499.176 117.072 498.646 117.474 497.987 117.807C497.327 118.14 496.498 118.307 495.498 118.307ZM496.646 114.932C497.517 114.932 498.259 114.697 498.873 114.227C499.487 113.75 499.952 113.087 500.271 112.239C500.589 111.39 500.748 110.402 500.748 109.273C500.748 108.144 500.589 107.163 500.271 106.33C499.96 105.496 499.498 104.849 498.884 104.386C498.278 103.924 497.532 103.693 496.646 103.693C495.729 103.693 494.964 103.932 494.35 104.409C493.737 104.886 493.274 105.546 492.964 106.386C492.653 107.227 492.498 108.189 492.498 109.273C492.498 110.364 492.653 111.337 492.964 112.193C493.282 113.042 493.748 113.712 494.362 114.205C494.983 114.689 495.744 114.932 496.646 114.932Z" fill="black"/>
<path d="M514.2 118.352C513.094 118.352 512.097 118.155 511.211 117.761C510.332 117.36 509.635 116.769 509.12 115.989C508.612 115.208 508.359 114.246 508.359 113.102C508.359 112.118 508.54 111.303 508.904 110.659C509.268 110.015 509.764 109.5 510.393 109.114C511.022 108.727 511.73 108.436 512.518 108.239C513.313 108.034 514.135 107.886 514.984 107.796C516.006 107.689 516.836 107.595 517.472 107.511C518.109 107.421 518.571 107.284 518.859 107.102C519.154 106.913 519.302 106.621 519.302 106.227V106.159C519.302 105.303 519.048 104.64 518.54 104.171C518.033 103.701 517.302 103.466 516.347 103.466C515.34 103.466 514.54 103.686 513.95 104.125C513.366 104.564 512.972 105.083 512.768 105.682L508.927 105.136C509.23 104.076 509.73 103.189 510.427 102.477C511.124 101.758 511.976 101.22 512.984 100.864C513.991 100.5 515.105 100.318 516.325 100.318C517.165 100.318 518.003 100.417 518.836 100.614C519.669 100.811 520.431 101.136 521.12 101.591C521.809 102.038 522.362 102.648 522.779 103.421C523.203 104.193 523.415 105.159 523.415 106.318V118H519.461V115.602H519.325C519.075 116.087 518.722 116.542 518.268 116.966C517.821 117.383 517.256 117.72 516.575 117.977C515.9 118.227 515.109 118.352 514.2 118.352ZM515.268 115.33C516.094 115.33 516.809 115.167 517.415 114.841C518.022 114.508 518.487 114.068 518.813 113.523C519.147 112.977 519.313 112.383 519.313 111.739V109.682C519.184 109.788 518.965 109.886 518.654 109.977C518.351 110.068 518.01 110.148 517.631 110.216C517.253 110.284 516.878 110.345 516.506 110.398C516.135 110.451 515.813 110.496 515.54 110.534C514.927 110.618 514.378 110.754 513.893 110.943C513.408 111.133 513.025 111.398 512.745 111.739C512.465 112.072 512.325 112.504 512.325 113.034C512.325 113.792 512.601 114.364 513.154 114.75C513.707 115.136 514.412 115.33 515.268 115.33Z" fill="black"/>
<path d="M529.484 124.546C528.923 124.546 528.404 124.5 527.927 124.409C527.457 124.326 527.082 124.227 526.802 124.114L527.756 120.909C528.355 121.083 528.889 121.167 529.359 121.159C529.828 121.152 530.241 121.004 530.597 120.716C530.961 120.436 531.268 119.966 531.518 119.307L531.87 118.364L525.54 100.546H529.904L533.927 113.727H534.109L538.143 100.546H542.518L535.529 120.114C535.203 121.038 534.772 121.83 534.234 122.489C533.696 123.155 533.037 123.663 532.256 124.011C531.484 124.368 530.559 124.546 529.484 124.546Z" fill="black"/>
<path d="M339 228C339 215.85 348.85 206 361 206H474C486.15 206 496 215.85 496 228V334C496 346.15 486.15 356 474 356H361C348.85 356 339 346.15 339 334V228Z" fill="#FBC5EC"/>
<path d="M343 456C343 414.579 376.579 381 418 381V381C459.421 381 493 414.579 493 456V456C493 497.421 459.421 531 418 531V531C376.579 531 343 497.421 343 456V456Z" fill="#C0B5F5"/>
<path d="M523 264C523 257.373 528.373 252 535 252H745C751.627 252 757 257.373 757 264V264C757 270.627 751.627 276 745 276H535C528.373 276 523 270.627 523 264V264Z" fill="#EAE7E7"/>
<path d="M523 435C523 428.373 528.373 423 535 423H745C751.627 423 757 428.373 757 435V435C757 441.627 751.627 447 745 447H535C528.373 447 523 441.627 523 435V435Z" fill="#EAE7E7"/>
<path d="M523 302C523 295.373 528.373 290 535 290H641C647.627 290 653 295.373 653 302V302C653 308.627 647.627 314 641 314H535C528.373 314 523 308.627 523 302V302Z" fill="#EAE7E7"/>
<path d="M523 473C523 466.373 528.373 461 535 461H641C647.627 461 653 466.373 653 473V473C653 479.627 647.627 485 641 485H535C528.373 485 523 479.627 523 473V473Z" fill="#EAE7E7"/>
<path d="M379 339.5C379 353.583 367.583 365 353.5 365C339.417 365 328 353.583 328 339.5C328 325.417 339.417 314 353.5 314C367.583 314 379 325.417 379 339.5Z" fill="#CDEE7D"/>
<g clip-path="url(#clip0_267_142)">
<path d="M353.5 353C360.956 353 367 346.956 367 339.5C367 332.044 360.956 326 353.5 326C346.044 326 340 332.044 340 339.5C340 346.956 346.044 353 353.5 353Z" fill="#4BBFA9"/>
<path fill-rule="evenodd" clip-rule="evenodd" d="M360.957 334.743C361.348 335.134 361.348 335.767 360.957 336.157L351.676 345.439C351.285 345.829 350.652 345.829 350.262 345.439L346.043 341.22C345.652 340.829 345.652 340.196 346.043 339.806C346.433 339.415 347.067 339.415 347.457 339.806L350.969 343.317L359.543 334.743C359.933 334.353 360.567 334.353 360.957 334.743Z" fill="white"/>
</g>
<path fill-rule="evenodd" clip-rule="evenodd" d="M807 2H303C287.536 2 275 14.536 275 30V556C275 571.464 287.536 584 303 584H807C822.464 584 835 571.464 835 556V30C835 14.536 822.464 2 807 2ZM303 0C286.431 0 273 13.4315 273 30V556C273 572.569 286.431 586 303 586H807C823.569 586 837 572.569 837 556V30C837 13.4315 823.569 0 807 0H303Z" fill="black"/>
<path fill-rule="evenodd" clip-rule="evenodd" d="M837 165H273V164H837V165Z" fill="black"/>
<defs>
<filter id="filter0_d_267_142" x="0" y="326" width="786" height="427" filterUnits="userSpaceOnUse" color-interpolation-filters="sRGB">
<feFlood flood-opacity="0" result="BackgroundImageFix"/>
<feColorMatrix in="SourceAlpha" type="matrix" values="0 0 0 0 0 0 0 0 0 0 0 0 0 0 0 0 0 0 127 0" result="hardAlpha"/>
<feOffset dx="15" dy="15"/>
<feComposite in2="hardAlpha" operator="out"/>
<feColorMatrix type="matrix" values="0 0 0 0 0 0 0 0 0 0 0 0 0 0 0 0 0 0 0.25 0"/>
<feBlend mode="normal" in2="BackgroundImageFix" result="effect1_dropShadow_267_142"/>
<feBlend mode="normal" in="SourceGraphic" in2="effect1_dropShadow_267_142" result="shape"/>
</filter>
<filter id="filter1_d_267_142" x="273" y="0" width="579" height="601" filterUnits="userSpaceOnUse" color-interpolation-filters="sRGB">
<feFlood flood-opacity="0" result="BackgroundImageFix"/>
<feColorMatrix in="SourceAlpha" type="matrix" values="0 0 0 0 0 0 0 0 0 0 0 0 0 0 0 0 0 0 127 0" result="hardAlpha"/>
<feOffset dx="15" dy="15"/>
<feComposite in2="hardAlpha" operator="out"/>
<feColorMatrix type="matrix" values="0 0 0 0 0 0 0 0 0 0 0 0 0 0 0 0 0 0 0.25 0"/>
<feBlend mode="normal" in2="BackgroundImageFix" result="effect1_dropShadow_267_142"/>
<feBlend mode="normal" in="SourceGraphic" in2="effect1_dropShadow_267_142" result="shape"/>
</filter>
<clipPath id="clip0_267_142">
<rect width="27" height="27" fill="white" transform="translate(340 326)"/>
</clipPath>
</defs>
</svg>
