<svg width="401" height="129" viewBox="0 0 401 129" fill="none" xmlns="http://www.w3.org/2000/svg">
<path fill-rule="evenodd" clip-rule="evenodd" d="M182 8L123.925 121H69.3813L93.6825 74.1682H92.5884C72.5389 100.078 42.6231 117.131 0 121V74.8179C0 74.8179 27.2669 73.2129 43.2949 56.4368H0.00959969V8H48.6696V47.8385H49.7637L69.6501 8H106.447V47.5901H107.542L128.176 8H182Z" fill="#146EF5"/>
<path d="M338.692 125C350.113 125 359.383 115.731 359.383 104.309V83.6172H338.692C327.27 83.6172 318 92.887 318 104.309C318 115.731 327.27 125 338.692 125Z" fill="#0ACF83"/>
<path d="M318 64.0744C318 52.6526 327.27 43.3828 338.692 43.3828H359.383V84.766H338.692C327.27 84.766 318 75.4962 318 64.0744Z" fill="#A259FF"/>
<path d="M318 22.6916C318 11.2698 327.27 2 338.692 2H359.383V43.3832H338.692C327.27 43.3832 318 34.1133 318 22.6916Z" fill="#F24E1E"/>
<path d="M359.383 2H380.074C391.496 2 400.766 11.2698 400.766 22.6916C400.766 34.1133 391.496 43.3832 380.074 43.3832H359.383V2Z" fill="#FF7262"/>
<path d="M400.766 64.0744C400.766 75.4962 391.496 84.766 380.074 84.766C368.653 84.766 359.383 75.4962 359.383 64.0744C359.383 52.6526 368.653 43.3828 380.074 43.3828C391.496 43.3828 400.766 52.6526 400.766 64.0744Z" fill="#1ABCFE"/>
<path d="M265.246 3.0957L205.246 126.096" stroke="#CECECE" stroke-width="5" stroke-linecap="round"/>
</svg>
